Recursive Sans-Casual Medium Italic.ufo
<glyph name="exclam" format="2">
  <advance width="486.3636363636364"/>
  <unicode hex="0021"/>
  <outline>
    <contour>
      <point x="282.4636649399636" y="262.72727272727275" type="line"/>
      <point x="311.4666287727273" y="334.8181818181818"/>
      <point x="342.51493315738185" y="424.8181818181818"/>
      <point x="360.74513171958176" y="496.8181818181818" type="curve"/>
      <point x="400.75273129078175" y="656.8181818181819" type="line" smooth="yes"/>
      <point x="410.4357274061273" y="695.5454545454545"/>
      <point x="381.93606938681825" y="710.0"/>
      <point x="326.66334211409094" y="710.0" type="curve"/>
      <point x="310.3906148413636" y="710.0"/>
      <point x="297.7996677526181" y="709.0"/>
      <point x="282.8905008478" y="705.1818181818181" type="curve"/>
      <point x="281.38917092281815" y="669.7272727272727"/>
      <point x="274.8878409978909" y="633.8181818181819"/>
      <point x="265.29552598627276" y="595.4545454545455" type="curve" smooth="yes"/>
      <point x="241.06327553987273" y="499.0" type="line"/>
      <point x="215.4677687084182" y="397.09090909090907"/>
      <point x="199.51006943181815" y="300.4545454545455"/>
      <point x="212.9640829163818" y="282.8181818181818" type="curve" smooth="yes"/>
      <point x="223.00919548114544" y="269.2727272727273"/>
      <point x="244.00911948541813" y="262.72727272727275"/>
      <point x="273.4636649399636" y="262.72727272727275" type="curve"/>
    </contour>
    <contour>
      <point x="190.7272727272727" y="4.909090909090909" type="curve"/>
      <point x="213.5454545454545" y="94.0909090909091" type="line" smooth="yes"/>
      <point x="224.27272727272725" y="138.27272727272728"/>
      <point x="198.27272727272728" y="161.8181818181818"/>
      <point x="139.90909090909088" y="161.8181818181818" type="curve"/>
      <point x="112.9090909090909" y="161.8181818181818"/>
      <point x="86.36363636363637" y="156.8181818181818"/>
      <point x="65.0" y="147.8181818181818" type="curve"/>
      <point x="42.18181818181818" y="59.54545454545455" type="line" smooth="yes"/>
      <point x="31.454545454545453" y="15.363636363636363"/>
      <point x="58.36363636363637" y="-7.727272727272728"/>
      <point x="120.36363636363636" y="-7.727272727272728" type="curve" smooth="yes"/>
      <point x="146.0" y="-7.727272727272728"/>
      <point x="172.99999999999997" y="-2.727272727272728"/>
    </contour>
  </outline>
</glyph>
<glyph name="quotedbl" format="2">
  <advance width="600.0"/>
  <unicode hex="0022"/>
  <outline>
    <contour>
      <point x="274.3636363636364" y="441.6363636363636" type="curve"/>
      <point x="342.9090909090909" y="667.0" type="line" smooth="yes"/>
      <point x="361.27272727272725" y="725.7272727272727"/>
      <point x="339.6363636363636" y="754.0"/>
      <point x="272.5454545454545" y="754.0" type="curve" smooth="yes"/>
      <point x="257.09090909090907" y="754.0"/>
      <point x="244.27272727272725" y="752.4545454545455"/>
      <point x="233.27272727272728" y="750.0" type="curve"/>
      <point x="235.72727272727272" y="726.0909090909091"/>
      <point x="234.27272727272728" y="709.0909090909091"/>
      <point x="223.63636363636365" y="654.3636363636364" type="curve" smooth="yes"/>
      <point x="191.0909090909091" y="485.09090909090907" type="line" smooth="yes"/>
      <point x="184.72727272727272" y="451.0909090909091"/>
      <point x="198.0" y="438.90909090909093"/>
      <point x="242.63636363636363" y="438.90909090909093" type="curve" smooth="yes"/>
      <point x="254.72727272727272" y="438.90909090909093"/>
      <point x="265.45454545454544" y="439.8181818181818"/>
    </contour>
    <contour>
      <point x="503.45454545454544" y="441.6363636363636" type="curve"/>
      <point x="571.7272727272729" y="660.4545454545455" type="line" smooth="yes"/>
      <point x="591.7272727272727" y="724.3636363636364"/>
      <point x="570.5454545454547" y="754.0"/>
      <point x="507.3636363636365" y="754.0" type="curve" smooth="yes"/>
      <point x="494.3636363636364" y="754.0"/>
      <point x="484.090909090909" y="753.0"/>
      <point x="472.4545454545454" y="750.4545454545455" type="curve"/>
      <point x="421.5454545454545" y="485.09090909090907" type="line"/>
      <point x="415.18181818181813" y="452.0"/>
      <point x="429.3636363636364" y="438.90909090909093"/>
      <point x="473.09090909090907" y="438.90909090909093" type="curve" smooth="yes"/>
      <point x="485.1818181818182" y="438.90909090909093"/>
      <point x="494.54545454545456" y="439.8181818181818"/>
    </contour>
  </outline>
</glyph>
<glyph name="dollar" format="2">
  <advance width="600.0"/>
  <unicode hex="0024"/>
  <outline>
    <contour>
      <point x="225.00000000000003" y="-15.636363636363638" type="curve" smooth="yes"/>
      <point x="376.1818181818182" y="-15.636363636363638"/>
      <point x="480.0" y="47.72727272727273"/>
      <point x="508.0" y="157.63636363636363" type="curve" smooth="yes"/>
      <point x="510.3636363636364" y="167.63636363636363" type="line" smooth="yes"/>
      <point x="525.6363636363636" y="236.36363636363637"/>
      <point x="502.81818181818187" y="306.54545454545456"/>
      <point x="394.54545454545456" y="350.27272727272725" type="curve" smooth="yes"/>
      <point x="314.8181818181818" y="382.6363636363637" type="line" smooth="yes"/>
      <point x="231.18181818181816" y="416.00000000000006"/>
      <point x="211.54545454545453" y="449.09090909090907"/>
      <point x="225.9090909090909" y="502.45454545454544" type="curve" smooth="yes"/>
      <point x="228.45454545454547" y="510.6363636363635" type="line" smooth="yes"/>
      <point x="248.54545454545456" y="574.8181818181819"/>
      <point x="346.00000000000006" y="627.9090909090909"/>
      <point x="463.54545454545456" y="627.9090909090909" type="curve" smooth="yes"/>
      <point x="527.8181818181818" y="627.9090909090909"/>
      <point x="558.0909090909091" y="615.9090909090909"/>
      <point x="584.5454545454545" y="592.4545454545455" type="curve"/>
      <point x="590.5454545454545" y="592.4545454545455" type="line"/>
      <point x="604.0909090909091" y="605.090909090909"/>
      <point x="614.6363636363636" y="623.4545454545454"/>
      <point x="619.0" y="639.3636363636364" type="curve" smooth="yes"/>
      <point x="623.8181818181818" y="656.5454545454545"/>
      <point x="625.1818181818182" y="671.909090909091"/>
      <point x="610.7272727272729" y="687.4545454545455" type="curve" smooth="yes"/>
      <point x="595.5454545454545" y="704.2727272727273"/>
      <point x="553.5454545454546" y="720.0"/>
      <point x="481.9090909090909" y="720.0" type="curve" smooth="yes"/>
      <point x="310.0" y="720.0"/>
      <point x="174.18181818181816" y="639.7272727272729"/>
      <point x="144.18181818181816" y="528.3636363636363" type="curve" smooth="yes"/>
      <point x="141.7272727272727" y="519.090909090909" type="line" smooth="yes"/>
      <point x="121.27272727272728" y="443.3636363636364"/>
      <point x="135.0909090909091" y="367.6363636363636"/>
      <point x="269.00000000000006" y="312.90909090909093" type="curve" smooth="yes"/>
      <point x="349.7272727272727" y="280.0" type="line" smooth="yes"/>
      <point x="421.1818181818182" y="250.72727272727275"/>
      <point x="436.8181818181818" y="212.27272727272728"/>
      <point x="424.00000000000006" y="157.8181818181818" type="curve" smooth="yes"/>
      <point x="422.4545454545455" y="151.1818181818182" type="line" smooth="yes"/>
      <point x="386.6363636363636" y="103.72727272727273"/>
      <point x="322.4545454545455" y="76.45454545454547"/>
      <point x="247.90909090909093" y="76.45454545454547" type="curve" smooth="yes"/>
      <point x="144.54545454545453" y="76.45454545454547"/>
      <point x="81.09090909090908" y="104.72727272727272"/>
      <point x="50.909090909090914" y="163.36363636363637" type="curve"/>
      <point x="44.909090909090914" y="163.36363636363637" type="line"/>
      <point x="35.54545454545454" y="151.0909090909091"/>
      <point x="27.27272727272727" y="137.1818181818182"/>
      <point x="22.36363636363636" y="118.2727272727273" type="curve" smooth="yes"/>
      <point x="13.36363636363636" y="85.27272727272727"/>
      <point x="21.27272727272727" y="56.72727272727272"/>
      <point x="34.45454545454545" y="41.90909090909091" type="curve" smooth="yes"/>
      <point x="67.81818181818181" y="2.545454545454543"/>
      <point x="131.63636363636363" y="-15.636363636363638"/>
    </contour>
    <contour>
      <point x="383.09090909090907" y="417.54545454545456" type="curve"/>
      <point x="438.9090909090909" y="525.8181818181818"/>
      <point x="502.5454545454546" y="692.1818181818182"/>
      <point x="531.6363636363636" y="805.5454545454545" type="curve" smooth="yes"/>
      <point x="547.0" y="863.6363636363637"/>
      <point x="533.6363636363636" y="889.5454545454545"/>
      <point x="489.8181818181818" y="889.5454545454545" type="curve" smooth="yes"/>
      <point x="472.54545454545456" y="889.5454545454545"/>
      <point x="456.6363636363636" y="886.6363636363636"/>
      <point x="445.09090909090907" y="881.4545454545455" type="curve"/>
      <point x="448.99999999999994" y="856.5454545454545"/>
      <point x="449.0" y="831.8181818181819"/>
      <point x="438.1818181818182" y="772.5454545454545" type="curve" smooth="yes"/>
      <point x="420.45454545454544" y="674.5454545454545"/>
      <point x="387.6363636363636" y="558.818181818182"/>
      <point x="349.6363636363636" y="462.3636363636364" type="curve" smooth="yes"/>
      <point x="343.3636363636364" y="447.7272727272727"/>
      <point x="346.45454545454544" y="433.18181818181813"/>
      <point x="359.0909090909091" y="426.0" type="curve" smooth="yes"/>
      <point x="367.45454545454544" y="420.3636363636364"/>
      <point x="375.8181818181818" y="418.0"/>
    </contour>
    <contour>
      <point x="263.09090909090907" y="247.45454545454544" type="curve"/>
      <point x="203.99999999999997" y="125.81818181818181"/>
      <point x="147.45454545454544" y="-7.909090909090914"/>
      <point x="120.63636363636364" y="-112.36363636363636" type="curve" smooth="yes"/>
      <point x="105.36363636363636" y="-169.0909090909091"/>
      <point x="117.63636363636364" y="-195.0"/>
      <point x="159.8181818181818" y="-195.0" type="curve" smooth="yes"/>
      <point x="177.0909090909091" y="-195.0"/>
      <point x="193.00000000000003" y="-192.0909090909091"/>
      <point x="204.54545454545456" y="-186.90909090909088" type="curve"/>
      <point x="202.27272727272728" y="-162.0"/>
      <point x="202.8181818181818" y="-137.27272727272725"/>
      <point x="210.36363636363637" y="-94.9090909090909" type="curve" smooth="yes"/>
      <point x="227.0909090909091" y="2.000000000000014"/>
      <point x="267.0" y="122.99999999999996"/>
      <point x="295.6363636363636" y="199.18181818181816" type="curve" smooth="yes"/>
      <point x="301.4545454545455" y="215.54545454545453"/>
      <point x="299.72727272727275" y="230.18181818181816"/>
      <point x="285.45454545454544" y="238.45454545454544" type="curve" smooth="yes"/>
      <point x="277.6363636363637" y="244.09090909090912"/>
      <point x="270.3636363636364" y="246.45454545454544"/>
    </contour>
  </outline>
</glyph>
<glyph name="percent" format="2">
  <advance width="600.0"/>
  <unicode hex="0025"/>
  <outline>
    <contour>
      <point x="288.54545454545456" y="710.0" type="curve" smooth="yes"/>
      <point x="194.5454545454545" y="710.0"/>
      <point x="113.54545454545455" y="637.0"/>
      <point x="86.54545454545455" y="529.0" type="curve" smooth="yes"/>
      <point x="84.54545454545455" y="522.9999999999999" type="line" smooth="yes"/>
      <point x="59.54545454545455" y="420.0"/>
      <point x="100.54545454545455" y="356.0"/>
      <point x="193.54545454545453" y="356.0" type="curve" smooth="yes"/>
      <point x="290.5454545454545" y="356.0"/>
      <point x="369.00000000000006" y="423.8181818181818"/>
      <point x="395.90909090909093" y="530.5454545454545" type="curve" smooth="yes"/>
      <point x="397.4545454545455" y="536.5454545454545" type="line" smooth="yes"/>
      <point x="423.00000000000006" y="639.4545454545454"/>
      <point x="377.6363636363636" y="710.0"/>
    </contour>
    <contour>
      <point x="153.0" y="520.7272727272727" type="curve" smooth="yes"/>
      <point x="154.54545454545453" y="525.8181818181819" type="line" smooth="yes"/>
      <point x="171.36363636363637" y="595.0"/>
      <point x="220.36363636363635" y="642.2727272727273"/>
      <point x="274.6363636363636" y="642.2727272727273" type="curve" smooth="yes"/>
      <point x="289.0" y="642.2727272727273"/>
      <point x="299.27272727272725" y="640.7272727272727"/>
      <point x="308.0909090909091" y="637.6363636363636" type="curve" smooth="yes"/>
      <point x="328.3636363636363" y="613.4545454545454"/>
      <point x="327.09090909090907" y="581.4545454545454"/>
      <point x="318.27272727272725" y="547.1818181818182" type="curve" smooth="yes"/>
      <point x="317.27272727272725" y="542.0909090909091" type="line" smooth="yes"/>
      <point x="301.0" y="476.45454545454544"/>
      <point x="259.99999999999994" y="438.45454545454544"/>
      <point x="196.9090909090909" y="438.45454545454544" type="curve" smooth="yes"/>
      <point x="188.18181818181822" y="438.45454545454544"/>
      <point x="172.0909090909091" y="439.45454545454544"/>
      <point x="157.27272727272728" y="447.2727272727273" type="curve" smooth="yes"/>
      <point x="143.81818181818184" y="466.6363636363636"/>
      <point x="146.8181818181818" y="495.3636363636364"/>
    </contour>
    <contour>
      <point x="446.63636363636357" y="344.0" type="curve" smooth="yes"/>
      <point x="352.6363636363636" y="344.0"/>
      <point x="271.63636363636357" y="271.0"/>
      <point x="244.63636363636363" y="163.0" type="curve" smooth="yes"/>
      <point x="243.63636363636363" y="157.0" type="line" smooth="yes"/>
      <point x="217.6363636363636" y="54.0"/>
      <point x="258.6363636363637" y="-10.0"/>
      <point x="351.6363636363636" y="-10.0" type="curve" smooth="yes"/>
      <point x="448.6363636363636" y="-10.0"/>
      <point x="527.0909090909091" y="57.81818181818182"/>
      <point x="554.0" y="164.54545454545456" type="curve" smooth="yes"/>
      <point x="555.5454545454546" y="170.54545454545456" type="line" smooth="yes"/>
      <point x="581.6363636363637" y="273.4545454545455"/>
      <point x="535.7272727272727" y="344.0"/>
    </contour>
    <contour>
      <point x="311.0909090909091" y="154.72727272727272" type="curve" smooth="yes"/>
      <point x="312.6363636363637" y="159.8181818181818" type="line" smooth="yes"/>
      <point x="329.909090909091" y="229.0"/>
      <point x="378.45454545454544" y="276.2727272727273"/>
      <point x="432.7272727272727" y="276.2727272727273" type="curve" smooth="yes"/>
      <point x="447.09090909090907" y="276.2727272727273"/>
      <point x="457.3636363636363" y="274.72727272727275"/>
      <point x="466.1818181818182" y="271.6363636363636" type="curve" smooth="yes"/>
      <point x="486.4545454545455" y="247.45454545454544"/>
      <point x="485.1818181818182" y="215.45454545454544"/>
      <point x="476.9090909090909" y="181.1818181818182" type="curve" smooth="yes"/>
      <point x="475.3636363636364" y="176.0909090909091" type="line" smooth="yes"/>
      <point x="459.0909090909091" y="110.45454545454545"/>
      <point x="418.54545454545456" y="72.45454545454545"/>
      <point x="355.45454545454544" y="72.45454545454545" type="curve" smooth="yes"/>
      <point x="346.7272727272727" y="72.45454545454545"/>
      <point x="330.1818181818182" y="73.45454545454547"/>
      <point x="315.3636363636364" y="81.27272727272727" type="curve" smooth="yes"/>
      <point x="302.90909090909093" y="100.63636363636364"/>
      <point x="304.90909090909093" y="129.36363636363637"/>
    </contour>
    <contour>
      <point x="397.54545454545456" y="411.54545454545456" type="curve"/>
      <point x="407.8181818181818" y="405.2727272727273"/>
      <point x="421.3636363636363" y="401.90909090909093"/>
      <point x="439.1818181818182" y="401.90909090909093" type="curve" smooth="yes"/>
      <point x="461.00000000000006" y="401.90909090909093"/>
      <point x="473.00000000000006" y="405.8181818181818"/>
      <point x="488.1818181818182" y="420.0" type="curve" smooth="yes"/>
      <point x="553.5454545454545" y="477.9090909090909"/>
      <point x="628.9090909090909" y="599.0"/>
      <point x="645.9090909090909" y="668.0" type="curve" smooth="yes"/>
      <point x="652.6363636363637" y="695.3636363636364"/>
      <point x="639.7272727272727" y="709.1818181818181"/>
      <point x="612.6363636363636" y="709.1818181818181" type="curve" smooth="yes"/>
      <point x="593.3636363636364" y="709.1818181818181"/>
      <point x="577.5454545454545" y="707.1818181818182"/>
      <point x="564.6363636363636" y="703.7272727272727" type="curve"/>
      <point x="528.2727272727274" y="595.0000000000001"/>
      <point x="476.27272727272725" y="503.18181818181813"/>
    </contour>
    <contour>
      <point x="242.45454545454547" y="288.45454545454544" type="curve"/>
      <point x="232.1818181818182" y="294.72727272727275"/>
      <point x="219.72727272727272" y="297.54545454545456"/>
      <point x="202.45454545454547" y="297.54545454545456" type="curve" smooth="yes"/>
      <point x="181.1818181818182" y="297.54545454545456"/>
      <point x="169.1818181818182" y="293.6363636363636"/>
      <point x="153.45454545454547" y="279.45454545454544" type="curve" smooth="yes"/>
      <point x="89.18181818181819" y="221.54545454545456"/>
      <point x="12.727272727272725" y="99.90909090909092"/>
      <point x="-4.272727272727275" y="31.454545454545457" type="curve" smooth="yes"/>
      <point x="-11.000000000000004" y="3.0"/>
      <point x="1.363636363636362" y="-9.727272727272727"/>
      <point x="30.090909090909086" y="-9.727272727272727" type="curve" smooth="yes"/>
      <point x="48.272727272727266" y="-9.727272727272727"/>
      <point x="63.545454545454554" y="-7.727272727272728"/>
      <point x="77.0" y="-4.272727272727273" type="curve"/>
      <point x="113.36363636363637" y="102.8181818181818"/>
      <point x="164.8181818181818" y="195.18181818181816"/>
    </contour>
  </outline>
</glyph>
<glyph name="ampersand" format="2">
  <advance width="600.0"/>
  <unicode hex="0026"/>
  <outline>
    <contour>
      <point x="265.3636363636363" y="365.0" type="curve" smooth="yes"/>
      <point x="250.81818181818176" y="422.72727272727275"/>
      <point x="249.81818181818178" y="483.0909090909091"/>
      <point x="260.45454545454544" y="525.6363636363635" type="curve" smooth="yes"/>
      <point x="263.5454545454545" y="537.0"/>
      <point x="267.09090909090907" y="550.090909090909"/>
      <point x="273.27272727272725" y="560.8181818181819" type="curve"/>
      <point x="298.00000000000006" y="594.3636363636365"/>
      <point x="346.54545454545456" y="615.0909090909091"/>
      <point x="408.54545454545456" y="615.0909090909091" type="curve" smooth="yes"/>
      <point x="468.9090909090909" y="615.0909090909091"/>
      <point x="504.0" y="604.4545454545454"/>
      <point x="531.2727272727273" y="581.181818181818" type="curve"/>
      <point x="537.2727272727273" y="581.181818181818" type="line"/>
      <point x="546.8181818181819" y="590.7272727272727"/>
      <point x="556.0000000000001" y="603.7272727272727"/>
      <point x="560.3636363636365" y="621.6363636363635" type="curve" smooth="yes"/>
      <point x="566.0909090909091" y="644.5454545454546"/>
      <point x="565.1818181818181" y="663.7272727272727"/>
      <point x="551.7272727272727" y="678.1818181818184" type="curve" smooth="yes"/>
      <point x="535.4545454545454" y="696.0"/>
      <point x="492.09090909090907" y="710.0"/>
      <point x="421.2727272727273" y="710.0" type="curve" smooth="yes"/>
      <point x="284.99999999999994" y="710.0"/>
      <point x="197.45454545454544" y="635.9090909090909"/>
      <point x="174.9090909090909" y="539.1818181818182" type="curve" smooth="yes"/>
      <point x="173.36363636363635" y="532.6363636363636" type="line" smooth="yes"/>
      <point x="161.09090909090907" y="474.8181818181818"/>
      <point x="163.63636363636363" y="406.6363636363636"/>
      <point x="182.99999999999997" y="336.1818181818182" type="curve" smooth="yes"/>
      <point x="208.54545454545456" y="244.1818181818182"/>
      <point x="256.0909090909091" y="149.9090909090909"/>
      <point x="306.8181818181818" y="82.18181818181819" type="curve" smooth="yes"/>
      <point x="359.72727272727275" y="11.272727272727272"/>
      <point x="391.3636363636364" y="-10.0"/>
      <point x="439.90909090909093" y="-10.0" type="curve" smooth="yes"/>
      <point x="457.6363636363636" y="-10.0"/>
      <point x="472.3636363636363" y="-5.636363636363637"/>
      <point x="483.63636363636357" y="2.0909090909090913" type="curve" smooth="yes"/>
      <point x="499.3636363636363" y="13.272727272727275"/>
      <point x="510.5454545454545" y="29.363636363636367"/>
      <point x="516.2727272727271" y="56.09090909090909" type="curve" smooth="yes"/>
      <point x="520.0909090909091" y="74.72727272727275"/>
      <point x="519.6363636363635" y="91.45454545454545"/>
      <point x="516.2727272727273" y="105.00000000000001" type="curve"/>
      <point x="510.2727272727272" y="105.00000000000001" type="line"/>
      <point x="499.8181818181818" y="93.54545454545456"/>
      <point x="489.72727272727275" y="90.00000000000001"/>
      <point x="469.2727272727273" y="90.00000000000001" type="curve" smooth="yes"/>
      <point x="436.45454545454544" y="90.00000000000001"/>
      <point x="397.4545454545454" y="110.1818181818182"/>
      <point x="369.09090909090907" y="148.54545454545456" type="curve" smooth="yes"/>
      <point x="321.0909090909091" y="211.45454545454547"/>
      <point x="283.3636363636364" y="291.9090909090909"/>
    </contour>
    <contour>
      <point x="136.18181818181816" y="-9.545454545454545" type="curve" smooth="yes"/>
      <point x="209.09090909090912" y="-9.545454545454545"/>
      <point x="267.81818181818187" y="19.909090909090914"/>
      <point x="304.27272727272725" y="78.0" type="curve"/>
      <point x="340.72727272727275" y="78.0" type="line"/>
      <point x="306.2727272727273" y="141.18181818181816" type="line"/>
      <point x="264.3636363636364" y="91.36363636363637"/>
      <point x="222.0909090909091" y="75.54545454545455"/>
      <point x="171.0" y="75.54545454545455" type="curve" smooth="yes"/>
      <point x="106.8181818181818" y="75.54545454545455"/>
      <point x="75.36363636363637" y="117.45454545454545"/>
      <point x="94.54545454545455" y="179.45454545454544" type="curve" smooth="yes"/>
      <point x="96.09090909090911" y="184.63636363636365" type="line" smooth="yes"/>
      <point x="113.36363636363637" y="241.99999999999997"/>
      <point x="165.45454545454547" y="279.6363636363636"/>
      <point x="221.72727272727272" y="290.00000000000006" type="curve"/>
      <point x="197.09090909090907" y="359.3636363636364" type="line"/>
      <point x="178.0909090909091" y="332.3636363636364" type="line"/>
      <point x="98.9090909090909" y="314.4545454545455"/>
      <point x="23.363636363636356" y="253.3636363636364"/>
      <point x="2.5454545454545423" y="168.0" type="curve" smooth="yes"/>
      <point x="0.5454545454545419" y="158.27272727272728" type="line" smooth="yes"/>
      <point x="-18.81818181818182" y="69.18181818181817"/>
      <point x="29.454545454545453" y="-9.545454545454545"/>
    </contour>
    <contour>
      <point x="451.54545454545456" y="395.90909090909093" type="curve"/>
      <point x="450.0" y="381.8181818181818"/>
      <point x="448.0" y="370.0"/>
      <point x="443.3636363636364" y="350.1818181818182" type="curve" smooth="yes"/>
      <point x="429.6363636363636" y="291.3636363636363"/>
      <point x="392.27272727272725" y="229.45454545454547"/>
      <point x="329.81818181818187" y="164.2727272727273" type="curve"/>
      <point x="369.09090909090907" y="109.72727272727272" type="line"/>
      <point x="377.99999999999994" y="147.8181818181818" type="line"/>
      <point x="464.54545454545456" y="197.8181818181818"/>
      <point x="520.7272727272729" y="269.0"/>
      <point x="536.3636363636365" y="338.5454545454545" type="curve" smooth="yes"/>
      <point x="538.3636363636365" y="347.54545454545456" type="line" smooth="yes"/>
      <point x="545.6363636363637" y="379.9090909090909"/>
      <point x="526.7272727272727" y="399.8181818181818"/>
      <point x="484.36363636363643" y="399.8181818181818" type="curve"/>
      <point x="468.45454545454544" y="399.8181818181818"/>
      <point x="459.81818181818187" y="398.3636363636363"/>
    </contour>
  </outline>
</glyph>
<glyph name="quotesingle" format="2">
  <advance width="272.7272727272727"/>
  <unicode hex="0027"/>
  <outline>
    <contour>
      <point x="216.45454545454547" y="441.6363636363636" type="curve"/>
      <point x="283.3636363636364" y="660.4545454545455" type="line" smooth="yes"/>
      <point x="303.3636363636364" y="725.7272727272727"/>
      <point x="281.72727272727275" y="754.0"/>
      <point x="211.9090909090909" y="754.0" type="curve" smooth="yes"/>
      <point x="199.1818181818182" y="754.0"/>
      <point x="186.36363636363637" y="752.4545454545455"/>
      <point x="175.36363636363637" y="750.0" type="curve"/>
      <point x="177.81818181818184" y="726.0909090909091"/>
      <point x="176.36363636363637" y="709.0909090909091"/>
      <point x="165.72727272727275" y="654.3636363636364" type="curve" smooth="yes"/>
      <point x="133.1818181818182" y="485.09090909090907" type="line" smooth="yes"/>
      <point x="126.81818181818181" y="451.54545454545456"/>
      <point x="140.54545454545453" y="438.90909090909093"/>
      <point x="184.72727272727272" y="438.90909090909093" type="curve" smooth="yes"/>
      <point x="196.8181818181818" y="438.90909090909093"/>
      <point x="207.54545454545456" y="439.8181818181818"/>
    </contour>
  </outline>
</glyph>
<glyph name="parenleft" format="2">
  <advance width="418.1818181818182"/>
  <unicode hex="0028"/>
  <outline>
    <contour>
      <point x="366.0" y="741.2727272727274" type="curve" smooth="yes"/>
      <point x="238.27272727272728" y="645.1818181818182"/>
      <point x="138.09090909090907" y="487.09090909090907"/>
      <point x="97.36363636363637" y="317.09090909090907" type="curve" smooth="yes"/>
      <point x="94.27272727272728" y="304.27272727272725" type="line" smooth="yes"/>
      <point x="53.54545454545455" y="132.63636363636363"/>
      <point x="77.9090909090909" y="-42.09090909090909"/>
      <point x="146.0" y="-138.0" type="curve" smooth="yes"/>
      <point x="162.54545454545456" y="-162.1818181818182"/>
      <point x="181.1818181818182" y="-172.45454545454547"/>
      <point x="206.36363636363637" y="-172.45454545454547" type="curve" smooth="yes"/>
      <point x="228.81818181818184" y="-172.45454545454547"/>
      <point x="251.54545454545456" y="-166.1818181818182"/>
      <point x="266.8181818181818" y="-152.36363636363637" type="curve"/>
      <point x="268.2727272727273" y="-146.36363636363637" type="line"/>
      <point x="180.54545454545456" y="-33.90909090909091"/>
      <point x="159.27272727272728" y="125.63636363636364"/>
      <point x="201.00000000000003" y="301.54545454545456" type="curve" smooth="yes"/>
      <point x="204.09090909090912" y="314.3636363636364" type="line" smooth="yes"/>
      <point x="243.27272727272728" y="477.72727272727275"/>
      <point x="343.1818181818182" y="621.1818181818182"/>
      <point x="506.63636363636374" y="734.909090909091" type="curve"/>
      <point x="508.0909090909091" y="740.909090909091" type="line"/>
      <point x="496.0909090909091" y="758.0909090909091"/>
      <point x="471.45454545454544" y="770.0"/>
      <point x="444.0" y="770.0" type="curve" smooth="yes"/>
      <point x="416.27272727272725" y="770.0"/>
      <point x="393.90909090909093" y="762.8181818181818"/>
    </contour>
  </outline>
</glyph>
<glyph name="parenright" format="2">
  <advance width="425.0"/>
  <unicode hex="0029"/>
  <outline>
    <contour>
      <point x="89.5" y="-142.5" type="curve" smooth="yes"/>
      <point x="216.0" y="-47.0"/>
      <point x="315.0" y="110.0"/>
      <point x="355.5" y="280.0" type="curve" smooth="yes"/>
      <point x="358.5" y="292.5" type="line" smooth="yes"/>
      <point x="399.0" y="464.0"/>
      <point x="375.5" y="639.0"/>
      <point x="308.5" y="734.0" type="curve" smooth="yes"/>
      <point x="291.5" y="759.0"/>
      <point x="272.0" y="770.0"/>
      <point x="245.5" y="770.0" type="curve" smooth="yes"/>
      <point x="222.0" y="770.0"/>
      <point x="198.0" y="763.5"/>
      <point x="182.0" y="749.0" type="curve"/>
      <point x="180.5" y="743.0" type="line"/>
      <point x="267.5" y="631.5"/>
      <point x="288.0" y="471.5"/>
      <point x="246.5" y="295.5" type="curve" smooth="yes"/>
      <point x="243.5" y="283.0" type="line" smooth="yes"/>
      <point x="204.5" y="119.5"/>
      <point x="105.0" y="-23.0"/>
      <point x="-58.0" y="-136.0" type="curve"/>
      <point x="-59.5" y="-142.0" type="line"/>
      <point x="-47.0" y="-160.0"/>
      <point x="-21.0" y="-172.5"/>
      <point x="8.0" y="-172.5" type="curve" smooth="yes"/>
      <point x="37.0" y="-172.5"/>
      <point x="60.5" y="-165.0"/>
    </contour>
  </outline>
</glyph>
<glyph name="asterisk" format="2">
  <advance width="600.0"/>
  <unicode hex="002A"/>
  <outline>
    <contour>
      <point x="361.0909090909091" y="576.9090909090909" type="curve" smooth="yes"/>
      <point x="340.8181818181818" y="576.9090909090909"/>
      <point x="325.6363636363637" y="574.4545454545455"/>
      <point x="312.72727272727275" y="569.6363636363636" type="curve"/>
      <point x="317.0" y="546.8181818181818"/>
      <point x="317.3636363636364" y="530.0909090909089"/>
      <point x="315.72727272727275" y="498.99999999999994" type="curve" smooth="yes"/>
      <point x="310.8181818181818" y="445.8181818181818"/>
      <point x="302.45454545454544" y="402.6363636363637"/>
      <point x="298.2727272727273" y="361.0909090909091" type="curve"/>
      <point x="291.2727272727272" y="357.54545454545456" type="line"/>
      <point x="257.90909090909093" y="388.6363636363636"/>
      <point x="220.72727272727272" y="420.2727272727273"/>
      <point x="184.18181818181822" y="449.27272727272725" type="curve" smooth="yes"/>
      <point x="155.18181818181822" y="473.99999999999994"/>
      <point x="124.63636363636364" y="470.09090909090907"/>
      <point x="103.09090909090911" y="437.9090909090909" type="curve" smooth="yes"/>
      <point x="94.27272727272727" y="424.6363636363636"/>
      <point x="89.54545454545453" y="410.09090909090907"/>
      <point x="87.0909090909091" y="396.45454545454544" type="curve"/>
      <point x="148.36363636363637" y="363.9090909090909"/>
      <point x="196.54545454545453" y="342.3636363636364"/>
      <point x="253.09090909090904" y="314.3636363636364" type="curve"/>
      <point x="251.54545454545453" y="308.3636363636364" type="line"/>
      <point x="192.63636363636363" y="289.90909090909093"/>
      <point x="139.63636363636363" y="270.54545454545456"/>
      <point x="83.27272727272728" y="250.63636363636365" type="curve" smooth="yes"/>
      <point x="46.09090909090909" y="240.8181818181818"/>
      <point x="36.45454545454545" y="210.00000000000003"/>
      <point x="47.72727272727273" y="175.0909090909091" type="curve" smooth="yes"/>
      <point x="52.54545454545453" y="159.27272727272728"/>
      <point x="62.54545454545454" y="148.0909090909091"/>
      <point x="73.90909090909092" y="141.0" type="curve"/>
      <point x="141.45454545454547" y="181.63636363636363"/>
      <point x="203.45454545454547" y="220.27272727272728"/>
      <point x="265.36363636363643" y="262.8181818181818" type="curve"/>
      <point x="270.8181818181818" y="259.2727272727273" type="line"/>
      <point x="249.72727272727275" y="212.9090909090909"/>
      <point x="230.81818181818184" y="167.36363636363635"/>
      <point x="216.99999999999997" y="128.0" type="curve" smooth="yes"/>
      <point x="193.36363636363632" y="73.0909090909091"/>
      <point x="209.54545454545456" y="42.63636363636363"/>
      <point x="253.63636363636365" y="42.63636363636363" type="curve" smooth="yes"/>
      <point x="270.72727272727275" y="42.63636363636363"/>
      <point x="289.99999999999994" y="44.09090909090909"/>
      <point x="304.5454545454545" y="49.36363636363637" type="curve"/>
      <point x="299.90909090909093" y="70.27272727272727"/>
      <point x="299.0" y="91.0909090909091"/>
      <point x="303.8181818181818" y="122.63636363636364" type="curve" smooth="yes"/>
      <point x="310.45454545454544" y="169.45454545454547"/>
      <point x="319.2727272727273" y="213.09090909090912"/>
      <point x="325.72727272727275" y="259.72727272727275" type="curve"/>
      <point x="332.2727272727273" y="262.3636363636363" type="line"/>
      <point x="365.27272727272725" y="227.9090909090909"/>
      <point x="394.09090909090907" y="200.99999999999997"/>
      <point x="428.6363636363636" y="171.0" type="curve" smooth="yes"/>
      <point x="458.27272727272725" y="141.81818181818184"/>
      <point x="489.3636363636364" y="147.36363636363637"/>
      <point x="515.3636363636364" y="181.27272727272725" type="curve" smooth="yes"/>
      <point x="524.0" y="192.36363636363637"/>
      <point x="529.7272727272727" y="205.27272727272725"/>
      <point x="533.5454545454545" y="221.09090909090907" type="curve"/>
      <point x="471.5454545454546" y="253.5454545454546"/>
      <point x="418.1818181818182" y="283.1818181818182"/>
      <point x="364.8181818181818" y="307.0" type="curve"/>
      <point x="366.3636363636364" y="313.0" type="line"/>
      <point x="422.3636363636364" y="330.4545454545455"/>
      <point x="477.90909090909093" y="350.1818181818182"/>
      <point x="538.6363636363636" y="372.72727272727275" type="curve" smooth="yes"/>
      <point x="577.6363636363636" y="384.0"/>
      <point x="591.3636363636364" y="416.09090909090907"/>
      <point x="576.2727272727273" y="449.00000000000006" type="curve" smooth="yes"/>
      <point x="569.5454545454546" y="463.8181818181818"/>
      <point x="561.2727272727273" y="472.54545454545456"/>
      <point x="551.0" y="479.8181818181818" type="curve"/>
      <point x="465.6363636363636" y="428.7272727272727"/>
      <point x="406.54545454545456" y="392.1818181818182"/>
      <point x="355.27272727272725" y="357.09090909090907" type="curve"/>
      <point x="349.8181818181818" y="361.0909090909091" type="line"/>
      <point x="367.45454545454544" y="397.27272727272725"/>
      <point x="388.1818181818182" y="446.6363636363636"/>
      <point x="402.8181818181818" y="490.45454545454544" type="curve" smooth="yes"/>
      <point x="424.7272727272728" y="545.4545454545454"/>
      <point x="411.54545454545456" y="576.9090909090909"/>
    </contour>
  </outline>
</glyph>
<glyph name="plus" format="2">
  <advance width="600.0"/>
  <unicode hex="002B"/>
  <outline>
    <contour>
      <point x="300.5" y="538.5" type="curve"/>
      <point x="305.0" y="514.0"/>
      <point x="304.5" y="486.5"/>
      <point x="297.5" y="448.5" type="curve" smooth="yes"/>
      <point x="279.5" y="350.5"/>
      <point x="224.0" y="241.5"/>
      <point x="210.5" y="146.0" type="curve" smooth="yes"/>
      <point x="201.5" y="85.5"/>
      <point x="226.0" y="55.0"/>
      <point x="284.5" y="55.0" type="curve" smooth="yes"/>
      <point x="293.0" y="55.0"/>
      <point x="299.5" y="56.0"/>
      <point x="306.5" y="58.0" type="curve"/>
      <point x="307.0" y="176.0"/>
      <point x="368.5" y="288.5"/>
      <point x="397.5" y="422.5" type="curve" smooth="yes"/>
      <point x="417.5" y="504.5"/>
      <point x="396.5" y="543.0"/>
      <point x="334.5" y="543.0" type="curve" smooth="yes"/>
      <point x="321.0" y="543.0"/>
      <point x="310.0" y="541.5"/>
    </contour>
    <contour>
      <point x="75.5" y="350.0" type="line"/>
      <point x="69.5" y="337.0"/>
      <point x="64.0" y="321.5"/>
      <point x="60.5" y="308.5" type="curve" smooth="yes"/>
      <point x="50.5" y="271.0"/>
      <point x="66.0" y="250.0"/>
      <point x="104.0" y="250.0" type="curve"/>
      <point x="542.0" y="250.0" type="line"/>
      <point x="547.0" y="264.0"/>
      <point x="551.5" y="278.0"/>
      <point x="555.0" y="291.5" type="curve"/>
      <point x="565.0" y="331.5"/>
      <point x="550.5" y="350.0"/>
      <point x="506.5" y="350.0" type="curve"/>
    </contour>
  </outline>
</glyph>
<glyph name="comma" format="2">
  <advance width="400.0"/>
  <unicode hex="002C"/>
  <outline>
    <contour>
      <point x="55.0" y="-195.0" type="curve" smooth="yes"/>
      <point x="71.5" y="-195.0"/>
      <point x="84.0" y="-191.5"/>
      <point x="94.5" y="-181.0" type="curve"/>
      <point x="169.0" y="-113.5"/>
      <point x="241.5" y="5.5"/>
      <point x="267.5" y="118.5" type="curve"/>
      <point x="277.0" y="162.5"/>
      <point x="251.5" y="183.0"/>
      <point x="193.0" y="183.0" type="curve" smooth="yes"/>
      <point x="173.5" y="183.0"/>
      <point x="158.0" y="180.5"/>
      <point x="138.0" y="174.5" type="curve"/>
      <point x="104.0" y="21.0"/>
      <point x="64.0" y="-70.5"/>
      <point x="-13.5" y="-169.0" type="curve"/>
      <point x="3.0" y="-185.5"/>
      <point x="25.5" y="-195.0"/>
    </contour>
  </outline>
</glyph>
<glyph name="hyphen" format="2">
  <advance width="600.0"/>
  <unicode hex="002D"/>
  <outline>
    <contour>
      <point x="123.27272727272728" y="347.2727272727273" type="line"/>
      <point x="121.81818181818181" y="342.90909090909093"/>
      <point x="120.81818181818181" y="338.0"/>
      <point x="119.36363636363637" y="333.1818181818182" type="curve" smooth="yes"/>
      <point x="102.81818181818183" y="270.09090909090907"/>
      <point x="111.0" y="251.8181818181818"/>
      <point x="160.0909090909091" y="251.8181818181818" type="curve"/>
      <point x="489.72727272727275" y="251.8181818181818" type="line"/>
      <point x="494.3636363636364" y="263.0"/>
      <point x="499.0" y="275.6363636363637"/>
      <point x="501.8181818181818" y="285.90909090909093" type="curve" smooth="yes"/>
      <point x="513.4545454545455" y="328.1818181818182"/>
      <point x="504.3636363636363" y="347.2727272727273"/>
      <point x="471.5454545454545" y="347.2727272727273" type="curve"/>
    </contour>
  </outline>
</glyph>
<glyph name="period" format="2">
  <advance width="350.0"/>
  <unicode hex="002E"/>
  <outline>
    <contour>
      <point x="192.5" y="4.5" type="curve"/>
      <point x="216.0" y="96.5" type="line" smooth="yes"/>
      <point x="227.0" y="141.5"/>
      <point x="200.5" y="165.5"/>
      <point x="141.0" y="165.5" type="curve"/>
      <point x="113.5" y="165.5"/>
      <point x="86.0" y="160.5"/>
      <point x="64.0" y="151.5" type="curve"/>
      <point x="40.5" y="60.5" type="line" smooth="yes"/>
      <point x="29.5" y="15.5"/>
      <point x="57.0" y="-8.0"/>
      <point x="120.5" y="-8.0" type="curve" smooth="yes"/>
      <point x="146.5" y="-8.0"/>
      <point x="174.5" y="-3.0"/>
    </contour>
  </outline>
</glyph>
<glyph name="zero" format="2">
  <advance width="600.0"/>
  <unicode hex="0030"/>
  <outline>
    <contour>
      <point x="405.1818181818182" y="720.0" type="curve" smooth="yes"/>
      <point x="267.090909090909" y="720.0"/>
      <point x="150.45454545454547" y="612.0909090909091"/>
      <point x="90.72727272727272" y="375.54545454545456" type="curve" smooth="yes"/>
      <point x="80.72727272727273" y="336.0909090909091" type="line" smooth="yes"/>
      <point x="25.54545454545455" y="119.18181818181819"/>
      <point x="98.36363636363636" y="-20.0"/>
      <point x="239.3636363636364" y="-20.0" type="curve" smooth="yes"/>
      <point x="371.0" y="-20.0"/>
      <point x="487.63636363636374" y="73.81818181818183"/>
      <point x="543.5454545454545" y="302.45454545454544" type="curve" smooth="yes"/>
      <point x="554.6363636363637" y="348.81818181818187" type="line" smooth="yes"/>
      <point x="611.1818181818182" y="578.3636363636364"/>
      <point x="548.9090909090908" y="720.0"/>
    </contour>
    <contour>
      <point x="397.8181818181818" y="629.4545454545454" type="curve" smooth="yes"/>
      <point x="419.3636363636364" y="629.4545454545454"/>
      <point x="436.99999999999994" y="625.6363636363636"/>
      <point x="452.09090909090907" y="617.5454545454545" type="curve" smooth="yes"/>
      <point x="487.3636363636363" y="567.0000000000001"/>
      <point x="492.00000000000006" y="481.8181818181818"/>
      <point x="462.6363636363637" y="357.3636363636364" type="curve" smooth="yes"/>
      <point x="454.3636363636364" y="322.72727272727275" type="line" smooth="yes"/>
      <point x="418.72727272727275" y="171.09090909090912"/>
      <point x="348.5454545454546" y="72.72727272727275"/>
      <point x="245.27272727272725" y="72.72727272727275" type="curve" smooth="yes"/>
      <point x="221.36363636363637" y="72.72727272727275"/>
      <point x="199.09090909090912" y="77.54545454545456"/>
      <point x="183.72727272727272" y="87.72727272727273" type="curve" smooth="yes"/>
      <point x="151.27272727272728" y="135.1818181818182"/>
      <point x="146.54545454545456" y="215.1818181818182"/>
      <point x="172.72727272727275" y="317.6363636363636" type="curve" smooth="yes"/>
      <point x="181.54545454545453" y="352.8181818181818" type="line" smooth="yes"/>
      <point x="225.27272727272725" y="525.2727272727273"/>
      <point x="298.3636363636364" y="629.4545454545454"/>
    </contour>
  </outline>
</glyph>
<glyph name="one" format="2">
  <advance width="600.0"/>
  <unicode hex="0031"/>
  <outline>
    <contour>
      <point x="374.5" y="703.0" type="curve"/>
      <point x="355.5" y="679.5"/>
      <point x="320.0" y="644.5"/>
      <point x="280.5" y="612.5" type="curve" smooth="yes"/>
      <point x="239.5" y="579.5"/>
      <point x="199.0" y="556.0"/>
      <point x="153.0" y="536.0" type="curve"/>
      <point x="148.5" y="520.0" type="line" smooth="yes"/>
      <point x="133.5" y="468.0"/>
      <point x="145.0" y="444.0"/>
      <point x="169.0" y="444.0" type="curve" smooth="yes"/>
      <point x="196.5" y="444.0"/>
      <point x="239.5" y="463.0"/>
      <point x="283.0" y="498.5" type="curve" smooth="yes"/>
      <point x="321.5" y="530.5"/>
      <point x="349.0" y="559.5"/>
      <point x="382.0" y="610.5" type="curve"/>
      <point x="339.5" y="585.5" type="line"/>
      <point x="397.0" y="585.5" type="line"/>
      <point x="376.5" y="616.0" type="line"/>
      <point x="353.0" y="458.5"/>
      <point x="248.0" y="287.5"/>
      <point x="229.5" y="181.5" type="curve" smooth="yes"/>
      <point x="222.0" y="141.5"/>
      <point x="229.5" y="117.0"/>
      <point x="248.5" y="101.5" type="curve"/>
      <point x="236.5" y="71.5" type="line"/>
      <point x="309.5" y="71.5" type="line"/>
      <point x="322.0" y="245.0"/>
      <point x="457.5" y="467.5"/>
      <point x="488.5" y="646.5" type="curve" smooth="yes"/>
      <point x="496.0" y="690.0"/>
      <point x="475.0" y="710.0"/>
      <point x="430.0" y="710.0" type="curve" smooth="yes"/>
      <point x="409.5" y="710.0"/>
      <point x="387.0" y="707.0"/>
    </contour>
    <contour>
      <point x="43.0" y="95.5" type="curve"/>
      <point x="40.0" y="87.5"/>
      <point x="36.0" y="77.0"/>
      <point x="33.0" y="64.5" type="curve" smooth="yes"/>
      <point x="28.0" y="44.0"/>
      <point x="27.5" y="26.0"/>
      <point x="35.0" y="14.5" type="curve" smooth="yes"/>
      <point x="42.0" y="4.5"/>
      <point x="53.5" y="0.0"/>
      <point x="84.0" y="0.0" type="curve" smooth="yes"/>
      <point x="141.0" y="0.0"/>
      <point x="482.0" y="0.0"/>
      <point x="493.0" y="0.0" type="curve"/>
      <point x="497.0" y="7.0"/>
      <point x="501.0" y="17.0"/>
      <point x="503.0" y="27.0" type="curve" smooth="yes"/>
      <point x="511.0" y="67.5"/>
      <point x="462.5" y="95.5"/>
      <point x="339.5" y="95.5" type="curve" smooth="yes"/>
      <point x="319.0" y="95.5"/>
      <point x="54.0" y="95.5"/>
    </contour>
  </outline>
</glyph>
<glyph name="two" format="2">
  <advance width="600.0"/>
  <unicode hex="0032"/>
  <outline>
    <contour>
      <point x="392.6363636363637" y="720.0" type="curve" smooth="yes"/>
      <point x="318.18181818181824" y="720.0"/>
      <point x="261.9090909090909" y="700.2727272727273"/>
      <point x="218.45454545454544" y="661.7272727272727" type="curve" smooth="yes"/>
      <point x="183.63636363636365" y="631.8181818181818"/>
      <point x="159.09090909090907" y="594.9090909090908"/>
      <point x="150.7272727272727" y="557.0" type="curve" smooth="yes"/>
      <point x="141.63636363636363" y="517.8181818181819"/>
      <point x="162.99999999999997" y="482.2727272727273"/>
      <point x="214.0909090909091" y="479.54545454545445" type="curve"/>
      <point x="219.54545454545456" y="479.54545454545445" type="line"/>
      <point x="241.0" y="570.7272727272726"/>
      <point x="296.1818181818182" y="627.2727272727271"/>
      <point x="390.4545454545455" y="627.2727272727271" type="curve" smooth="yes"/>
      <point x="435.5454545454545" y="627.2727272727271"/>
      <point x="467.3636363636363" y="616.2727272727273"/>
      <point x="487.6363636363636" y="593.4545454545453" type="curve" smooth="yes"/>
      <point x="493.909090909091" y="575.1818181818181"/>
      <point x="495.90909090909093" y="547.1818181818182"/>
      <point x="490.2727272727273" y="522.3636363636363" type="curve" smooth="yes"/>
      <point x="489.2727272727273" y="517.9090909090909" type="line" smooth="yes"/>
      <point x="469.72727272727275" y="432.9090909090909"/>
      <point x="428.27272727272725" y="389.6363636363636"/>
      <point x="280.81818181818187" y="313.2727272727273" type="curve" smooth="yes"/>
      <point x="114.27272727272731" y="229.09090909090907"/>
      <point x="39.18181818181818" y="168.8181818181818"/>
      <point x="16.272727272727273" y="78.18181818181817" type="curve" smooth="yes"/>
      <point x="14.818181818181817" y="72.36363636363637" type="line" smooth="yes"/>
      <point x="7.181818181818181" y="42.81818181818182"/>
      <point x="15.727272727272725" y="0.0"/>
      <point x="42.0" y="0.0" type="curve" smooth="yes"/>
      <point x="68.81818181818183" y="0.0"/>
      <point x="393.03227272727275" y="0.0"/>
      <point x="461.00000000000006" y="0.0" type="curve"/>
      <point x="469.3636363636364" y="8.909090909090908"/>
      <point x="475.0909090909091" y="20.181818181818183"/>
      <point x="478.90909090909093" y="34.09090909090909" type="curve" smooth="yes"/>
      <point x="488.3636363636364" y="73.36363636363637"/>
      <point x="473.2727272727273" y="91.0"/>
      <point x="424.3636363636364" y="91.0" type="curve"/>
      <point x="268.72727272727275" y="91.0" type="line" smooth="yes"/>
      <point x="187.0909090909091" y="91.0"/>
      <point x="129.0909090909091" y="84.81818181818181"/>
      <point x="70.45454545454545" y="64.9090909090909" type="curve"/>
      <point x="122.45454545454542" y="74.36363636363636" type="line"/>
      <point x="70.00000000000001" y="74.36363636363636" type="line"/>
      <point x="84.90909090909092" y="50.45454545454546" type="line"/>
      <point x="114.72727272727273" y="128.27272727272728"/>
      <point x="150.90909090909088" y="162.9090909090909"/>
      <point x="319.72727272727275" y="244.09090909090907" type="curve" smooth="yes"/>
      <point x="468.7272727272727" y="314.54545454545456"/>
      <point x="552.1818181818181" y="375.3636363636364"/>
      <point x="578.4545454545455" y="490.45454545454544" type="curve" smooth="yes"/>
      <point x="580.5454545454546" y="499.2727272727273" type="line" smooth="yes"/>
      <point x="608.6363636363637" y="625.3636363636364"/>
      <point x="540.6363636363636" y="720.0"/>
    </contour>
  </outline>
</glyph>
<glyph name="three" format="2">
  <advance width="600.0"/>
  <unicode hex="0033"/>
  <outline>
    <contour>
      <point x="381.0" y="719.5" type="curve" smooth="yes"/>
      <point x="302.0" y="719.5"/>
      <point x="234.0" y="698.0"/>
      <point x="200.0" y="670.0" type="curve" smooth="yes"/>
      <point x="174.5" y="649.0"/>
      <point x="163.0" y="626.0"/>
      <point x="156.0" y="595.5" type="curve" smooth="yes"/>
      <point x="152.0" y="577.0"/>
      <point x="151.5" y="559.0"/>
      <point x="154.5" y="541.5" type="curve"/>
      <point x="160.5" y="541.5" type="line"/>
      <point x="219.0" y="600.5"/>
      <point x="280.5" y="622.0"/>
      <point x="368.0" y="622.0" type="curve" smooth="yes"/>
      <point x="446.5" y="622.0"/>
      <point x="491.0" y="588.0"/>
      <point x="500.0" y="540.5" type="curve" smooth="yes"/>
      <point x="499.0" y="536.5" type="line" smooth="yes"/>
      <point x="456.5" y="418.0"/>
      <point x="356.5" y="370.0"/>
      <point x="202.5" y="369.5" type="curve"/>
      <point x="194.5" y="359.0"/>
      <point x="189.0" y="347.5"/>
      <point x="185.5" y="333.0" type="curve" smooth="yes"/>
      <point x="179.0" y="305.5"/>
      <point x="183.0" y="284.5"/>
      <point x="208.5" y="283.0" type="curve" smooth="yes"/>
      <point x="343.0" y="279.0"/>
      <point x="426.5" y="235.5"/>
      <point x="421.0" y="157.0" type="curve" smooth="yes"/>
      <point x="420.0" y="152.0" type="line" smooth="yes"/>
      <point x="397.0" y="96.5"/>
      <point x="338.0" y="77.5"/>
      <point x="246.0" y="77.5" type="curve" smooth="yes"/>
      <point x="147.5" y="77.5"/>
      <point x="91.0" y="104.5"/>
      <point x="55.5" y="169.5" type="curve"/>
      <point x="49.5" y="169.5" type="line"/>
      <point x="38.5" y="154.0"/>
      <point x="33.0" y="142.0"/>
      <point x="28.5" y="124.0" type="curve" smooth="yes"/>
      <point x="21.0" y="92.5"/>
      <point x="29.0" y="59.5"/>
      <point x="51.0" y="36.5" type="curve" smooth="yes"/>
      <point x="81.5" y="4.5"/>
      <point x="144.5" y="-20.0"/>
      <point x="238.5" y="-20.0" type="curve" smooth="yes"/>
      <point x="381.5" y="-20.0"/>
      <point x="479.0" y="28.0"/>
      <point x="504.5" y="131.0" type="curve" smooth="yes"/>
      <point x="507.5" y="143.0" type="line" smooth="yes"/>
      <point x="529.0" y="229.5"/>
      <point x="478.5" y="304.0"/>
      <point x="346.0" y="334.0" type="curve"/>
      <point x="366.0" y="302.0" type="line"/>
      <point x="380.0" y="358.5" type="line"/>
      <point x="346.5" y="325.5" type="line"/>
      <point x="494.0" y="362.0"/>
      <point x="567.0" y="426.0"/>
      <point x="588.0" y="509.0" type="curve" smooth="yes"/>
      <point x="591.0" y="521.0" type="line" smooth="yes"/>
      <point x="617.0" y="624.0"/>
      <point x="545.0" y="719.5"/>
    </contour>
  </outline>
</glyph>
<glyph name="four" format="2">
  <advance width="600.0"/>
  <unicode hex="0034"/>
  <outline>
    <contour>
      <point x="519.5" y="713.0" type="curve" smooth="yes"/>
      <point x="483.0" y="713.0"/>
      <point x="451.5" y="701.5"/>
      <point x="390.5" y="654.5" type="curve" smooth="yes"/>
      <point x="219.5" y="521.0"/>
      <point x="62.5" y="322.0"/>
      <point x="40.0" y="242.5" type="curve" smooth="yes"/>
      <point x="36.5" y="230.0" type="line"/>
      <point x="23.5" y="181.5"/>
      <point x="39.0" y="152.5"/>
      <point x="71.5" y="152.5" type="curve" smooth="yes"/>
      <point x="535.0" y="152.5" type="line"/>
      <point x="540.5" y="162.5"/>
      <point x="545.0" y="174.0"/>
      <point x="548.0" y="186.0" type="curve" smooth="yes"/>
      <point x="555.0" y="217.0"/>
      <point x="552.0" y="250.0"/>
      <point x="519.0" y="250.0" type="curve" smooth="yes"/>
      <point x="296.0" y="250.0" type="line" smooth="yes"/>
      <point x="204.5" y="250.0"/>
      <point x="161.0" y="247.0"/>
      <point x="115.5" y="235.0" type="curve"/>
      <point x="135.0" y="221.0" type="line"/>
      <point x="146.5" y="268.0" type="line"/>
      <point x="121.5" y="218.0" type="line"/>
      <point x="241.5" y="396.0"/>
      <point x="442.5" y="591.5"/>
      <point x="607.5" y="678.5" type="curve"/>
      <point x="608.5" y="684.5" type="line"/>
      <point x="594.0" y="702.0"/>
      <point x="565.0" y="713.0"/>
    </contour>
    <contour>
      <point x="438.5" y="395.5" type="curve"/>
      <point x="411.0" y="352.5"/>
      <point x="372.5" y="263.0"/>
      <point x="356.5" y="199.0" type="curve" smooth="yes"/>
      <point x="342.0" y="141.5"/>
      <point x="331.0" y="92.5"/>
      <point x="323.0" y="48.5" type="curve" smooth="yes"/>
      <point x="317.0" y="10.0"/>
      <point x="337.0" y="-9.0"/>
      <point x="379.5" y="-9.0" type="curve" smooth="yes"/>
      <point x="401.0" y="-9.0"/>
      <point x="415.0" y="-6.0"/>
      <point x="427.0" y="-2.5" type="curve"/>
      <point x="426.0" y="37.5"/>
      <point x="429.5" y="68.0"/>
      <point x="450.0" y="150.0" type="curve" smooth="yes"/>
      <point x="499.5" y="344.5" type="line"/>
      <point x="505.5" y="369.0"/>
      <point x="494.5" y="396.5"/>
      <point x="451.0" y="396.5" type="curve" smooth="yes"/>
      <point x="446.0" y="396.5"/>
      <point x="442.0" y="396.0"/>
    </contour>
  </outline>
</glyph>
<glyph name="five" format="2">
  <advance width="600.0"/>
  <unicode hex="0035"/>
  <outline>
    <contour>
      <point x="206.54545454545453" y="700.0" type="curve"/>
      <point x="200.18181818181816" y="689.909090909091"/>
      <point x="194.36363636363635" y="676.9090909090909"/>
      <point x="190.99999999999997" y="661.4545454545455" type="curve" smooth="yes"/>
      <point x="183.54545454545453" y="626.3636363636363"/>
      <point x="191.00000000000003" y="606.8181818181818"/>
      <point x="232.8181818181818" y="606.8181818181818" type="curve" smooth="yes"/>
      <point x="277.90909090909093" y="606.8181818181818"/>
      <point x="578.090909090909" y="606.8181818181818"/>
      <point x="592.3636363636363" y="606.8181818181818" type="curve"/>
      <point x="599.181818181818" y="617.4545454545454"/>
      <point x="606.3636363636363" y="633.1818181818181"/>
      <point x="610.1818181818181" y="649.090909090909" type="curve" smooth="yes"/>
      <point x="618.181818181818" y="680.2727272727274"/>
      <point x="604.090909090909" y="700.0"/>
      <point x="563.0" y="700.0" type="curve"/>
      <point x="524.6363636363635" y="700.0"/>
      <point x="226.00000000000003" y="700.0"/>
    </contour>
    <contour>
      <point x="253.45454545454544" y="634.1818181818181" type="line"/>
      <point x="200.0" y="548.7272727272727"/>
      <point x="150.63636363636363" y="443.18181818181824"/>
      <point x="111.09090909090911" y="331.45454545454544" type="curve" smooth="yes"/>
      <point x="102.72727272727273" y="308.09090909090907"/>
      <point x="110.72727272727272" y="296.3636363636363"/>
      <point x="163.18181818181816" y="296.3636363636363" type="curve" smooth="yes"/>
      <point x="200.45454545454544" y="296.3636363636363" type="line"/>
      <point x="225.0909090909091" y="296.3636363636364"/>
      <point x="247.72727272727272" y="296.3636363636363"/>
      <point x="272.0" y="296.3636363636363" type="curve" smooth="yes"/>
      <point x="389.0" y="296.3636363636363"/>
      <point x="441.1818181818182" y="259.9090909090909"/>
      <point x="437.81818181818187" y="183.36363636363635" type="curve" smooth="yes"/>
      <point x="436.2727272727273" y="177.18181818181822" type="line" smooth="yes"/>
      <point x="420.8181818181818" y="113.54545454545455"/>
      <point x="352.7272727272727" y="73.18181818181817"/>
      <point x="250.45454545454544" y="73.18181818181817" type="curve" smooth="yes"/>
      <point x="149.27272727272725" y="73.18181818181817"/>
      <point x="92.63636363636364" y="101.27272727272728"/>
      <point x="49.90909090909091" y="162.54545454545456" type="curve"/>
      <point x="43.909090909090914" y="162.54545454545456" type="line"/>
      <point x="37.45454545454546" y="152.63636363636365"/>
      <point x="32.09090909090909" y="139.63636363636363"/>
      <point x="28.27272727272728" y="124.18181818181819" type="curve" smooth="yes"/>
      <point x="21.000000000000004" y="94.63636363636365"/>
      <point x="23.181818181818173" y="61.363636363636374"/>
      <point x="44.81818181818182" y="38.63636363636363" type="curve" smooth="yes"/>
      <point x="72.90909090909089" y="8.90909090909091"/>
      <point x="130.8181818181818" y="-20.0"/>
      <point x="235.63636363636365" y="-20.0" type="curve" smooth="yes"/>
      <point x="382.5454545454545" y="-20.0"/>
      <point x="478.6363636363637" y="40.090909090909086"/>
      <point x="506.27272727272737" y="152.45454545454544" type="curve" smooth="yes"/>
      <point x="509.6363636363637" y="166.36363636363637" type="line" smooth="yes"/>
      <point x="535.2727272727274" y="269.18181818181813"/>
      <point x="481.2727272727273" y="370.3636363636364"/>
      <point x="325.3636363636363" y="370.3636363636364" type="curve" smooth="yes"/>
      <point x="271.4545454545455" y="370.3636363636364"/>
      <point x="230.45454545454547" y="362.0909090909091"/>
      <point x="191.63636363636363" y="345.3636363636364" type="curve"/>
      <point x="248.90909090909088" y="356.5454545454545" type="line"/>
      <point x="191.8181818181818" y="356.5454545454545" type="line"/>
      <point x="205.9090909090909" y="330.0" type="line"/>
      <point x="229.72727272727275" y="405.9090909090909"/>
      <point x="263.4545454545455" y="471.99999999999994"/>
      <point x="290.3636363636363" y="523.6363636363636" type="curve" smooth="yes"/>
      <point x="306.90909090909093" y="556.2727272727274"/>
      <point x="309.00000000000006" y="581.0909090909091"/>
      <point x="298.7272727272727" y="600.8181818181818" type="curve"/>
      <point x="310.18181818181813" y="634.1818181818181" type="line"/>
    </contour>
  </outline>
</glyph>
<glyph name="six" format="2">
  <advance width="600.0"/>
  <unicode hex="0036"/>
  <outline>
    <contour>
      <point x="447.5" y="720.0" type="curve" smooth="yes"/>
      <point x="283.0" y="720.0"/>
      <point x="149.0" y="623.5"/>
      <point x="82.5" y="348.0" type="curve" smooth="yes"/>
      <point x="80.0" y="337.5" type="line" smooth="yes"/>
      <point x="26.0" y="112.5"/>
      <point x="104.5" y="-20.0"/>
      <point x="260.0" y="-20.0" type="curve" smooth="yes"/>
      <point x="393.0" y="-20.0"/>
      <point x="482.5" y="44.5"/>
      <point x="512.5" y="174.0" type="curve" smooth="yes"/>
      <point x="515.5" y="187.0" type="line" smooth="yes"/>
      <point x="546.5" y="321.0"/>
      <point x="471.5" y="399.0"/>
      <point x="358.5" y="399.0" type="curve" smooth="yes"/>
      <point x="269.5" y="399.0"/>
      <point x="214.0" y="372.0"/>
      <point x="168.5" y="312.5" type="curve"/>
      <point x="215.5" y="336.0" type="line"/>
      <point x="146.0" y="336.0" type="line"/>
      <point x="124.0" y="256.0" type="line"/>
      <point x="188.0" y="293.0"/>
      <point x="254.5" y="313.5"/>
      <point x="319.5" y="313.5" type="curve" smooth="yes"/>
      <point x="369.0" y="313.5"/>
      <point x="404.5" y="300.0"/>
      <point x="423.5" y="280.5" type="curve" smooth="yes"/>
      <point x="426.0" y="256.0"/>
      <point x="425.0" y="224.0"/>
      <point x="417.5" y="191.5" type="curve" smooth="yes"/>
      <point x="416.0" y="185.0" type="line" smooth="yes"/>
      <point x="402.5" y="120.5"/>
      <point x="349.0" y="72.5"/>
      <point x="264.5" y="72.5" type="curve" smooth="yes"/>
      <point x="235.5" y="72.5"/>
      <point x="211.0" y="78.5"/>
      <point x="189.5" y="93.0" type="curve" smooth="yes"/>
      <point x="166.0" y="126.0"/>
      <point x="150.0" y="210.0"/>
      <point x="181.5" y="334.5" type="curve" smooth="yes"/>
      <point x="184.0" y="344.5" type="line" smooth="yes"/>
      <point x="215.5" y="471.0"/>
      <point x="259.0" y="551.0"/>
      <point x="294.5" y="588.0" type="curve" smooth="yes"/>
      <point x="328.0" y="609.5"/>
      <point x="381.0" y="625.0"/>
      <point x="434.0" y="625.0" type="curve" smooth="yes"/>
      <point x="497.0" y="625.0"/>
      <point x="543.0" y="609.5"/>
      <point x="576.0" y="580.5" type="curve"/>
      <point x="582.0" y="580.5" type="line"/>
      <point x="588.5" y="590.0"/>
      <point x="594.0" y="603.0"/>
      <point x="597.5" y="620.0" type="curve" smooth="yes"/>
      <point x="605.0" y="652.5"/>
      <point x="601.0" y="669.0"/>
      <point x="590.5" y="681.5" type="curve" smooth="yes"/>
      <point x="579.0" y="695.0"/>
      <point x="528.0" y="720.0"/>
    </contour>
  </outline>
</glyph>
<glyph name="seven" format="2">
  <advance width="600.0"/>
  <unicode hex="0037"/>
  <outline>
    <contour>
      <point x="207.63636363636365" y="720.0" type="curve"/>
      <point x="177.0" y="663.2727272727273"/>
      <point x="142.54545454545453" y="575.3636363636364"/>
      <point x="129.9090909090909" y="510.36363636363643" type="curve" smooth="yes"/>
      <point x="121.36363636363635" y="472.72727272727275"/>
      <point x="139.1818181818182" y="463.6363636363636"/>
      <point x="173.9090909090909" y="463.6363636363636" type="curve" smooth="yes"/>
      <point x="189.27272727272728" y="463.6363636363636"/>
      <point x="202.63636363636363" y="465.0909090909091"/>
      <point x="213.1818181818182" y="468.0" type="curve"/>
      <point x="225.54545454545456" y="538.4545454545455"/>
      <point x="278.0" y="652.0"/>
      <point x="285.7272727272727" y="682.9090909090909" type="curve" smooth="yes"/>
      <point x="292.54545454545456" y="708.1818181818181"/>
      <point x="254.09090909090912" y="720.0"/>
    </contour>
    <contour>
      <point x="259.3636363636363" y="-3.2727272727272725" type="curve"/>
      <point x="283.0" y="91.09090909090908"/>
      <point x="328.27272727272725" y="186.9090909090909"/>
      <point x="450.3636363636364" y="342.3636363636364" type="curve" smooth="yes"/>
      <point x="541.8181818181819" y="459.5454545454545"/>
      <point x="611.1818181818181" y="548.8181818181819"/>
      <point x="624.8181818181818" y="612.7272727272729" type="curve" smooth="yes"/>
      <point x="627.2727272727273" y="623.6363636363636" type="line"/>
      <point x="633.9090909090909" y="653.3636363636363"/>
      <point x="627.8181818181818" y="700.0"/>
      <point x="602.0" y="700.0" type="curve"/>
      <point x="208.0909090909091" y="700.0" type="line"/>
      <point x="197.72727272727272" y="655.1818181818181"/>
      <point x="197.0909090909091" y="610.3636363636363"/>
      <point x="223.63636363636363" y="610.3636363636363" type="curve" smooth="yes"/>
      <point x="382.3636363636363" y="610.3636363636363" type="line" smooth="yes"/>
      <point x="450.18181818181813" y="610.3636363636363"/>
      <point x="498.6363636363636" y="614.6363636363637"/>
      <point x="561.1818181818182" y="631.6363636363635" type="curve"/>
      <point x="528.4545454545455" y="640.3636363636364" type="line"/>
      <point x="520.7272727272727" y="586.8181818181818" type="line"/>
      <point x="542.9090909090909" y="654.5454545454546" type="line"/>
      <point x="516.8181818181819" y="575.5454545454546"/>
      <point x="464.45454545454544" y="496.18181818181824"/>
      <point x="364.00000000000006" y="376.90909090909093" type="curve" smooth="yes"/>
      <point x="251.90909090909093" y="243.8181818181819"/>
      <point x="185.09090909090907" y="123.27272727272728"/>
      <point x="169.45454545454544" y="47.36363636363636" type="curve" smooth="yes"/>
      <point x="161.81818181818178" y="10.545454545454547"/>
      <point x="178.36363636363635" y="-10.0"/>
      <point x="219.9090909090909" y="-10.0" type="curve" smooth="yes"/>
      <point x="235.0909090909091" y="-10.0"/>
      <point x="249.90909090909093" y="-6.636363636363637"/>
    </contour>
  </outline>
</glyph>
<glyph name="eight" format="2">
  <advance width="600.0"/>
  <unicode hex="0038"/>
  <outline>
    <contour>
      <point x="404.7272727272727" y="720.0" type="curve" smooth="yes"/>
      <point x="260.54545454545456" y="720.0"/>
      <point x="162.81818181818184" y="640.090909090909"/>
      <point x="138.45454545454547" y="529.4545454545455" type="curve" smooth="yes"/>
      <point x="137.0" y="523.0909090909091" type="line" smooth="yes"/>
      <point x="120.0" y="446.90909090909093"/>
      <point x="141.72727272727272" y="355.3636363636364"/>
      <point x="268.8181818181818" y="303.18181818181824" type="curve" smooth="yes"/>
      <point x="356.7272727272727" y="267.0" type="line" smooth="yes"/>
      <point x="420.3636363636363" y="240.90909090909088"/>
      <point x="428.9090909090909" y="194.63636363636363"/>
      <point x="422.63636363636357" y="148.63636363636365" type="curve" smooth="yes"/>
      <point x="397.7272727272727" y="99.72727272727272"/>
      <point x="344.72727272727275" y="67.63636363636364"/>
      <point x="252.00000000000003" y="67.63636363636364" type="curve" smooth="yes"/>
      <point x="160.9090909090909" y="67.63636363636364"/>
      <point x="121.18181818181819" y="107.54545454545456"/>
      <point x="120.90909090909092" y="154.81818181818184" type="curve" smooth="yes"/>
      <point x="133.9090909090909" y="211.1818181818182"/>
      <point x="189.0" y="271.81818181818176"/>
      <point x="324.81818181818176" y="302.72727272727275" type="curve"/>
      <point x="225.54545454545453" y="346.54545454545456" type="line"/>
      <point x="215.0909090909091" y="307.3636363636364" type="line"/>
      <point x="248.45454545454547" y="327.27272727272725" type="line"/>
      <point x="130.45454545454547" y="310.45454545454544"/>
      <point x="59.0909090909091" y="250.27272727272728"/>
      <point x="40.54545454545454" y="176.0" type="curve" smooth="yes"/>
      <point x="38.54545454545454" y="168.0" type="line" smooth="yes"/>
      <point x="14.27272727272727" y="71.9090909090909"/>
      <point x="81.09090909090911" y="-20.0"/>
      <point x="240.72727272727275" y="-20.0" type="curve" smooth="yes"/>
      <point x="395.90909090909093" y="-20.0"/>
      <point x="478.4545454545455" y="36.272727272727266"/>
      <point x="504.6363636363637" y="135.45454545454544" type="curve" smooth="yes"/>
      <point x="507.09090909090924" y="144.8181818181818" type="line"/>
      <point x="522.4545454545456" y="203.90909090909088"/>
      <point x="507.0909090909091" y="285.5454545454545"/>
      <point x="406.45454545454544" y="325.3636363636364" type="curve" smooth="yes"/>
      <point x="311.72727272727275" y="363.1818181818182" type="line" smooth="yes"/>
      <point x="222.72727272727272" y="398.81818181818187"/>
      <point x="209.18181818181822" y="460.3636363636364"/>
      <point x="223.90909090909093" y="518.2727272727273" type="curve" smooth="yes"/>
      <point x="244.81818181818184" y="599.4545454545455"/>
      <point x="317.0" y="631.2727272727273"/>
      <point x="395.27272727272725" y="631.2727272727273" type="curve" smooth="yes"/>
      <point x="437.72727272727275" y="631.2727272727273"/>
      <point x="468.2727272727273" y="620.1818181818181"/>
      <point x="493.6363636363636" y="603.0909090909091" type="curve" smooth="yes"/>
      <point x="505.45454545454544" y="577.3636363636364"/>
      <point x="509.8181818181818" y="544.0909090909091"/>
      <point x="502.54545454545456" y="515.0" type="curve" smooth="yes"/>
      <point x="500.5454545454545" y="507.4545454545455" type="line" smooth="yes"/>
      <point x="481.27272727272725" y="433.45454545454544"/>
      <point x="418.45454545454544" y="382.18181818181813"/>
      <point x="300.7272727272727" y="344.2727272727273" type="curve"/>
      <point x="401.3636363636363" y="307.27272727272725" type="line"/>
      <point x="413.8181818181818" y="354.9090909090909" type="line"/>
      <point x="379.54545454545456" y="324.6363636363636" type="line"/>
      <point x="487.99999999999994" y="347.7272727272727"/>
      <point x="566.3636363636364" y="404.8181818181818"/>
      <point x="591.4545454545455" y="505.81818181818176" type="curve" smooth="yes"/>
      <point x="593.4545454545455" y="513.8181818181819" type="line" smooth="yes"/>
      <point x="622.1818181818181" y="626.9090909090909"/>
      <point x="547.7272727272727" y="720.0"/>
    </contour>
  </outline>
</glyph>
<glyph name="nine" format="2">
  <advance width="600.0"/>
  <unicode hex="0039"/>
  <outline>
    <contour>
      <point x="396.5" y="720.0" type="curve" smooth="yes"/>
      <point x="265.5" y="720.0"/>
      <point x="155.0" y="640.5"/>
      <point x="114.5" y="479.5" type="curve" smooth="yes"/>
      <point x="112.0" y="469.5" type="line" smooth="yes"/>
      <point x="76.5" y="329.0"/>
      <point x="136.5" y="236.5"/>
      <point x="271.0" y="236.5" type="curve" smooth="yes"/>
      <point x="347.5" y="236.5"/>
      <point x="411.0" y="261.5"/>
      <point x="456.0" y="331.5" type="curve"/>
      <point x="409.0" y="307.5" type="line"/>
      <point x="467.0" y="307.5" type="line"/>
      <point x="487.5" y="384.0" type="line"/>
      <point x="426.5" y="346.0"/>
      <point x="367.0" y="327.5"/>
      <point x="302.5" y="327.5" type="curve" smooth="yes"/>
      <point x="260.5" y="327.5"/>
      <point x="225.0" y="339.5"/>
      <point x="203.5" y="361.0" type="curve" smooth="yes"/>
      <point x="195.0" y="391.0"/>
      <point x="198.5" y="426.5"/>
      <point x="208.0" y="466.0" type="curve" smooth="yes"/>
      <point x="209.5" y="472.0" type="line" smooth="yes"/>
      <point x="234.0" y="569.5"/>
      <point x="307.5" y="629.5"/>
      <point x="388.5" y="629.5" type="curve" smooth="yes"/>
      <point x="424.0" y="629.5"/>
      <point x="455.5" y="619.5"/>
      <point x="472.5" y="604.0" type="curve" smooth="yes"/>
      <point x="485.0" y="570.0"/>
      <point x="489.0" y="488.5"/>
      <point x="460.5" y="370.0" type="curve" smooth="yes"/>
      <point x="458.0" y="359.5" type="line" smooth="yes"/>
      <point x="430.0" y="240.5"/>
      <point x="395.5" y="163.0"/>
      <point x="349.5" y="116.0" type="curve" smooth="yes"/>
      <point x="310.5" y="91.0"/>
      <point x="259.5" y="79.0"/>
      <point x="208.5" y="79.0" type="curve" smooth="yes"/>
      <point x="141.0" y="79.0"/>
      <point x="100.0" y="95.5"/>
      <point x="64.5" y="126.5" type="curve"/>
      <point x="58.5" y="126.5" type="line"/>
      <point x="51.5" y="114.0"/>
      <point x="46.5" y="101.5"/>
      <point x="43.0" y="86.0" type="curve" smooth="yes"/>
      <point x="36.0" y="53.0"/>
      <point x="42.0" y="32.5"/>
      <point x="53.5" y="18.5" type="curve" smooth="yes"/>
      <point x="66.0" y="4.0"/>
      <point x="112.0" y="-20.0"/>
      <point x="199.5" y="-20.0" type="curve" smooth="yes"/>
      <point x="369.0" y="-20.0"/>
      <point x="482.0" y="49.5"/>
      <point x="559.0" y="356.5" type="curve" smooth="yes"/>
      <point x="561.5" y="366.5" type="line" smooth="yes"/>
      <point x="618.5" y="595.5"/>
      <point x="552.5" y="720.0"/>
    </contour>
  </outline>
</glyph>
<glyph name="colon" format="2">
  <advance width="400.54545454545456"/>
  <unicode hex="003A"/>
  <outline>
    <contour>
      <point x="332.27272727272725" y="384.1818181818182" type="curve"/>
      <point x="355.090909090909" y="473.3636363636364" type="line" smooth="yes"/>
      <point x="365.81818181818176" y="517.5454545454545"/>
      <point x="339.8181818181818" y="541.0909090909091"/>
      <point x="281.45454545454544" y="541.0909090909091" type="curve"/>
      <point x="254.4545454545454" y="541.0909090909091"/>
      <point x="227.90909090909093" y="536.0909090909091"/>
      <point x="206.54545454545453" y="527.090909090909" type="curve"/>
      <point x="183.72727272727272" y="438.8181818181818" type="line" smooth="yes"/>
      <point x="173.0" y="394.6363636363636"/>
      <point x="199.90909090909093" y="371.5454545454545"/>
      <point x="261.9090909090909" y="371.5454545454545" type="curve" smooth="yes"/>
      <point x="287.54545454545456" y="371.5454545454545"/>
      <point x="314.5454545454545" y="376.54545454545456"/>
    </contour>
    <contour>
      <point x="238.09090909090912" y="4.909090909090909" type="curve"/>
      <point x="260.9090909090909" y="94.0909090909091" type="line" smooth="yes"/>
      <point x="271.6363636363636" y="138.27272727272728"/>
      <point x="245.63636363636363" y="161.8181818181818"/>
      <point x="187.27272727272725" y="161.8181818181818" type="curve"/>
      <point x="160.27272727272725" y="161.8181818181818"/>
      <point x="133.72727272727275" y="156.8181818181818"/>
      <point x="112.36363636363636" y="147.8181818181818" type="curve"/>
      <point x="89.54545454545453" y="59.54545454545455" type="line" smooth="yes"/>
      <point x="78.81818181818181" y="15.363636363636363"/>
      <point x="105.72727272727272" y="-7.727272727272728"/>
      <point x="167.72727272727272" y="-7.727272727272728" type="curve" smooth="yes"/>
      <point x="193.36363636363637" y="-7.727272727272728"/>
      <point x="220.3636363636364" y="-2.727272727272728"/>
    </contour>
  </outline>
</glyph>
<glyph name="semicolon" format="2">
  <advance width="350.0"/>
  <unicode hex="003B"/>
  <outline>
    <contour>
      <point x="296.0" y="379.5" type="curve"/>
      <point x="319.5" y="471.5" type="line" smooth="yes"/>
      <point x="330.5" y="516.5"/>
      <point x="304.0" y="540.5"/>
      <point x="244.5" y="540.5" type="curve"/>
      <point x="217.0" y="540.5"/>
      <point x="189.5" y="535.5"/>
      <point x="167.5" y="526.5" type="curve"/>
      <point x="144.0" y="435.5" type="line" smooth="yes"/>
      <point x="133.0" y="390.5"/>
      <point x="160.5" y="367.0"/>
      <point x="224.0" y="367.0" type="curve" smooth="yes"/>
      <point x="250.0" y="367.0"/>
      <point x="278.0" y="372.0"/>
    </contour>
    <contour>
      <point x="13.0" y="-195.0" type="curve" smooth="yes"/>
      <point x="29.5" y="-195.0"/>
      <point x="42.0" y="-191.5"/>
      <point x="52.5" y="-181.0" type="curve"/>
      <point x="127.0" y="-113.5"/>
      <point x="199.5" y="5.5"/>
      <point x="225.5" y="118.5" type="curve"/>
      <point x="235.0" y="162.5"/>
      <point x="209.5" y="183.0"/>
      <point x="151.0" y="183.0" type="curve" smooth="yes"/>
      <point x="131.5" y="183.0"/>
      <point x="116.0" y="180.5"/>
      <point x="96.0" y="174.5" type="curve"/>
      <point x="62.0" y="21.0"/>
      <point x="22.0" y="-70.5"/>
      <point x="-55.5" y="-169.0" type="curve"/>
      <point x="-39.0" y="-185.5"/>
      <point x="-16.5" y="-195.0"/>
    </contour>
  </outline>
</glyph>
<glyph name="less" format="2">
  <advance width="600.0"/>
  <unicode hex="003C"/>
  <outline>
    <contour>
      <point x="78.72727272727272" y="329.54545454545456" type="curve"/>
      <point x="73.9090909090909" y="317.54545454545456"/>
      <point x="70.9090909090909" y="305.90909090909093"/>
      <point x="67.81818181818183" y="294.3636363636364" type="curve" smooth="yes"/>
      <point x="63.36363636363637" y="272.27272727272725"/>
      <point x="69.45454545454544" y="255.45454545454547"/>
      <point x="89.54545454545453" y="231.18181818181816" type="curve" smooth="yes"/>
      <point x="165.72727272727275" y="143.90909090909093"/>
      <point x="261.00000000000006" y="78.09090909090908"/>
      <point x="444.4545454545454" y="21.09090909090909" type="curve"/>
      <point x="452.5454545454545" y="29.272727272727266"/>
      <point x="459.7272727272727" y="40.272727272727266"/>
      <point x="464.090909090909" y="55.545454545454554" type="curve" smooth="yes"/>
      <point x="475.2727272727272" y="95.54545454545455"/>
      <point x="468.81818181818176" y="114.36363636363637"/>
      <point x="444.54545454545456" y="122.90909090909092" type="curve"/>
      <point x="304.0909090909091" y="168.8181818181818"/>
      <point x="228.27272727272722" y="218.72727272727272"/>
      <point x="151.54545454545456" y="308.5454545454546" type="curve"/>
      <point x="163.0" y="258.54545454545456" type="line"/>
      <point x="180.0" y="323.45454545454544" type="line"/>
      <point x="144.0" y="272.5454545454545" type="line"/>
      <point x="274.6363636363636" y="369.6363636363637"/>
      <point x="380.72727272727275" y="426.3636363636364"/>
      <point x="573.090909090909" y="481.45454545454544" type="curve"/>
      <point x="577.0" y="489.8181818181818"/>
      <point x="580.0" y="499.6363636363636"/>
      <point x="581.4545454545454" y="513.0" type="curve" smooth="yes"/>
      <point x="585.2727272727273" y="551.909090909091"/>
      <point x="575.090909090909" y="573.4545454545454"/>
      <point x="547.3636363636365" y="573.4545454545454" type="curve" smooth="yes"/>
      <point x="527.3636363636365" y="573.4545454545454"/>
      <point x="501.45454545454555" y="567.3636363636364"/>
      <point x="455.81818181818176" y="549.4545454545455" type="curve" smooth="yes"/>
      <point x="308.6363636363636" y="491.18181818181813"/>
      <point x="176.72727272727272" y="413.0909090909091"/>
    </contour>
  </outline>
</glyph>
<glyph name="equal" format="2">
  <advance width="600.0"/>
  <unicode hex="003D"/>
  <outline>
    <contour>
      <point x="108.63636363636364" y="472.72727272727275" type="line"/>
      <point x="104.81818181818181" y="464.54545454545456"/>
      <point x="100.0" y="454.90909090909093"/>
      <point x="96.18181818181819" y="438.7272727272727" type="curve" smooth="yes"/>
      <point x="86.63636363636364" y="396.7272727272727"/>
      <point x="100.45454545454544" y="377.27272727272725"/>
      <point x="145.9090909090909" y="377.27272727272725" type="curve"/>
      <point x="568.2727272727273" y="377.27272727272725" type="line"/>
      <point x="574.9090909090909" y="387.6363636363637"/>
      <point x="580.1818181818181" y="399.0"/>
      <point x="584.4545454545454" y="416.27272727272725" type="curve" smooth="yes"/>
      <point x="593.5454545454545" y="453.90909090909093"/>
      <point x="579.5454545454545" y="472.72727272727275"/>
      <point x="542.2727272727273" y="472.72727272727275" type="curve" smooth="yes"/>
    </contour>
    <contour>
      <point x="48.81818181818181" y="222.72727272727272" type="line"/>
      <point x="41.36363636363636" y="209.63636363636365"/>
      <point x="35.18181818181817" y="195.45454545454547"/>
      <point x="30.9090909090909" y="178.36363636363637" type="curve" smooth="yes"/>
      <point x="22.636363636363626" y="145.45454545454544"/>
      <point x="31.99999999999999" y="127.27272727272728"/>
      <point x="63.63636363636364" y="127.27272727272728" type="curve"/>
      <point x="506.27272727272725" y="127.27272727272728" type="line"/>
      <point x="511.09090909090907" y="133.0909090909091"/>
      <point x="517.2727272727273" y="143.54545454545456"/>
      <point x="521.0909090909091" y="162.90909090909093" type="curve" smooth="yes"/>
      <point x="529.0909090909091" y="203.9090909090909"/>
      <point x="517.1818181818181" y="222.72727272727272"/>
      <point x="474.63636363636357" y="222.72727272727272" type="curve" smooth="yes"/>
    </contour>
  </outline>
</glyph>
<glyph name="greater" format="2">
  <advance width="600.0"/>
  <unicode hex="003E"/>
  <outline>
    <contour>
      <point x="532.0" y="265.0" type="curve"/>
      <point x="537.0" y="277.0"/>
      <point x="540.0" y="288.5"/>
      <point x="543.0" y="300.0" type="curve" smooth="yes"/>
      <point x="547.5" y="322.5"/>
      <point x="541.5" y="340.0"/>
      <point x="521.0" y="365.0" type="curve" smooth="yes"/>
      <point x="445.5" y="452.5"/>
      <point x="349.5" y="519.0"/>
      <point x="167.0" y="575.5" type="curve"/>
      <point x="158.5" y="567.0"/>
      <point x="151.0" y="555.5"/>
      <point x="146.5" y="539.5" type="curve" smooth="yes"/>
      <point x="135.0" y="497.5"/>
      <point x="141.5" y="478.0"/>
      <point x="167.0" y="469.0" type="curve" smooth="yes"/>
      <point x="304.0" y="424.0"/>
      <point x="379.0" y="374.5"/>
      <point x="454.0" y="286.5" type="curve"/>
      <point x="442.5" y="336.5" type="line"/>
      <point x="425.5" y="271.5" type="line"/>
      <point x="461.5" y="322.5" type="line"/>
      <point x="332.5" y="226.5"/>
      <point x="227.0" y="170.5"/>
      <point x="38.0" y="116.5" type="curve"/>
      <point x="34.0" y="108.0"/>
      <point x="31.0" y="98.0"/>
      <point x="29.5" y="84.0" type="curve" smooth="yes"/>
      <point x="25.5" y="43.0"/>
      <point x="36.0" y="20.0"/>
      <point x="65.0" y="20.0" type="curve" smooth="yes"/>
      <point x="85.0" y="20.0"/>
      <point x="110.5" y="26.0"/>
      <point x="156.0" y="44.0" type="curve" smooth="yes"/>
      <point x="302.5" y="102.5"/>
      <point x="435.0" y="181.5"/>
    </contour>
  </outline>
</glyph>
<glyph name="question" format="2">
  <advance width="600.0"/>
  <unicode hex="003F"/>
  <outline>
    <contour>
      <point x="280.0" y="-1.5" type="curve"/>
      <point x="290.0" y="23.0" type="line" smooth="yes"/>
      <point x="320.0" y="95.5"/>
      <point x="286.5" y="153.5"/>
      <point x="210.0" y="153.5" type="curve" smooth="yes"/>
      <point x="186.0" y="153.5"/>
      <point x="169.5" y="151.5"/>
      <point x="151.0" y="147.5" type="curve"/>
      <point x="143.5" y="123.0" type="line" smooth="yes"/>
      <point x="118.5" y="37.5"/>
      <point x="148.0" y="-8.0"/>
      <point x="211.0" y="-8.0" type="curve" smooth="yes"/>
      <point x="235.0" y="-8.0"/>
      <point x="260.5" y="-6.0"/>
    </contour>
    <contour>
      <point x="397.0" y="720.0" type="curve" smooth="yes"/>
      <point x="308.5" y="720.0"/>
      <point x="242.0" y="699.0"/>
      <point x="201.0" y="663.5" type="curve" smooth="yes"/>
      <point x="165.5" y="633.0"/>
      <point x="149.5" y="602.0"/>
      <point x="143.0" y="571.5" type="curve" smooth="yes"/>
      <point x="137.5" y="546.5"/>
      <point x="140.5" y="528.0"/>
      <point x="157.5" y="515.0" type="curve"/>
      <point x="163.5" y="515.0" type="line"/>
      <point x="208.0" y="583.5"/>
      <point x="279.0" y="623.0"/>
      <point x="369.5" y="623.0" type="curve" smooth="yes"/>
      <point x="417.5" y="623.0"/>
      <point x="451.5" y="618.0"/>
      <point x="471.0" y="606.5" type="curve"/>
      <point x="480.0" y="590.5"/>
      <point x="480.0" y="571.0"/>
      <point x="475.0" y="551.5" type="curve" smooth="yes"/>
      <point x="462.5" y="504.5"/>
      <point x="434.5" y="470.5"/>
      <point x="370.0" y="431.5" type="curve" smooth="yes"/>
      <point x="343.5" y="415.5" type="line" smooth="yes"/>
      <point x="265.5" y="368.5"/>
      <point x="235.5" y="340.0"/>
      <point x="221.5" y="298.0" type="curve" smooth="yes"/>
      <point x="220.0" y="293.5" type="line" smooth="yes"/>
      <point x="211.0" y="263.0"/>
      <point x="231.5" y="244.5"/>
      <point x="293.5" y="244.5" type="curve" smooth="yes"/>
      <point x="300.5" y="244.5" type="line"/>
      <point x="302.0" y="252.0" type="line" smooth="yes"/>
      <point x="309.5" y="285.0"/>
      <point x="328.5" y="308.5"/>
      <point x="391.5" y="346.0" type="curve" smooth="yes"/>
      <point x="421.0" y="363.0" type="line" smooth="yes"/>
      <point x="510.0" y="414.5"/>
      <point x="549.5" y="455.0"/>
      <point x="570.5" y="531.0" type="curve" smooth="yes"/>
      <point x="573.0" y="540.0" type="line" smooth="yes"/>
      <point x="597.0" y="626.0"/>
      <point x="549.0" y="720.0"/>
    </contour>
  </outline>
</glyph>
<glyph name="at" format="2">
  <advance width="1050.0"/>
  <unicode hex="0040"/>
  <outline>
    <contour>
      <point x="636.0" y="739.0" type="curve" smooth="yes"/>
      <point x="923.0" y="739.0"/>
      <point x="1062.5" y="571.5"/>
      <point x="1006.0" y="347.0" type="curve" smooth="yes"/>
      <point x="1003.0" y="335.0" type="line" smooth="yes"/>
      <point x="961.0" y="166.5"/>
      <point x="809.5" y="38.0"/>
      <point x="669.5" y="38.0" type="curve" smooth="yes"/>
      <point x="665.5" y="38.0" type="line" smooth="yes"/>
      <point x="590.0" y="38.0"/>
      <point x="568.5" y="108.0"/>
      <point x="591.0" y="196.0" type="curve" smooth="yes"/>
      <point x="609.0" y="263.5"/>
      <point x="659.5" y="352.5"/>
      <point x="687.5" y="415.0" type="curve" smooth="yes"/>
      <point x="702.0" y="447.0"/>
      <point x="714.0" y="478.0"/>
      <point x="717.5" y="510.0" type="curve"/>
      <point x="733.0" y="510.0" type="line" smooth="yes"/>
      <point x="788.0" y="510.0"/>
      <point x="805.5" y="481.0"/>
      <point x="786.5" y="423.0" type="curve" smooth="yes"/>
      <point x="764.5" y="351.0"/>
      <point x="715.0" y="267.5"/>
      <point x="694.0" y="206.0" type="curve" smooth="yes"/>
      <point x="676.5" y="146.0"/>
      <point x="673.0" y="112.0"/>
      <point x="685.5" y="97.0" type="curve"/>
      <point x="690.5" y="97.0" type="line"/>
      <point x="792.0" y="128.0"/>
      <point x="884.5" y="217.5"/>
      <point x="914.5" y="342.0" type="curve" smooth="yes"/>
      <point x="917.5" y="355.0" type="line" smooth="yes"/>
      <point x="940.5" y="450.5"/>
      <point x="932.0" y="547.5"/>
      <point x="850.5" y="620.5" type="curve" smooth="yes"/>
      <point x="796.0" y="647.5"/>
      <point x="738.5" y="660.5"/>
      <point x="645.0" y="660.5" type="curve" smooth="yes"/>
      <point x="397.0" y="660.5"/>
      <point x="211.0" y="505.0"/>
      <point x="151.5" y="258.5" type="curve" smooth="yes"/>
      <point x="149.0" y="247.0" type="line" smooth="yes"/>
      <point x="119.0" y="121.5"/>
      <point x="143.0" y="2.5"/>
      <point x="222.5" y="-66.0" type="curve" smooth="yes"/>
      <point x="278.5" y="-89.5"/>
      <point x="345.5" y="-99.0"/>
      <point x="442.5" y="-99.0" type="curve"/>
      <point x="543.5" y="-99.0"/>
      <point x="654.5" y="-76.5"/>
      <point x="731.0" y="-23.0" type="curve"/>
      <point x="735.0" y="-23.0" type="line"/>
      <point x="737.0" y="-25.5" type="line" smooth="yes"/>
      <point x="731.0" y="-57.5"/>
      <point x="718.5" y="-84.5"/>
      <point x="689.0" y="-108.0" type="curve" smooth="yes"/>
      <point x="635.5" y="-150.5"/>
      <point x="546.5" y="-181.0"/>
      <point x="434.0" y="-181.0" type="curve"/>
      <point x="124.5" y="-181.0"/>
      <point x="7.5" y="15.0"/>
      <point x="66.5" y="272.0" type="curve" smooth="yes"/>
      <point x="69.5" y="285.0" type="line" smooth="yes"/>
      <point x="133.5" y="562.0"/>
      <point x="347.0" y="739.0"/>
    </contour>
    <contour>
      <point x="377.5" y="34.0" type="curve"/>
      <point x="297.5" y="34.0"/>
      <point x="268.5" y="108.0"/>
      <point x="294.5" y="218.0" type="curve" smooth="yes"/>
      <point x="296.5" y="226.0" type="line" smooth="yes"/>
      <point x="337.5" y="389.0"/>
      <point x="459.5" y="519.0"/>
      <point x="584.5" y="519.0" type="curve" smooth="yes"/>
      <point x="642.0" y="519.0"/>
      <point x="677.5" y="485.0"/>
      <point x="693.0" y="440.0" type="curve"/>
      <point x="714.5" y="440.0" type="line"/>
      <point x="681.0" y="361.0" type="line"/>
      <point x="658.5" y="403.5"/>
      <point x="631.0" y="432.5"/>
      <point x="582.0" y="432.5" type="curve" smooth="yes"/>
      <point x="489.5" y="432.5"/>
      <point x="415.5" y="326.5"/>
      <point x="389.5" y="224.0" type="curve" smooth="yes"/>
      <point x="387.5" y="215.0" type="line" smooth="yes"/>
      <point x="375.0" y="166.5"/>
      <point x="376.0" y="146.0"/>
      <point x="383.0" y="127.0" type="curve" smooth="yes"/>
      <point x="461.0" y="111.0"/>
      <point x="566.5" y="169.5"/>
      <point x="653.0" y="287.0" type="curve"/>
      <point x="602.0" y="158.5" type="line"/>
      <point x="581.0" y="158.5" type="line"/>
      <point x="510.5" y="72.0"/>
      <point x="444.5" y="34.0"/>
    </contour>
  </outline>
</glyph>
<glyph name="A" format="2">
  <advance width="650.0"/>
  <unicode hex="0041"/>
  <outline>
    <contour>
      <point x="45.5" y="279.0" type="line"/>
      <point x="40.5" y="260.5" type="line" smooth="yes"/>
      <point x="30.5" y="221.5"/>
      <point x="34.5" y="187.5"/>
      <point x="63.0" y="187.5" type="curve"/>
      <point x="476.5" y="187.5" type="line"/>
      <point x="476.5" y="254.0" type="line"/>
      <point x="456.0" y="253.0" type="line"/>
      <point x="441.5" y="270.0"/>
      <point x="421.0" y="279.0"/>
      <point x="388.0" y="279.0" type="curve"/>
    </contour>
    <contour>
      <point x="129.5" y="-3.5" type="curve"/>
      <point x="165.5" y="206.5"/>
      <point x="268.5" y="447.5"/>
      <point x="437.0" y="632.0" type="curve"/>
      <point x="404.0" y="617.0" type="line"/>
      <point x="447.5" y="611.0" type="line"/>
      <point x="424.0" y="634.5" type="line"/>
      <point x="465.5" y="480.5"/>
      <point x="487.5" y="311.0"/>
      <point x="439.0" y="92.0" type="curve"/>
      <point x="422.0" y="11.0"/>
      <point x="447.0" y="-10.0"/>
      <point x="495.5" y="-10.0" type="curve" smooth="yes"/>
      <point x="512.5" y="-10.0"/>
      <point x="524.0" y="-7.5"/>
      <point x="537.0" y="-3.5" type="curve"/>
      <point x="536.5" y="32.0"/>
      <point x="542.0" y="70.5"/>
      <point x="551.5" y="124.0" type="curve" smooth="yes"/>
      <point x="584.5" y="309.5"/>
      <point x="573.5" y="487.5"/>
      <point x="538.5" y="614.5" type="curve" smooth="yes"/>
      <point x="522.0" y="681.0"/>
      <point x="502.0" y="710.0"/>
      <point x="430.5" y="710.0" type="curve"/>
      <point x="413.5" y="710.0"/>
      <point x="398.0" y="708.0"/>
      <point x="383.0" y="705.5" type="curve"/>
      <point x="223.5" y="553.0"/>
      <point x="93.0" y="345.0"/>
      <point x="37.5" y="70.5" type="curve"/>
      <point x="27.5" y="15.5"/>
      <point x="42.5" y="-10.0"/>
      <point x="89.5" y="-10.0" type="curve"/>
      <point x="103.0" y="-10.0"/>
      <point x="117.5" y="-7.5"/>
    </contour>
  </outline>
</glyph>
<glyph name="B" format="2">
  <advance width="600.0"/>
  <unicode hex="0042"/>
  <outline>
    <contour>
      <point x="211.5" y="-10.0" type="curve" smooth="yes"/>
      <point x="357.0" y="-10.0"/>
      <point x="469.5" y="48.5"/>
      <point x="499.0" y="167.0" type="curve" smooth="yes"/>
      <point x="501.5" y="177.0" type="line" smooth="yes"/>
      <point x="514.5" y="228.0"/>
      <point x="490.0" y="282.5"/>
      <point x="435.0" y="306.5" type="curve"/>
      <point x="435.0" y="325.0" type="line"/>
      <point x="214.0" y="326.0" type="line"/>
      <point x="214.0" y="312.5" type="line"/>
      <point x="300.0" y="312.5" type="line"/>
      <point x="377.0" y="294.0"/>
      <point x="419.5" y="254.0"/>
      <point x="403.5" y="190.5" type="curve" smooth="yes"/>
      <point x="401.0" y="180.5" type="line" smooth="yes"/>
      <point x="382.0" y="104.0"/>
      <point x="303.0" y="82.0"/>
      <point x="220.0" y="82.0" type="curve" smooth="yes"/>
      <point x="179.0" y="82.0"/>
      <point x="160.5" y="87.0"/>
      <point x="137.0" y="101.0" type="curve"/>
      <point x="148.5" y="242.0"/>
      <point x="230.5" y="382.0"/>
      <point x="258.5" y="525.5" type="curve" smooth="yes"/>
      <point x="267.0" y="574.5"/>
      <point x="260.5" y="597.5"/>
      <point x="243.5" y="611.5" type="curve"/>
      <point x="252.5" y="629.0" type="line"/>
      <point x="186.0" y="626.5" type="line"/>
      <point x="156.0" y="436.5"/>
      <point x="63.0" y="286.5"/>
      <point x="42.5" y="126.0" type="curve"/>
      <point x="36.5" y="76.5"/>
      <point x="46.0" y="55.0"/>
      <point x="61.0" y="40.0" type="curve" smooth="yes"/>
      <point x="92.5" y="8.5"/>
      <point x="134.0" y="-10.0"/>
    </contour>
    <contour>
      <point x="136.5" y="700.0" type="curve"/>
      <point x="130.5" y="689.0"/>
      <point x="125.5" y="679.0"/>
      <point x="121.0" y="659.5" type="curve"/>
      <point x="112.5" y="624.0"/>
      <point x="117.5" y="603.5"/>
      <point x="143.5" y="603.5" type="curve"/>
      <point x="163.64701205494998" y="603.5"/>
      <point x="249.7810080102" y="623.5"/>
      <point x="365.0" y="623.5" type="curve"/>
      <point x="425.5" y="623.5"/>
      <point x="464.0" y="618.0"/>
      <point x="494.5" y="599.0" type="curve" smooth="yes"/>
      <point x="502.5" y="576.0"/>
      <point x="502.0" y="542.5"/>
      <point x="493.0" y="508.0" type="curve" smooth="yes"/>
      <point x="489.5" y="494.5" type="line" smooth="yes"/>
      <point x="465.96385127455" y="403.35540509825"/>
      <point x="379.4834437086" y="351.5"/>
      <point x="259.0" y="351.5" type="curve" smooth="yes"/>
      <point x="220.5" y="351.5"/>
      <point x="209.5" y="356.0"/>
      <point x="192.0" y="364.0" type="curve"/>
      <point x="165.0" y="296.0" type="line"/>
      <point x="192.0" y="301.5" type="line"/>
      <point x="204.5" y="284.0"/>
      <point x="221.5" y="274.0"/>
      <point x="257.0" y="274.0" type="curve" smooth="yes"/>
      <point x="419.35294117645003" y="274.0"/>
      <point x="554.0195467013" y="355.81841345445"/>
      <point x="590.0" y="491.0" type="curve" smooth="yes"/>
      <point x="593.0" y="502.5" type="line" smooth="yes"/>
      <point x="617.5" y="595.5"/>
      <point x="579.5" y="720.0"/>
      <point x="378.5" y="720.0" type="curve" smooth="yes"/>
      <point x="307.0" y="720.0"/>
      <point x="232.5" y="715.0"/>
    </contour>
  </outline>
</glyph>
<glyph name="C" format="2">
  <advance width="600.0"/>
  <unicode hex="0043"/>
  <outline>
    <contour>
      <point x="290.09090909090907" y="-20.0" type="curve" smooth="yes"/>
      <point x="361.0909090909091" y="-20.0"/>
      <point x="422.36363636363643" y="1.4545454545454541"/>
      <point x="454.6363636363636" y="33.72727272727272" type="curve"/>
      <point x="480.6363636363636" y="59.727272727272734"/>
      <point x="492.8181818181818" y="80.9090909090909"/>
      <point x="501.8181818181818" y="121.27272727272728" type="curve"/>
      <point x="505.18181818181824" y="137.36363636363637"/>
      <point x="506.54545454545456" y="154.54545454545456"/>
      <point x="506.00000000000006" y="168.72727272727278" type="curve"/>
      <point x="499.99999999999994" y="168.72727272727278" type="line"/>
      <point x="444.90909090909093" y="100.9090909090909"/>
      <point x="370.909090909091" y="72.09090909090911"/>
      <point x="296.8181818181818" y="72.09090909090911" type="curve" smooth="yes"/>
      <point x="228.5454545454545" y="72.09090909090911"/>
      <point x="186.18181818181816" y="96.18181818181817"/>
      <point x="163.0909090909091" y="121.54545454545453" type="curve" smooth="yes"/>
      <point x="151.54545454545453" y="181.0909090909091"/>
      <point x="161.00000000000003" y="233.63636363636363"/>
      <point x="173.09090909090912" y="281.72727272727275" type="curve" smooth="yes"/>
      <point x="178.63636363636365" y="303.99999999999994" type="line" smooth="yes"/>
      <point x="232.72727272727275" y="521.6363636363636"/>
      <point x="341.0909090909091" y="632.0"/>
      <point x="452.90909090909093" y="632.0" type="curve"/>
      <point x="492.2727272727273" y="632.0"/>
      <point x="518.7272727272727" y="621.0"/>
      <point x="535.090909090909" y="596.2727272727273" type="curve"/>
      <point x="529.2727272727273" y="640.090909090909" type="line"/>
      <point x="515.0909090909092" y="578.6363636363636"/>
      <point x="488.7272727272728" y="543.0909090909091"/>
      <point x="474.18181818181824" y="489.27272727272725" type="curve"/>
      <point x="463.36363636363643" y="447.81818181818176"/>
      <point x="479.7272727272727" y="420.18181818181813"/>
      <point x="520.0" y="420.18181818181813" type="curve" smooth="yes"/>
      <point x="535.7272727272727" y="420.18181818181813"/>
      <point x="548.8181818181818" y="422.5454545454545"/>
      <point x="561.0" y="427.7272727272727" type="curve"/>
      <point x="566.2727272727273" y="473.0"/>
      <point x="578.8181818181819" y="498.6363636363637"/>
      <point x="592.6363636363636" y="548.4545454545455" type="curve"/>
      <point x="605.6363636363636" y="592.0909090909092"/>
      <point x="602.090909090909" y="646.7272727272727"/>
      <point x="567.4545454545455" y="681.3636363636365" type="curve" smooth="yes"/>
      <point x="543.6363636363636" y="705.1818181818182"/>
      <point x="506.81818181818176" y="720.0"/>
      <point x="456.6363636363636" y="720.0" type="curve"/>
      <point x="279.54545454545456" y="720.0"/>
      <point x="150.27272727272728" y="575.7272727272726"/>
      <point x="83.27272727272727" y="317.90909090909093" type="curve" smooth="yes"/>
      <point x="76.27272727272727" y="290.8181818181818" type="line" smooth="yes"/>
      <point x="32.454545454545446" y="121.90909090909092"/>
      <point x="95.54545454545456" y="-20.0"/>
    </contour>
  </outline>
</glyph>
<glyph name="F" format="2">
  <advance width="550.0"/>
  <unicode hex="0046"/>
  <outline>
    <contour>
      <point x="160.9090909090909" y="-0.5454545454545454" type="curve"/>
      <point x="155.9090909090909" y="26.090909090909086"/>
      <point x="155.8181818181818" y="61.18181818181818"/>
      <point x="159.72727272727272" y="94.90909090909092" type="curve" smooth="yes"/>
      <point x="179.09090909090907" y="239.81818181818187"/>
      <point x="255.27272727272725" y="377.4545454545455"/>
      <point x="281.8181818181818" y="518.2727272727271" type="curve" smooth="yes"/>
      <point x="290.0909090909091" y="562.0909090909091"/>
      <point x="284.1818181818182" y="586.2727272727273"/>
      <point x="272.3636363636363" y="602.3636363636365" type="curve"/>
      <point x="289.8181818181818" y="635.8181818181819" type="line"/>
      <point x="209.18181818181816" y="630.3636363636364" type="line"/>
      <point x="180.99999999999997" y="424.3636363636364"/>
      <point x="80.0" y="268.9090909090909"/>
      <point x="61.54545454545455" y="97.0" type="curve" smooth="yes"/>
      <point x="54.90909090909092" y="33.545454545454554"/>
      <point x="68.45454545454545" y="-7.454545454545454"/>
      <point x="123.72727272727275" y="-7.454545454545454" type="curve" smooth="yes"/>
      <point x="136.63636363636363" y="-7.454545454545454"/>
      <point x="150.0" y="-5.454545454545455"/>
    </contour>
    <contour>
      <point x="154.3636363636364" y="700.0" type="line"/>
      <point x="148.63636363636365" y="691.909090909091"/>
      <point x="143.81818181818184" y="683.8181818181818"/>
      <point x="140.0" y="669.9999999999999" type="curve" smooth="yes"/>
      <point x="130.45454545454547" y="635.1818181818181"/>
      <point x="142.72727272727275" y="606.8181818181818"/>
      <point x="175.36363636363637" y="606.8181818181818" type="curve"/>
      <point x="587.8181818181818" y="606.8181818181818" type="line"/>
      <point x="594.1818181818181" y="615.9090909090909"/>
      <point x="599.909090909091" y="628.3636363636364"/>
      <point x="603.2727272727274" y="641.7272727272727" type="curve" smooth="yes"/>
      <point x="611.3636363636364" y="674.1818181818181"/>
      <point x="600.5454545454545" y="700.0"/>
      <point x="563.5454545454546" y="700.0" type="curve"/>
    </contour>
    <contour>
      <point x="183.36363636363637" y="322.7272727272727" type="line"/>
      <point x="154.36363636363637" y="229.54545454545453" type="line"/>
      <point x="450.45454545454544" y="229.54545454545453" type="line"/>
      <point x="454.8181818181818" y="236.27272727272725"/>
      <point x="459.5454545454545" y="250.0909090909091"/>
      <point x="461.9090909090909" y="261.54545454545456" type="curve"/>
      <point x="468.45454545454544" y="292.9090909090909"/>
      <point x="460.3636363636364" y="322.7272727272727"/>
      <point x="417.2727272727273" y="322.7272727272727" type="curve"/>
    </contour>
  </outline>
</glyph>
<glyph name="G" format="2">
  <advance width="650.0"/>
  <unicode hex="0047"/>
  <outline>
    <contour>
      <point x="354.0" y="327.5" type="line"/>
      <point x="350.0" y="321.0"/>
      <point x="347.5" y="314.0"/>
      <point x="345.5" y="304.5" type="curve" smooth="yes"/>
      <point x="337.5" y="267.5"/>
      <point x="352.5" y="238.0"/>
      <point x="431.0" y="238.0" type="curve"/>
      <point x="601.5" y="238.0" type="line"/>
      <point x="606.0" y="256.0" type="line" smooth="yes"/>
      <point x="619.0" y="308.0"/>
      <point x="610.0" y="327.5"/>
      <point x="574.0" y="327.5" type="curve" smooth="yes"/>
    </contour>
    <contour>
      <point x="482.5" y="720.0" type="curve" smooth="yes"/>
      <point x="299.5" y="720.0"/>
      <point x="140.5" y="564.0"/>
      <point x="76.0" y="311.0" type="curve" smooth="yes"/>
      <point x="70.0" y="287.5" type="line" smooth="yes"/>
      <point x="24.0" y="107.0"/>
      <point x="95.5" y="-20.0"/>
      <point x="276.5" y="-20.0" type="curve" smooth="yes"/>
      <point x="356.5" y="-20.0"/>
      <point x="431.5" y="1.0"/>
      <point x="474.5" y="40.5" type="curve" smooth="yes"/>
      <point x="510.0" y="72.5"/>
      <point x="532.5" y="111.0"/>
      <point x="543.5" y="158.0" type="curve" smooth="yes"/>
      <point x="550.0" y="187.0"/>
      <point x="546.0" y="218.0"/>
      <point x="535.5" y="233.0" type="curve"/>
      <point x="551.0" y="264.5" type="line"/>
      <point x="482.0" y="264.5" type="line"/>
      <point x="483.5" y="244.5"/>
      <point x="482.5" y="222.5"/>
      <point x="476.5" y="199.5" type="curve"/>
      <point x="454.5" y="122.0"/>
      <point x="381.0" y="77.5"/>
      <point x="287.5" y="77.5" type="curve" smooth="yes"/>
      <point x="213.0" y="77.5"/>
      <point x="170.0" y="107.0"/>
      <point x="156.5" y="169.5" type="curve" smooth="yes"/>
      <point x="154.5" y="201.5"/>
      <point x="158.0" y="239.0"/>
      <point x="167.5" y="277.5" type="curve" smooth="yes"/>
      <point x="172.0" y="296.0" type="line" smooth="yes"/>
      <point x="216.5" y="478.5"/>
      <point x="334.5" y="627.0"/>
      <point x="471.0" y="627.0" type="curve" smooth="yes"/>
      <point x="516.0" y="627.0"/>
      <point x="548.0" y="616.5"/>
      <point x="565.5" y="589.5" type="curve"/>
      <point x="570.5" y="641.0" type="line"/>
      <point x="557.0" y="593.5"/>
      <point x="530.5" y="560.5"/>
      <point x="516.5" y="509.5" type="curve" smooth="yes"/>
      <point x="506.5" y="471.0"/>
      <point x="521.5" y="446.0"/>
      <point x="565.5" y="446.0" type="curve" smooth="yes"/>
      <point x="579.5" y="446.0"/>
      <point x="591.5" y="448.5"/>
      <point x="603.0" y="453.5" type="curve"/>
      <point x="608.0" y="498.5"/>
      <point x="619.0" y="521.0"/>
      <point x="629.5" y="566.5" type="curve" smooth="yes"/>
      <point x="640.0" y="607.5"/>
      <point x="635.5" y="652.5"/>
      <point x="606.0" y="682.0" type="curve" smooth="yes"/>
      <point x="580.5" y="707.5"/>
      <point x="534.0" y="720.0"/>
    </contour>
  </outline>
</glyph>
<glyph name="I" format="2">
  <advance width="500.0"/>
  <unicode hex="0049"/>
  <outline>
    <contour>
      <point x="253.5" y="75.5" type="line"/>
      <point x="265.5" y="243.5"/>
      <point x="338.0" y="356.5"/>
      <point x="372.0" y="508.0" type="curve"/>
      <point x="383.0" y="556.0"/>
      <point x="375.5" y="580.5"/>
      <point x="357.0" y="597.5" type="curve"/>
      <point x="374.5" y="629.5" type="line"/>
      <point x="296.5" y="624.5" type="line"/>
      <point x="276.5" y="462.5"/>
      <point x="200.0" y="340.5"/>
      <point x="173.5" y="190.5" type="curve"/>
      <point x="164.5" y="142.5"/>
      <point x="173.5" y="120.0"/>
      <point x="192.0" y="103.0" type="curve"/>
      <point x="176.0" y="71.0" type="line"/>
    </contour>
    <contour>
      <point x="373.0" y="0.0" type="line"/>
      <point x="378.5" y="8.0"/>
      <point x="383.0" y="17.0"/>
      <point x="386.5" y="30.5" type="curve" smooth="yes"/>
      <point x="396.5" y="67.0"/>
      <point x="381.5" y="97.5"/>
      <point x="323.5" y="97.5" type="curve" smooth="yes"/>
      <point x="19.5" y="97.5" type="line"/>
      <point x="14.0" y="87.5"/>
      <point x="8.0" y="73.0"/>
      <point x="4.5" y="58.5" type="curve"/>
      <point x="-4.0" y="24.0"/>
      <point x="6.5" y="0.0"/>
      <point x="41.5" y="0.0" type="curve" smooth="yes"/>
    </contour>
    <contour>
      <point x="170.0" y="700.0" type="line"/>
      <point x="164.5" y="692.0"/>
      <point x="160.0" y="683.0"/>
      <point x="156.5" y="669.5" type="curve"/>
      <point x="146.5" y="633.0"/>
      <point x="162.0" y="602.5"/>
      <point x="220.0" y="602.5" type="curve" smooth="yes"/>
      <point x="524.0" y="602.5" type="line"/>
      <point x="529.5" y="612.5"/>
      <point x="535.5" y="627.0"/>
      <point x="539.0" y="641.5" type="curve" smooth="yes"/>
      <point x="547.5" y="676.0"/>
      <point x="537.0" y="700.0"/>
      <point x="502.0" y="700.0" type="curve" smooth="yes"/>
    </contour>
  </outline>
</glyph>
<glyph name="J" format="2">
  <advance width="500.0"/>
  <unicode hex="004A"/>
  <outline>
    <contour>
      <point x="158.5" y="77.0" type="curve" smooth="yes"/>
      <point x="99.0" y="77.0"/>
      <point x="63.0" y="92.0"/>
      <point x="21.5" y="128.0" type="curve"/>
      <point x="16.5" y="128.0" type="line"/>
      <point x="9.5" y="117.5"/>
      <point x="3.5" y="107.5"/>
      <point x="-1.5" y="88.0" type="curve"/>
      <point x="-9.5" y="57.5"/>
      <point x="-3.5" y="35.0"/>
      <point x="13.5" y="19.0" type="curve"/>
      <point x="41.5" y="-7.0"/>
      <point x="85.5" y="-20.0"/>
      <point x="154.5" y="-20.0" type="curve"/>
      <point x="283.5" y="-20.0"/>
      <point x="363.0" y="36.0"/>
      <point x="409.0" y="164.0" type="curve"/>
      <point x="463.5" y="315.5"/>
      <point x="468.0" y="479.5"/>
      <point x="533.0" y="646.5" type="curve" smooth="yes"/>
      <point x="549.0" y="687.0"/>
      <point x="522.0" y="710.0"/>
      <point x="460.0" y="710.0" type="curve" smooth="yes"/>
      <point x="370.5" y="710.0"/>
      <point x="292.0" y="707.0"/>
      <point x="186.5" y="700.0" type="curve"/>
      <point x="181.0" y="690.0"/>
      <point x="175.5" y="675.0"/>
      <point x="172.5" y="658.0" type="curve" smooth="yes"/>
      <point x="166.0" y="619.0"/>
      <point x="177.5" y="594.5"/>
      <point x="214.5" y="594.5" type="curve"/>
      <point x="272.5" y="594.5"/>
      <point x="323.5" y="609.0"/>
      <point x="449.0" y="627.0" type="curve"/>
      <point x="401.0" y="632.0" type="line"/>
      <point x="436.0" y="603.0" type="line"/>
      <point x="431.5" y="643.0" type="line"/>
      <point x="366.0" y="464.0"/>
      <point x="359.5" y="339.5"/>
      <point x="319.5" y="208.0" type="curve"/>
      <point x="304.5" y="157.5"/>
      <point x="289.5" y="131.5"/>
      <point x="267.0" y="102.0" type="curve" smooth="yes"/>
      <point x="234.5" y="84.5"/>
      <point x="204.0" y="77.0"/>
    </contour>
  </outline>
</glyph>
<glyph name="K" format="2">
  <advance width="600.0"/>
  <unicode hex="004B"/>
  <outline>
    <contour>
      <point x="353.3636363636363" y="365.27272727272725" type="curve"/>
      <point x="261.3636363636364" y="294.54545454545456" type="line"/>
      <point x="282.09090909090907" y="282.54545454545456" type="line"/>
      <point x="289.3636363636364" y="197.1818181818182"/>
      <point x="309.0909090909091" y="115.09090909090908"/>
      <point x="347.09090909090907" y="47.727272727272734" type="curve"/>
      <point x="367.4545454545454" y="3.3636363636363646"/>
      <point x="395.1818181818182" y="-20.0"/>
      <point x="437.5454545454545" y="-20.0" type="curve" smooth="yes"/>
      <point x="461.27272727272725" y="-20.0"/>
      <point x="476.4545454545455" y="-13.545454545454547"/>
      <point x="488.6363636363636" y="-1.3636363636363642" type="curve" smooth="yes"/>
      <point x="500.27272727272725" y="10.272727272727273"/>
      <point x="507.9090909090909" y="26.454545454545457"/>
      <point x="513.1818181818181" y="46.54545454545455" type="curve" smooth="yes"/>
      <point x="518.9090909090909" y="67.54545454545453"/>
      <point x="519.3636363636363" y="83.00000000000001"/>
      <point x="518.3636363636363" y="97.45454545454545" type="curve"/>
      <point x="513.4545454545456" y="97.45454545454545" type="line"/>
      <point x="501.2727272727272" y="86.0909090909091"/>
      <point x="491.54545454545456" y="82.45454545454545"/>
      <point x="472.3636363636364" y="82.45454545454545" type="curve" smooth="yes"/>
      <point x="448.2727272727273" y="82.45454545454545"/>
      <point x="432.27272727272725" y="96.54545454545456"/>
      <point x="419.0909090909091" y="125.8181818181818" type="curve"/>
      <point x="385.72727272727275" y="189.8181818181818"/>
      <point x="367.6363636363636" y="256.0909090909091"/>
    </contour>
    <contour>
      <point x="572.1818181818181" y="710.0" type="curve"/>
      <point x="553.6363636363637" y="710.0" type="line"/>
      <point x="515.7272727272727" y="615.1818181818181"/>
      <point x="453.72727272727275" y="530.9090909090909"/>
      <point x="391.8181818181818" y="470.1818181818182" type="curve" smooth="yes"/>
      <point x="328.36363636363643" y="407.8181818181818"/>
      <point x="270.8181818181818" y="365.8181818181818"/>
      <point x="202.63636363636363" y="328.0" type="curve"/>
      <point x="177.45454545454547" y="348.72727272727275" type="line"/>
      <point x="143.00000000000003" y="232.90909090909088" type="line"/>
      <point x="302.72727272727275" y="275.7272727272727"/>
      <point x="486.18181818181824" y="403.27272727272725"/>
      <point x="578.3636363636365" y="538.9090909090909" type="curve" smooth="yes"/>
      <point x="623.9090909090909" y="605.0"/>
      <point x="636.1818181818182" y="635.4545454545455"/>
      <point x="643.3636363636365" y="660.4545454545455" type="curve" smooth="yes"/>
      <point x="651.0" y="688.1818181818181"/>
      <point x="631.2727272727273" y="710.0"/>
    </contour>
    <contour>
      <point x="190.0909090909091" y="700.5454545454546" type="curve"/>
      <point x="192.45454545454547" y="666.0"/>
      <point x="188.72727272727275" y="629.4545454545455"/>
      <point x="180.63636363636365" y="590.4545454545455" type="curve" smooth="yes"/>
      <point x="145.9090909090909" y="417.5454545454545"/>
      <point x="66.9090909090909" y="280.6363636363636"/>
      <point x="44.72727272727272" y="123.27272727272725" type="curve" smooth="yes"/>
      <point x="30.72727272727272" y="28.181818181818183"/>
      <point x="50.0" y="-6.363636363636363"/>
      <point x="96.18181818181819" y="-6.363636363636363" type="curve" smooth="yes"/>
      <point x="108.63636363636364" y="-6.363636363636363"/>
      <point x="120.54545454545455" y="-3.9090909090909087"/>
      <point x="130.63636363636363" y="0.0" type="curve"/>
      <point x="129.9090909090909" y="230.0909090909091"/>
      <point x="237.0909090909091" y="385.7272727272727"/>
      <point x="274.2727272727273" y="585.0" type="curve" smooth="yes"/>
      <point x="290.81818181818187" y="673.0"/>
      <point x="278.4545454545455" y="707.4545454545455"/>
      <point x="230.1818181818182" y="707.4545454545455" type="curve"/>
      <point x="216.27272727272728" y="707.4545454545455"/>
      <point x="204.8181818181818" y="705.4545454545454"/>
    </contour>
  </outline>
</glyph>
<glyph name="L" format="2">
  <advance width="550.0"/>
  <unicode hex="004C"/>
  <outline>
    <contour>
      <point x="138.0" y="0.0" type="curve" smooth="yes"/>
      <point x="408.5" y="0.0" type="line"/>
      <point x="430.0" y="47.0"/>
      <point x="428.0" y="97.5"/>
      <point x="382.5" y="97.5" type="curve" smooth="yes"/>
      <point x="132.0" y="97.5" type="line"/>
      <point x="143.5" y="256.0"/>
      <point x="237.0" y="414.0"/>
      <point x="268.5" y="586.0" type="curve" smooth="yes"/>
      <point x="283.5" y="665.0"/>
      <point x="275.0" y="707.5"/>
      <point x="220.0" y="707.5" type="curve" smooth="yes"/>
      <point x="205.5" y="707.5"/>
      <point x="191.5" y="706.0"/>
      <point x="175.5" y="700.5" type="curve"/>
      <point x="178.5" y="667.0"/>
      <point x="177.0" y="629.0"/>
      <point x="169.0" y="589.5" type="curve"/>
      <point x="137.0" y="435.0"/>
      <point x="68.0" y="307.0"/>
      <point x="39.0" y="151.0" type="curve" smooth="yes"/>
      <point x="23.5" y="69.5"/>
      <point x="65.5" y="0.0"/>
    </contour>
    <contour>
      <point x="403.5" y="200.0" type="curve"/>
      <point x="389.5" y="97.5"/>
      <point x="344.0" y="40.0"/>
      <point x="332.5" y="-3.0" type="curve"/>
      <point x="326.5" y="-24.5"/>
      <point x="339.5" y="-35.0"/>
      <point x="401.0" y="-35.0" type="curve"/>
      <point x="441.0" y="18.0"/>
      <point x="469.5" y="74.0"/>
      <point x="487.0" y="142.0" type="curve" smooth="yes"/>
      <point x="495.0" y="174.0"/>
      <point x="482.5" y="203.0"/>
      <point x="438.0" y="203.0" type="curve" smooth="yes"/>
      <point x="425.0" y="203.0"/>
      <point x="413.0" y="202.0"/>
    </contour>
  </outline>
</glyph>
<glyph name="M" format="2">
  <advance width="800.0"/>
  <unicode hex="004D"/>
  <outline>
    <contour>
      <point x="114.54545454545453" y="-2.727272727272727" type="curve"/>
      <point x="113.27272727272727" y="60.36363636363636"/>
      <point x="125.36363636363636" y="122.72727272727273"/>
      <point x="144.5454545454545" y="197.8181818181818" type="curve"/>
      <point x="175.0" y="316.27272727272725"/>
      <point x="233.63636363636365" y="446.3636363636363"/>
      <point x="269.00000000000006" y="591.4545454545454" type="curve"/>
      <point x="244.72727272727272" y="552.6363636363636" type="line"/>
      <point x="288.6363636363636" y="559.2727272727273" type="line"/>
      <point x="266.6363636363636" y="592.909090909091" type="line"/>
      <point x="258.3636363636363" y="400.1818181818182"/>
      <point x="285.90909090909093" y="248.6363636363636"/>
      <point x="321.8181818181818" y="155.27272727272728" type="curve" smooth="yes"/>
      <point x="331.1818181818182" y="128.1818181818182"/>
      <point x="343.3636363636364" y="113.9090909090909"/>
      <point x="370.3636363636364" y="113.9090909090909" type="curve" smooth="yes"/>
      <point x="377.90909090909093" y="113.9090909090909"/>
      <point x="384.09090909090907" y="114.36363636363635"/>
      <point x="391.1818181818182" y="117.09090909090908" type="curve"/>
      <point x="472.3636363636364" y="198.72727272727275"/>
      <point x="609.8181818181818" y="408.7272727272727"/>
      <point x="685.9090909090909" y="589.0909090909091" type="curve"/>
      <point x="645.2727272727273" y="560.6363636363636" type="line"/>
      <point x="694.7272727272727" y="552.1818181818181" type="line"/>
      <point x="679.4545454545454" y="584.2727272727273" type="line"/>
      <point x="669.7272727272727" y="458.5454545454545"/>
      <point x="643.2727272727273" y="351.2727272727273"/>
      <point x="618.0" y="256.45454545454544" type="curve"/>
      <point x="597.8181818181818" y="180.1818181818182"/>
      <point x="584.1818181818181" y="126.36363636363635"/>
      <point x="579.6363636363636" y="79.00000000000001" type="curve" smooth="yes"/>
      <point x="574.1818181818182" y="18.90909090909091"/>
      <point x="596.1818181818182" y="-9.09090909090909"/>
      <point x="638.3636363636364" y="-9.09090909090909" type="curve"/>
      <point x="657.0909090909091" y="-9.09090909090909"/>
      <point x="673.7272727272729" y="-6.090909090909091"/>
      <point x="683.4545454545455" y="-2.727272727272727" type="curve"/>
      <point x="678.0909090909092" y="30.0"/>
      <point x="679.7272727272729" y="68.54545454545455"/>
      <point x="686.1818181818182" y="109.9090909090909" type="curve"/>
      <point x="708.2727272727273" y="252.09090909090912"/>
      <point x="758.1818181818182" y="416.90909090909093"/>
      <point x="775.9090909090909" y="593.1818181818181" type="curve" smooth="yes"/>
      <point x="785.5454545454546" y="679.2727272727273"/>
      <point x="758.0" y="709.0909090909091"/>
      <point x="695.5454545454546" y="709.0909090909091" type="curve" smooth="yes"/>
      <point x="676.5454545454545" y="709.0909090909091"/>
      <point x="659.6363636363637" y="706.5454545454545"/>
      <point x="640.4545454545455" y="701.6363636363636" type="curve"/>
      <point x="587.1818181818181" y="548.1818181818181"/>
      <point x="469.8181818181818" y="346.6363636363636"/>
      <point x="373.8181818181818" y="241.4545454545455" type="curve"/>
      <point x="416.0909090909091" y="262.3636363636364" type="line"/>
      <point x="365.7272727272727" y="269.1818181818182" type="line"/>
      <point x="396.0909090909091" y="236.4545454545455" type="line"/>
      <point x="359.6363636363636" y="356.27272727272725"/>
      <point x="351.00000000000006" y="499.09090909090895"/>
      <point x="355.90909090909093" y="614.2727272727274" type="curve" smooth="yes"/>
      <point x="357.54545454545456" y="672.9999999999999"/>
      <point x="330.6363636363637" y="709.0909090909091"/>
      <point x="257.4545454545455" y="709.0909090909091" type="curve" smooth="yes"/>
      <point x="225.81818181818178" y="709.0909090909091"/>
      <point x="208.9090909090909" y="706.5454545454545"/>
      <point x="188.27272727272725" y="701.6363636363636" type="curve"/>
      <point x="190.45454545454547" y="668.4545454545455"/>
      <point x="185.63636363636363" y="630.6363636363636"/>
      <point x="175.36363636363635" y="591.0909090909091" type="curve"/>
      <point x="132.8181818181818" y="417.54545454545456"/>
      <point x="51.72727272727273" y="274.72727272727275"/>
      <point x="27.818181818181817" y="124.90909090909089" type="curve" smooth="yes"/>
      <point x="12.18181818181818" y="26.545454545454547"/>
      <point x="35.72727272727273" y="-9.09090909090909"/>
      <point x="74.0909090909091" y="-9.09090909090909" type="curve"/>
      <point x="88.0" y="-9.09090909090909"/>
      <point x="104.0" y="-6.636363636363637"/>
    </contour>
  </outline>
</glyph>
<glyph name="P" format="2">
  <advance width="600.0"/>
  <unicode hex="0050"/>
  <outline>
    <contour>
      <point x="144.18181818181816" y="0.0" type="curve"/>
      <point x="139.1818181818182" y="26.636363636363633"/>
      <point x="139.09090909090907" y="61.18181818181817"/>
      <point x="142.99999999999997" y="94.9090909090909" type="curve" smooth="yes"/>
      <point x="162.8181818181818" y="242.54545454545456"/>
      <point x="238.45454545454544" y="382.9090909090909"/>
      <point x="265.45454545454544" y="526.4545454545455" type="curve" smooth="yes"/>
      <point x="273.7272727272727" y="570.2727272727273"/>
      <point x="270.0909090909091" y="600.5454545454545"/>
      <point x="256.09090909090907" y="617.1818181818182" type="curve"/>
      <point x="273.5454545454545" y="650.0" type="line"/>
      <point x="193.0" y="636.3636363636364" type="line"/>
      <point x="164.27272727272725" y="430.3636363636363"/>
      <point x="63.27272727272728" y="268.9090909090909"/>
      <point x="44.81818181818183" y="97.0" type="curve" smooth="yes"/>
      <point x="38.18181818181818" y="33.54545454545455"/>
      <point x="51.727272727272734" y="-6.90909090909091"/>
      <point x="107.00000000000001" y="-6.90909090909091" type="curve" smooth="yes"/>
      <point x="119.9090909090909" y="-6.90909090909091"/>
      <point x="133.27272727272725" y="-4.909090909090909"/>
    </contour>
    <contour>
      <point x="137.9090909090909" y="700.0" type="curve"/>
      <point x="132.63636363636363" y="689.5454545454545"/>
      <point x="128.8181818181818" y="679.6363636363636"/>
      <point x="125.00000000000001" y="664.2727272727273" type="curve"/>
      <point x="116.0" y="627.6363636363636"/>
      <point x="122.0" y="607.909090909091"/>
      <point x="144.27272727272728" y="607.909090909091" type="curve" smooth="yes"/>
      <point x="168.13364732268184" y="607.909090909091"/>
      <point x="245.25546182745452" y="628.4545454545455"/>
      <point x="365.0909090909092" y="628.4545454545455" type="curve"/>
      <point x="430.45454545454544" y="628.4545454545455"/>
      <point x="465.09090909090907" y="619.5454545454545"/>
      <point x="495.3636363636364" y="596.0" type="curve" smooth="yes"/>
      <point x="506.0909090909091" y="560.8181818181819"/>
      <point x="500.9090909090909" y="521.0000000000001"/>
      <point x="493.7272727272727" y="492.8181818181818" type="curve" smooth="yes"/>
      <point x="489.1818181818182" y="475.6363636363636" type="line" smooth="yes"/>
      <point x="453.27272727272725" y="335.4545454545454"/>
      <point x="367.2727272727273" y="269.45454545454544"/>
      <point x="250.8181818181818" y="269.45454545454544" type="curve" smooth="yes"/>
      <point x="210.09090909090907" y="269.45454545454544"/>
      <point x="193.1818181818182" y="274.0909090909091"/>
      <point x="173.54545454545453" y="282.18181818181813" type="curve"/>
      <point x="150.54545454545453" y="211.72727272727275" type="line" smooth="yes"/>
      <point x="176.27272727272728" y="219.45454545454547" type="line"/>
      <point x="191.8181818181818" y="198.54545454545456"/>
      <point x="220.3564862104091" y="182.09090909090912"/>
      <point x="259.72727272727275" y="182.09090909090912" type="curve" smooth="yes"/>
      <point x="408.4545454545455" y="182.09090909090912"/>
      <point x="536.5454545454546" y="270.09090909090907"/>
      <point x="584.3636363636364" y="463.09090909090907" type="curve" smooth="yes"/>
      <point x="588.4545454545455" y="478.9090909090909" type="line" smooth="yes"/>
      <point x="615.7272727272727" y="586.6363636363636"/>
      <point x="579.090909090909" y="720.0"/>
      <point x="381.6363636363637" y="720.0" type="curve"/>
      <point x="308.5454545454545" y="720.0"/>
      <point x="237.81818181818184" y="715.6363636363636"/>
    </contour>
  </outline>
</glyph>
<glyph name="Q" format="2">
  <advance width="650.0"/>
  <unicode hex="0051"/>
  <outline>
    <contour>
      <point x="416.5" y="74.5" type="curve"/>
      <point x="342.5" y="31.0" type="line"/>
      <point x="343.0" y="-15.0"/>
      <point x="347.5" y="-52.5"/>
      <point x="362.5" y="-93.5" type="curve" smooth="yes"/>
      <point x="383.5" y="-146.0"/>
      <point x="415.0" y="-170.5"/>
      <point x="461.0" y="-170.5" type="curve" smooth="yes"/>
      <point x="485.0" y="-170.5"/>
      <point x="503.0" y="-163.5"/>
      <point x="516.0" y="-150.5" type="curve" smooth="yes"/>
      <point x="529.0" y="-137.5"/>
      <point x="538.0" y="-120.5"/>
      <point x="544.5" y="-96.5" type="curve" smooth="yes"/>
      <point x="549.5" y="-80.0"/>
      <point x="552.0" y="-63.5"/>
      <point x="552.0" y="-48.5" type="curve"/>
      <point x="547.0" y="-48.5" type="line"/>
      <point x="534.5" y="-57.5"/>
      <point x="520.0" y="-62.5"/>
      <point x="502.5" y="-62.5" type="curve" smooth="yes"/>
      <point x="473.5" y="-62.5"/>
      <point x="460.0" y="-51.5"/>
      <point x="446.5" y="-19.5" type="curve"/>
      <point x="434.0" y="10.0"/>
      <point x="424.5" y="43.0"/>
    </contour>
    <contour>
      <point x="426.5" y="720.0" type="curve"/>
      <point x="264.5" y="720.0"/>
      <point x="150.0" y="606.0"/>
      <point x="87.5" y="352.5" type="curve" smooth="yes"/>
      <point x="81.5" y="328.0" type="line" smooth="yes"/>
      <point x="29.0" y="114.5"/>
      <point x="105.0" y="-20.0"/>
      <point x="264.5" y="-20.0" type="curve" smooth="yes"/>
      <point x="424.5" y="-20.0"/>
      <point x="537.0" y="72.5"/>
      <point x="599.0" y="320.0" type="curve" smooth="yes"/>
      <point x="605.0" y="344.0" type="line" smooth="yes"/>
      <point x="665.5" y="584.0"/>
      <point x="607.5" y="720.0"/>
    </contour>
    <contour>
      <point x="177.0" y="310.5" type="curve" smooth="yes"/>
      <point x="181.5" y="330.5" type="line" smooth="yes"/>
      <point x="229.5" y="543.0"/>
      <point x="316.5" y="618.5"/>
      <point x="420.5" y="618.5" type="curve" smooth="yes"/>
      <point x="448.5" y="618.5"/>
      <point x="475.0" y="613.0"/>
      <point x="494.0" y="605.5" type="curve" smooth="yes"/>
      <point x="539.5" y="559.0"/>
      <point x="540.5" y="476.0"/>
      <point x="510.5" y="353.0" type="curve" smooth="yes"/>
      <point x="506.0" y="334.5" type="line" smooth="yes"/>
      <point x="458.5" y="139.0"/>
      <point x="370.0" y="71.5"/>
      <point x="265.5" y="71.5" type="curve" smooth="yes"/>
      <point x="240.0" y="71.5"/>
      <point x="213.5" y="77.5"/>
      <point x="192.0" y="89.0" type="curve" smooth="yes"/>
      <point x="160.0" y="137.0"/>
      <point x="155.5" y="215.5"/>
    </contour>
  </outline>
</glyph>
<glyph name="R" format="2">
  <advance width="600.0"/>
  <unicode hex="0052"/>
  <outline>
    <contour>
      <point x="364.8181818181818" y="262.6363636363636" type="curve"/>
      <point x="288.18181818181813" y="227.0" type="line"/>
      <point x="294.0" y="160.90909090909088"/>
      <point x="303.72727272727275" y="109.72727272727272"/>
      <point x="328.36363636363643" y="56.36363636363636" type="curve" smooth="yes"/>
      <point x="350.3636363636364" y="8.181818181818182"/>
      <point x="381.3636363636363" y="-14.545454545454547"/>
      <point x="428.3636363636364" y="-14.545454545454547" type="curve" smooth="yes"/>
      <point x="450.18181818181824" y="-14.545454545454547"/>
      <point x="466.2727272727273" y="-8.181818181818183"/>
      <point x="478.45454545454544" y="3.999999999999999" type="curve" smooth="yes"/>
      <point x="489.99999999999994" y="15.545454545454547"/>
      <point x="498.54545454545456" y="31.72727272727273"/>
      <point x="504.27272727272725" y="55.09090909090909" type="curve" smooth="yes"/>
      <point x="508.09090909090907" y="70.00000000000001"/>
      <point x="510.00000000000006" y="84.0909090909091"/>
      <point x="509.45454545454544" y="98.54545454545455" type="curve"/>
      <point x="504.54545454545456" y="98.54545454545455" type="line"/>
      <point x="492.0" y="88.81818181818183"/>
      <point x="476.18181818181824" y="83.0909090909091"/>
      <point x="459.72727272727275" y="83.0909090909091" type="curve" smooth="yes"/>
      <point x="434.0" y="83.0909090909091"/>
      <point x="416.0" y="97.0909090909091"/>
      <point x="402.27272727272725" y="129.09090909090907" type="curve"/>
      <point x="381.3636363636364" y="172.36363636363637"/>
      <point x="372.3636363636363" y="210.63636363636365"/>
    </contour>
    <contour>
      <point x="137.9090909090909" y="700.0" type="curve"/>
      <point x="132.63636363636363" y="689.0909090909091"/>
      <point x="128.36363636363637" y="679.1818181818181"/>
      <point x="125.0" y="664.2727272727273" type="curve"/>
      <point x="116.0" y="628.0909090909091"/>
      <point x="122.0" y="607.9090909090908"/>
      <point x="144.27272727272725" y="607.9090909090908" type="curve" smooth="yes"/>
      <point x="165.70601858454546" y="607.9090909090908"/>
      <point x="259.6363636363637" y="627.9090909090908"/>
      <point x="359.7272727272727" y="627.9090909090908" type="curve"/>
      <point x="422.1818181818182" y="627.9090909090908"/>
      <point x="459.18181818181813" y="617.9090909090909"/>
      <point x="492.27272727272725" y="596.9090909090909" type="curve" smooth="yes"/>
      <point x="500.3636363636364" y="569.3636363636365"/>
      <point x="499.45454545454544" y="538.4545454545455"/>
      <point x="489.6363636363636" y="497.5454545454545" type="curve" smooth="yes"/>
      <point x="485.6363636363636" y="481.45454545454544" type="line" smooth="yes"/>
      <point x="451.7272727272727" y="341.00000000000006"/>
      <point x="342.1818181818182" y="282.72727272727275"/>
      <point x="239.4545454545455" y="282.72727272727275" type="curve"/>
      <point x="197.09090909090912" y="282.72727272727275"/>
      <point x="182.0909090909091" y="286.27272727272725"/>
      <point x="162.0" y="297.0909090909091" type="curve"/>
      <point x="137.54545454545453" y="214.27272727272728" type="line" smooth="yes"/>
      <point x="175.54545454545456" y="224.09090909090912" type="line"/>
      <point x="193.0" y="206.0909090909091"/>
      <point x="219.90909090909096" y="197.90909090909093"/>
      <point x="250.54545454545456" y="197.90909090909093" type="curve" smooth="yes"/>
      <point x="402.0909090909091" y="197.90909090909093"/>
      <point x="539.0000000000001" y="298.72727272727275"/>
      <point x="583.0909090909091" y="475.7272727272728" type="curve" smooth="yes"/>
      <point x="588.2727272727274" y="496.45454545454544" type="line" smooth="yes"/>
      <point x="612.8181818181819" y="594.0909090909091"/>
      <point x="580.0909090909092" y="720.0"/>
      <point x="375.7272727272727" y="720.0" type="curve"/>
      <point x="305.3636363636363" y="720.0"/>
      <point x="235.09090909090912" y="715.1818181818181"/>
    </contour>
    <contour>
      <point x="141.00000000000003" y="0.0" type="curve"/>
      <point x="136.0" y="26.636363636363637"/>
      <point x="135.9090909090909" y="61.18181818181818"/>
      <point x="139.8181818181818" y="94.90909090909092" type="curve"/>
      <point x="159.63636363636365" y="242.5454545454545"/>
      <point x="235.2727272727273" y="382.9090909090909"/>
      <point x="262.2727272727273" y="526.4545454545454" type="curve"/>
      <point x="270.52165053295454" y="570.0822951725909"/>
      <point x="266.90909090909093" y="600.090909090909"/>
      <point x="252.90909090909093" y="616.7272727272727" type="curve" smooth="yes"/>
      <point x="270.3636363636364" y="650.0" type="line"/>
      <point x="192.99999999999997" y="636.3636363636363" type="line"/>
      <point x="164.27272727272728" y="430.3636363636363"/>
      <point x="63.27272727272727" y="268.9090909090909"/>
      <point x="44.81818181818183" y="97.0" type="curve" smooth="yes"/>
      <point x="38.18181818181818" y="33.54545454545455"/>
      <point x="48.545454545454554" y="-6.909090909090908"/>
      <point x="103.81818181818184" y="-6.909090909090908" type="curve" smooth="yes"/>
      <point x="116.72727272727275" y="-6.909090909090908"/>
      <point x="130.0909090909091" y="-4.909090909090909"/>
    </contour>
  </outline>
</glyph>
<glyph name="T" format="2">
  <advance width="600.0"/>
  <unicode hex="0054"/>
  <outline>
    <contour>
      <point x="152.90909090909088" y="700.0" type="line"/>
      <point x="148.54545454545453" y="694.1818181818182"/>
      <point x="145.1818181818182" y="685.9090909090909"/>
      <point x="142.27272727272728" y="675.8181818181818" type="curve" smooth="yes"/>
      <point x="129.74892085439998" y="626.5642249509091"/>
      <point x="166.63636363636363" y="607.9090909090908"/>
      <point x="214.27272727272722" y="607.9090909090908" type="curve" smooth="yes"/>
      <point x="635.4545454545455" y="607.9090909090908" type="line"/>
      <point x="641.5454545454545" y="616.9090909090909"/>
      <point x="647.1818181818181" y="628.7272727272727"/>
      <point x="650.5454545454545" y="641.9090909090909" type="curve" smooth="yes"/>
      <point x="658.7272727272726" y="676.2727272727273"/>
      <point x="647.8181818181818" y="700.0"/>
      <point x="614.6363636363636" y="700.0" type="curve"/>
    </contour>
    <contour>
      <point x="300.6363636363636" y="0.0" type="curve"/>
      <point x="295.6363636363636" y="26.636363636363633"/>
      <point x="296.09090909090907" y="61.18181818181817"/>
      <point x="301.09090909090907" y="94.9090909090909" type="curve"/>
      <point x="323.1818181818182" y="239.8181818181818"/>
      <point x="396.09090909090907" y="377.45454545454544"/>
      <point x="422.6363636363636" y="518.2727272727273" type="curve"/>
      <point x="430.90909090909093" y="562.090909090909"/>
      <point x="425.0" y="587.3636363636364"/>
      <point x="413.18181818181813" y="603.4545454545454" type="curve" smooth="yes"/>
      <point x="430.6363636363636" y="635.8181818181819" type="line"/>
      <point x="350.0" y="630.3636363636364" type="line"/>
      <point x="321.8181818181818" y="424.3636363636363"/>
      <point x="224.0909090909091" y="268.9090909090909"/>
      <point x="202.36363636363637" y="97.0" type="curve" smooth="yes"/>
      <point x="194.63636363636363" y="33.54545454545455"/>
      <point x="207.63636363636363" y="-6.90909090909091"/>
      <point x="262.9090909090909" y="-6.90909090909091" type="curve" smooth="yes"/>
      <point x="275.8181818181818" y="-6.90909090909091"/>
      <point x="289.7272727272727" y="-4.909090909090909"/>
    </contour>
  </outline>
</glyph>
<glyph name="V" format="2">
  <advance width="650.0"/>
  <unicode hex="0056"/>
  <outline>
    <contour>
      <point x="197.54545454545453" y="705.8181818181819" type="curve"/>
      <point x="186.45454545454547" y="705.8181818181819"/>
      <point x="174.0" y="704.3636363636363"/>
      <point x="159.45454545454547" y="700.0" type="curve"/>
      <point x="161.27272727272728" y="669.1818181818182"/>
      <point x="159.8181818181818" y="643.2727272727273"/>
      <point x="143.72727272727272" y="569.7272727272727" type="curve" smooth="yes"/>
      <point x="95.81818181818181" y="351.3636363636363"/>
      <point x="117.00000000000001" y="150.09090909090907"/>
      <point x="183.8181818181818" y="41.36363636363637" type="curve" smooth="yes"/>
      <point x="212.72727272727275" y="-5.363636363636365"/>
      <point x="236.72727272727275" y="-9.09090909090909"/>
      <point x="268.3636363636364" y="-9.09090909090909" type="curve" smooth="yes"/>
      <point x="281.0" y="-9.09090909090909"/>
      <point x="294.45454545454544" y="-7.090909090909092"/>
      <point x="307.0909090909092" y="-3.272727272727272" type="curve"/>
      <point x="472.18181818181824" y="113.09090909090912"/>
      <point x="616.7272727272727" y="363.09090909090907"/>
      <point x="677.9090909090908" y="607.8181818181818" type="curve"/>
      <point x="696.0909090909091" y="679.0"/>
      <point x="675.5454545454546" y="705.2727272727273"/>
      <point x="626.2727272727273" y="705.2727272727273" type="curve"/>
      <point x="615.9090909090909" y="705.2727272727273"/>
      <point x="602.3636363636364" y="703.8181818181818"/>
      <point x="585.9090909090909" y="700.0" type="curve"/>
      <point x="537.6363636363637" y="408.45454545454544"/>
      <point x="410.4545454545455" y="199.45454545454544"/>
      <point x="258.0909090909091" y="66.45454545454545" type="curve"/>
      <point x="294.1818181818182" y="79.63636363636365" type="line"/>
      <point x="252.63636363636365" y="88.27272727272728" type="line"/>
      <point x="277.6363636363636" y="67.45454545454545" type="line"/>
      <point x="207.7272727272727" y="185.54545454545456"/>
      <point x="193.63636363636365" y="349.9090909090909"/>
      <point x="248.90909090909085" y="578.9090909090909" type="curve"/>
      <point x="271.45454545454544" y="673.0"/>
      <point x="245.18181818181816" y="705.8181818181819"/>
    </contour>
  </outline>
</glyph>
<glyph name="W" format="2">
  <advance width="900.0"/>
  <unicode hex="0057"/>
  <outline>
    <contour>
      <point x="152.0" y="702.5" type="curve"/>
      <point x="154.5" y="671.0"/>
      <point x="148.5" y="633.5"/>
      <point x="138.0" y="588.0" type="curve" smooth="yes"/>
      <point x="65.5" y="282.5"/>
      <point x="83.5" y="119.0"/>
      <point x="143.5" y="23.0" type="curve"/>
      <point x="159.0" y="-0.5"/>
      <point x="182.0" y="-10.0"/>
      <point x="205.5" y="-10.0" type="curve"/>
      <point x="219.0" y="-10.0"/>
      <point x="229.0" y="-8.0"/>
      <point x="239.5" y="-3.5" type="curve"/>
      <point x="314.5" y="70.0"/>
      <point x="431.5" y="253.5"/>
      <point x="477.5" y="389.0" type="curve"/>
      <point x="442.0" y="361.0" type="line"/>
      <point x="491.0" y="354.5" type="line"/>
      <point x="476.5" y="392.5" type="line"/>
      <point x="460.5" y="250.0"/>
      <point x="479.0" y="108.5"/>
      <point x="517.5" y="21.0" type="curve" smooth="yes"/>
      <point x="531.0" y="-2.0"/>
      <point x="550.0" y="-10.0"/>
      <point x="577.5" y="-10.0" type="curve" smooth="yes"/>
      <point x="591.5" y="-10.0"/>
      <point x="603.5" y="-7.5"/>
      <point x="612.5" y="-3.5" type="curve"/>
      <point x="739.0" y="111.5"/>
      <point x="850.5" y="300.0"/>
      <point x="933.5" y="589.5" type="curve"/>
      <point x="957.5" y="677.0"/>
      <point x="941.0" y="709.5"/>
      <point x="892.0" y="709.5" type="curve"/>
      <point x="876.0" y="709.5"/>
      <point x="864.5" y="707.5"/>
      <point x="848.5" y="702.5" type="curve"/>
      <point x="782.5" y="401.0"/>
      <point x="679.0" y="207.5"/>
      <point x="564.5" y="82.5" type="curve"/>
      <point x="605.5" y="101.5" type="line"/>
      <point x="552.0" y="110.0" type="line"/>
      <point x="586.5" y="79.5" type="line"/>
      <point x="548.0" y="176.0"/>
      <point x="550.0" y="336.5"/>
      <point x="578.0" y="542.5" type="curve" smooth="yes"/>
      <point x="585.0" y="593.0"/>
      <point x="561.0" y="617.5"/>
      <point x="511.0" y="617.5" type="curve"/>
      <point x="479.5" y="617.5" type="line"/>
      <point x="415.5" y="407.0"/>
      <point x="310.5" y="210.0"/>
      <point x="192.5" y="78.5" type="curve"/>
      <point x="252.0" y="101.0" type="line"/>
      <point x="187.5" y="109.5" type="line"/>
      <point x="217.5" y="79.5" type="line"/>
      <point x="175.5" y="189.0"/>
      <point x="182.0" y="348.5"/>
      <point x="241.0" y="592.0" type="curve" smooth="yes"/>
      <point x="260.5" y="672.5"/>
      <point x="250.0" y="709.0"/>
      <point x="204.5" y="709.0" type="curve" smooth="yes"/>
      <point x="183.0" y="709.0"/>
      <point x="167.5" y="706.5"/>
    </contour>
  </outline>
</glyph>
<glyph name="X" format="2">
  <advance width="650.0"/>
  <unicode hex="0058"/>
  <outline>
    <contour>
      <point x="492.0" y="-8.0" type="curve" smooth="yes"/>
      <point x="509.5" y="-8.0"/>
      <point x="529.5" y="-5.0"/>
      <point x="545.0" y="0.0" type="curve"/>
      <point x="485.5" y="77.5"/>
      <point x="409.5" y="208.0"/>
      <point x="363.5" y="325.5" type="curve"/>
      <point x="347.0" y="374.0" type="line"/>
      <point x="303.0" y="480.0"/>
      <point x="274.5" y="571.0"/>
      <point x="262.5" y="642.5" type="curve" smooth="yes"/>
      <point x="254.0" y="693.5"/>
      <point x="238.5" y="708.0"/>
      <point x="189.5" y="708.0" type="curve" smooth="yes"/>
      <point x="172.5" y="708.0"/>
      <point x="155.5" y="706.5"/>
      <point x="138.0" y="702.5" type="curve"/>
      <point x="160.5" y="583.0"/>
      <point x="207.5" y="451.5"/>
      <point x="263.0" y="317.0" type="curve"/>
      <point x="278.0" y="278.0" type="line"/>
      <point x="318.5" y="183.5"/>
      <point x="379.5" y="79.5"/>
      <point x="417.5" y="27.5" type="curve"/>
      <point x="434.5" y="1.0"/>
      <point x="450.0" y="-8.0"/>
    </contour>
    <contour>
      <point x="658.5" y="706.0" type="curve"/>
      <point x="633.5" y="706.0"/>
      <point x="618.5" y="704.5"/>
      <point x="602.0" y="700.0" type="curve"/>
      <point x="538.0" y="570.5"/>
      <point x="449.0" y="465.5"/>
      <point x="352.0" y="380.0" type="curve"/>
      <point x="316.0" y="382.5" type="line"/>
      <point x="358.5" y="276.0" type="line"/>
      <point x="504.5" y="387.0"/>
      <point x="611.5" y="498.0"/>
      <point x="684.0" y="621.0" type="curve"/>
      <point x="714.0" y="674.5"/>
      <point x="706.0" y="706.0"/>
    </contour>
    <contour>
      <point x="24.0" y="-6.0" type="curve" smooth="yes"/>
      <point x="40.5" y="-6.0"/>
      <point x="58.0" y="-3.5"/>
      <point x="71.5" y="0.0" type="curve"/>
      <point x="122.5" y="81.0"/>
      <point x="207.5" y="170.5"/>
      <point x="288.5" y="239.5" type="curve"/>
      <point x="320.0" y="236.5" type="line"/>
      <point x="271.0" y="331.5" type="line"/>
      <point x="144.0" y="238.5"/>
      <point x="42.5" y="146.0"/>
      <point x="-19.5" y="66.0" type="curve"/>
      <point x="-51.5" y="24.5"/>
      <point x="-26.5" y="-6.0"/>
    </contour>
  </outline>
</glyph>
<glyph name="Y" format="2">
  <advance width="600.0"/>
  <unicode hex="0059"/>
  <outline>
    <contour>
      <point x="297.1818181818182" y="0.0" type="curve"/>
      <point x="290.18181818181824" y="33.0"/>
      <point x="293.1818181818182" y="68.81818181818181"/>
      <point x="301.6363636363637" y="107.27272727272728" type="curve"/>
      <point x="312.6363636363636" y="157.7272727272727"/>
      <point x="324.54545454545456" y="200.63636363636365"/>
      <point x="344.6363636363636" y="249.72727272727275" type="curve"/>
      <point x="253.0909090909091" y="251.1818181818182" type="line"/>
      <point x="225.27272727272725" y="190.27272727272728"/>
      <point x="205.54545454545453" y="133.81818181818184"/>
      <point x="195.9090909090909" y="71.36363636363637" type="curve" smooth="yes"/>
      <point x="188.54545454545453" y="25.181818181818183"/>
      <point x="196.1818181818182" y="-6.363636363636363"/>
      <point x="258.45454545454544" y="-6.363636363636363" type="curve" smooth="yes"/>
      <point x="273.1818181818182" y="-6.363636363636363"/>
      <point x="285.1818181818182" y="-3.909090909090909"/>
    </contour>
    <contour>
      <point x="156.27272727272725" y="700.0" type="curve"/>
      <point x="129.45454545454544" y="453.90909090909093"/>
      <point x="153.2727272727273" y="343.54545454545456"/>
      <point x="234.27272727272728" y="236.09090909090907" type="curve"/>
      <point x="251.27272727272728" y="213.0909090909091"/>
      <point x="270.6363636363637" y="210.72727272727275"/>
      <point x="316.1818181818182" y="208.00000000000003" type="curve"/>
      <point x="465.1818181818182" y="320.45454545454544"/>
      <point x="574.5454545454545" y="457.8181818181818"/>
      <point x="644.8181818181819" y="643.9090909090909" type="curve"/>
      <point x="660.3636363636364" y="688.090909090909"/>
      <point x="642.090909090909" y="706.3636363636364"/>
      <point x="598.7272727272726" y="706.3636363636364" type="curve"/>
      <point x="579.4545454545455" y="706.3636363636364"/>
      <point x="567.4545454545455" y="703.909090909091"/>
      <point x="553.6363636363637" y="699.5454545454545" type="curve"/>
      <point x="494.27272727272725" y="516.0"/>
      <point x="416.99999999999994" y="409.36363636363643"/>
      <point x="282.0909090909091" y="281.8181818181818" type="curve"/>
      <point x="328.00000000000006" y="297.90909090909093" type="line"/>
      <point x="270.3636363636364" y="306.45454545454544" type="line"/>
      <point x="304.0909090909091" y="280.27272727272725" type="line"/>
      <point x="235.45454545454547" y="407.6363636363636"/>
      <point x="228.81818181818178" y="483.27272727272725"/>
      <point x="246.18181818181824" y="655.090909090909" type="curve"/>
      <point x="251.72727272727275" y="694.0"/>
      <point x="229.1818181818182" y="706.3636363636364"/>
      <point x="200.0" y="706.3636363636364" type="curve" smooth="yes"/>
      <point x="183.45454545454547" y="706.3636363636364"/>
      <point x="170.09090909090907" y="704.3636363636364"/>
    </contour>
  </outline>
</glyph>
<glyph name="Z" format="2">
  <advance width="600.0"/>
  <unicode hex="005A"/>
  <outline>
    <contour>
      <point x="479.5454545454546" y="0.0" type="line"/>
      <point x="481.909090909091" y="5.272727272727273"/>
      <point x="484.27272727272737" y="12.000000000000002"/>
      <point x="486.18181818181824" y="19.54545454545454" type="curve" smooth="yes"/>
      <point x="496.18181818181824" y="61.545454545454554"/>
      <point x="489.45454545454555" y="94.36363636363636"/>
      <point x="442.27272727272737" y="94.36363636363636" type="curve"/>
      <point x="258.9090909090909" y="94.36363636363636" type="line"/>
      <point x="220.1818181818182" y="94.36363636363636"/>
      <point x="175.09090909090907" y="89.36363636363637"/>
      <point x="96.45454545454544" y="75.36363636363637" type="curve"/>
      <point x="129.27272727272728" y="57.45454545454545" type="line"/>
      <point x="112.54545454545458" y="113.54545454545455" type="line"/>
      <point x="97.18181818181819" y="72.09090909090908" type="line"/>
      <point x="223.0" y="149.27272727272725"/>
      <point x="326.8181818181818" y="236.00000000000003"/>
      <point x="407.27272727272725" y="315.9090909090909" type="curve" smooth="yes"/>
      <point x="533.2727272727273" y="431.54545454545456"/>
      <point x="617.6363636363636" y="542.4545454545454"/>
      <point x="630.8181818181818" y="598.8181818181819" type="curve"/>
      <point x="632.7272727272726" y="606.909090909091" type="line" smooth="yes"/>
      <point x="643.6363636363635" y="652.2727272727273"/>
      <point x="639.2727272727273" y="700.0"/>
      <point x="576.6363636363635" y="700.0" type="curve"/>
      <point x="220.1818181818182" y="700.0" type="line"/>
      <point x="201.63636363636365" y="668.3636363636363"/>
      <point x="198.45454545454547" y="610.1818181818181"/>
      <point x="238.6363636363637" y="610.1818181818181" type="curve"/>
      <point x="451.18181818181813" y="610.1818181818181" type="line"/>
      <point x="499.9090909090908" y="610.1818181818181"/>
      <point x="527.4545454545455" y="613.090909090909"/>
      <point x="562.0909090909091" y="624.5454545454545" type="curve"/>
      <point x="511.7272727272727" y="635.0909090909091" type="line"/>
      <point x="546.3636363636364" y="596.3636363636364" type="line"/>
      <point x="547.6363636363636" y="641.6363636363636" type="line"/>
      <point x="511.0909090909091" y="563.818181818182"/>
      <point x="460.6363636363637" y="489.72727272727263"/>
      <point x="397.9090909090909" y="419.3636363636364" type="curve" smooth="yes"/>
      <point x="296.4545454545455" y="304.3636363636364"/>
      <point x="162.8181818181818" y="198.45454545454547"/>
      <point x="16.454545454545453" y="104.81818181818184" type="curve"/>
      <point x="13.545454545454545" y="92.54545454545455" type="line" smooth="yes"/>
      <point x="-3.1818181818181825" y="31.90909090909091"/>
      <point x="16.454545454545453" y="0.0"/>
      <point x="56.272727272727266" y="0.0" type="curve" smooth="yes"/>
    </contour>
    <contour>
      <point x="225.0" y="527.2727272727273" type="curve"/>
      <point x="249.27272727272725" y="624.0"/>
      <point x="295.7272727272727" y="680.9090909090909"/>
      <point x="306.99999999999994" y="720.1818181818181" type="curve"/>
      <point x="313.4545454545454" y="743.1818181818181"/>
      <point x="290.6363636363637" y="754.5454545454545"/>
      <point x="230.9090909090909" y="754.5454545454545" type="curve"/>
      <point x="192.36363636363637" y="702.8181818181819"/>
      <point x="160.0" y="643.2727272727273"/>
      <point x="143.72727272727275" y="578.0000000000001" type="curve"/>
      <point x="136.0" y="547.2727272727274"/>
      <point x="150.27272727272728" y="524.5454545454546"/>
      <point x="192.72727272727275" y="524.5454545454546" type="curve" smooth="yes"/>
      <point x="204.81818181818184" y="524.5454545454546"/>
      <point x="216.09090909090912" y="525.4545454545454"/>
    </contour>
  </outline>
</glyph>
<glyph name="bracketleft" format="2">
  <advance width="550.0"/>
  <unicode hex="005B"/>
  <outline>
    <contour>
      <point x="342.5" y="-161.0" type="line"/>
      <point x="348.5" y="-150.5"/>
      <point x="353.5" y="-140.0"/>
      <point x="357.5" y="-124.5" type="curve" smooth="yes"/>
      <point x="369.0" y="-80.5"/>
      <point x="360.0" y="-65.0"/>
      <point x="330.5" y="-65.0" type="curve" smooth="yes"/>
      <point x="167.5" y="-65.0" type="line"/>
      <point x="187.0" y="176.5"/>
      <point x="314.5" y="407.0"/>
      <point x="345.0" y="664.0" type="curve"/>
      <point x="548.0" y="664.0" type="line"/>
      <point x="554.5" y="673.5"/>
      <point x="560.0" y="686.0"/>
      <point x="564.0" y="700.0" type="curve" smooth="yes"/>
      <point x="573.0" y="736.5"/>
      <point x="566.0" y="760.0"/>
      <point x="539.5" y="760.0" type="curve" smooth="yes"/>
      <point x="305.0" y="760.0" type="line" smooth="yes"/>
      <point x="280.5" y="760.0"/>
      <point x="263.5" y="758.5"/>
      <point x="248.5" y="754.5" type="curve"/>
      <point x="248.5" y="720.0"/>
      <point x="246.5" y="688.0"/>
      <point x="240.0" y="645.0" type="curve" smooth="yes"/>
      <point x="202.5" y="395.5"/>
      <point x="87.0" y="183.0"/>
      <point x="59.5" y="-76.0" type="curve" smooth="yes"/>
      <point x="55.5" y="-115.5"/>
      <point x="75.5" y="-161.0"/>
      <point x="107.5" y="-161.0" type="curve" smooth="yes"/>
    </contour>
  </outline>
</glyph>
<glyph name="backslash" format="2">
  <advance width="600.0"/>
  <unicode hex="005C"/>
  <outline>
    <contour>
      <point x="190.39318780771816" y="750.4545454545455" type="curve"/>
      <point x="186.0075380195" y="434.45454545454544"/>
      <point x="225.8971993582818" y="155.54545454545456"/>
      <point x="309.8575947045545" y="-86.72727272727272" type="curve" smooth="yes"/>
      <point x="322.42327499721813" y="-122.63636363636364"/>
      <point x="345.14953444833634" y="-137.1818181818182"/>
      <point x="380.6949889937909" y="-137.1818181818182" type="curve" smooth="yes"/>
      <point x="402.2404435392454" y="-137.1818181818182"/>
      <point x="419.0134367969727" y="-133.36363636363637"/>
      <point x="439.0140954264181" y="-123.9090909090909" type="curve"/>
      <point x="423.9928564030727" y="-102.54545454545455"/>
      <point x="414.40353055619084" y="-79.81818181818181"/>
      <point x="404.1558167605363" y="-47.0" type="curve"/>
      <point x="330.0129699348182" y="186.1818181818182"/>
      <point x="294.82632780340913" y="443.1818181818182"/>
      <point x="296.73206401333636" y="721.2727272727273" type="curve"/>
      <point x="297.05223438596363" y="749.8181818181819"/>
      <point x="273.4166813705273" y="761.4545454545455"/>
      <point x="238.59849955234546" y="761.4545454545455" type="curve" smooth="yes"/>
      <point x="221.2348631887091" y="761.4545454545455"/>
      <point x="207.93917432317275" y="758.0909090909091"/>
    </contour>
  </outline>
</glyph>
<glyph name="bracketright" format="2">
  <advance width="550.0"/>
  <unicode hex="005D"/>
  <outline>
    <contour>
      <point x="225.5" y="760.0" type="line"/>
      <point x="219.5" y="749.5"/>
      <point x="214.5" y="739.0"/>
      <point x="210.5" y="723.5" type="curve" smooth="yes"/>
      <point x="199.0" y="679.5"/>
      <point x="208.0" y="664.0"/>
      <point x="237.5" y="664.0" type="curve" smooth="yes"/>
      <point x="400.5" y="664.0" type="line"/>
      <point x="381.0" y="422.5"/>
      <point x="253.5" y="192.0"/>
      <point x="223.0" y="-65.0" type="curve"/>
      <point x="20.0" y="-65.0" type="line"/>
      <point x="13.5" y="-74.5"/>
      <point x="8.0" y="-87.0"/>
      <point x="4.0" y="-101.0" type="curve" smooth="yes"/>
      <point x="-5.0" y="-137.5"/>
      <point x="2.0" y="-161.0"/>
      <point x="28.5" y="-161.0" type="curve" smooth="yes"/>
      <point x="263.0" y="-161.0" type="line" smooth="yes"/>
      <point x="287.5" y="-161.0"/>
      <point x="304.5" y="-159.5"/>
      <point x="319.5" y="-155.5" type="curve"/>
      <point x="319.5" y="-121.0"/>
      <point x="321.5" y="-89.0"/>
      <point x="328.0" y="-46.0" type="curve" smooth="yes"/>
      <point x="365.5" y="203.5"/>
      <point x="481.0" y="416.0"/>
      <point x="508.5" y="675.0" type="curve" smooth="yes"/>
      <point x="512.5" y="714.5"/>
      <point x="492.5" y="760.0"/>
      <point x="460.5" y="760.0" type="curve" smooth="yes"/>
    </contour>
  </outline>
</glyph>
<glyph name="asciicircum" format="2">
  <advance width="600.0"/>
  <unicode hex="005E"/>
  <outline>
    <contour>
      <point x="394.0" y="760.0" type="curve"/>
      <point x="305.5" y="696.5"/>
      <point x="206.5" y="598.0"/>
      <point x="130.5" y="478.5" type="curve" smooth="yes"/>
      <point x="107.5" y="441.5"/>
      <point x="96.0" y="418.5"/>
      <point x="92.5" y="402.5" type="curve" smooth="yes"/>
      <point x="88.0" y="379.5"/>
      <point x="102.5" y="365.5"/>
      <point x="142.5" y="365.5" type="curve" smooth="yes"/>
      <point x="178.5" y="365.5" type="line"/>
      <point x="241.0" y="493.0"/>
      <point x="299.5" y="569.0"/>
      <point x="419.5" y="678.0" type="curve"/>
      <point x="366.0" y="659.0" type="line"/>
      <point x="432.0" y="659.0" type="line" smooth="yes"/>
      <point x="387.0" y="677.5" type="line"/>
      <point x="444.5" y="590.5"/>
      <point x="464.0" y="525.0"/>
      <point x="468.5" y="410.5" type="curve" smooth="yes"/>
      <point x="472.0" y="378.0"/>
      <point x="488.5" y="367.0"/>
      <point x="527.0" y="367.0" type="curve" smooth="yes"/>
      <point x="545.0" y="367.0"/>
      <point x="556.5" y="370.0"/>
      <point x="569.0" y="376.0" type="curve"/>
      <point x="565.0" y="538.0"/>
      <point x="529.5" y="638.0"/>
      <point x="475.0" y="726.5" type="curve" smooth="yes"/>
      <point x="459.5" y="752.5"/>
      <point x="445.5" y="760.0"/>
      <point x="426.0" y="760.0" type="curve" smooth="yes"/>
      <point x="415.5" y="760.0"/>
      <point x="404.5" y="760.0"/>
    </contour>
  </outline>
</glyph>
<glyph name="underscore" format="2">
  <advance width="600.0"/>
  <unicode hex="005F"/>
  <outline>
    <contour>
      <point x="-31.636363636363633" y="-77.27272727272727" type="line"/>
      <point x="-34.18181818181817" y="-84.72727272727272"/>
      <point x="-36.18181818181818" y="-90.63636363636364"/>
      <point x="-38.18181818181817" y="-97.54545454545455" type="curve" smooth="yes"/>
      <point x="-52.81818181818181" y="-151.63636363636363"/>
      <point x="-42.454545454545446" y="-172.72727272727272"/>
      <point x="4.090909090909099" y="-172.72727272727272" type="curve" smooth="yes"/>
      <point x="432.36363636363643" y="-172.72727272727272" type="line"/>
      <point x="437.90909090909093" y="-162.90909090909093"/>
      <point x="442.0909090909092" y="-152.09090909090907"/>
      <point x="445.81818181818187" y="-138.63636363636363" type="curve" smooth="yes"/>
      <point x="457.4545454545455" y="-98.63636363636363"/>
      <point x="444.7272727272728" y="-77.27272727272727"/>
      <point x="409.6363636363637" y="-77.27272727272727" type="curve" smooth="yes"/>
    </contour>
  </outline>
</glyph>
<glyph name="grave" format="2">
  <advance width="600.0"/>
  <unicode hex="0060"/>
  <outline>
    <contour>
      <point x="384.0" y="746.0909090909091" type="curve"/>
      <point x="357.27272727272725" y="749.8181818181818"/>
      <point x="338.2727272727272" y="749.5454545454545"/>
      <point x="318.27272727272725" y="747.2727272727273" type="curve" smooth="yes"/>
      <point x="288.45454545454544" y="744.5454545454545"/>
      <point x="269.9090909090908" y="733.3636363636364"/>
      <point x="265.7272727272727" y="705.0" type="curve" smooth="yes"/>
      <point x="256.8181818181818" y="633.4545454545455"/>
      <point x="285.3636363636364" y="518.2727272727273"/>
      <point x="322.4545454545455" y="466.27272727272725" type="curve" smooth="yes"/>
      <point x="335.72727272727275" y="448.90909090909093"/>
      <point x="349.0909090909091" y="439.72727272727275"/>
      <point x="372.3636363636364" y="439.72727272727275" type="curve" smooth="yes"/>
      <point x="393.36363636363643" y="439.72727272727275"/>
      <point x="407.8181818181818" y="445.4545454545455"/>
      <point x="425.09090909090907" y="457.0909090909091" type="curve"/>
      <point x="390.90909090909093" y="547.6363636363636"/>
      <point x="375.90909090909093" y="633.8181818181818"/>
    </contour>
  </outline>
</glyph>
<glyph name="a" format="2">
  <advance width="600.0"/>
  <unicode hex="0061"/>
  <outline>
    <contour>
      <point x="319.9090909090909" y="543.2727272727273" type="curve" smooth="yes"/>
      <point x="208.9090909090909" y="543.2727272727273"/>
      <point x="107.63636363636364" y="459.8181818181818"/>
      <point x="54.36363636363636" y="246.81818181818184" type="curve" smooth="yes"/>
      <point x="48.99999999999999" y="225.3636363636364" type="line" smooth="yes"/>
      <point x="20.18181818181818" y="111.81818181818181"/>
      <point x="60.545454545454525" y="-10.90909090909091"/>
      <point x="167.54545454545456" y="-10.90909090909091" type="curve" smooth="yes"/>
      <point x="235.45454545454544" y="-10.90909090909091"/>
      <point x="307.09090909090907" y="55.99999999999999"/>
      <point x="359.72727272727275" y="145.09090909090907" type="curve"/>
      <point x="382.3636363636364" y="145.09090909090907" type="line"/>
      <point x="424.45454545454544" y="300.4545454545454" type="line"/>
      <point x="328.63636363636357" y="142.45454545454547"/>
      <point x="263.7272727272727" y="86.18181818181819"/>
      <point x="189.0" y="86.18181818181819" type="curve" smooth="yes"/>
      <point x="164.45454545454544" y="86.18181818181819"/>
      <point x="147.0" y="96.45454545454544"/>
      <point x="134.45454545454547" y="112.72727272727273" type="curve" smooth="yes"/>
      <point x="131.00000000000003" y="149.72727272727272"/>
      <point x="135.99999999999997" y="188.9090909090909"/>
      <point x="148.18181818181816" y="233.72727272727275" type="curve" smooth="yes"/>
      <point x="152.63636363636363" y="250.09090909090907" type="line" smooth="yes"/>
      <point x="189.45454545454544" y="385.2727272727273"/>
      <point x="250.54545454545456" y="453.90909090909093"/>
      <point x="327.8181818181818" y="453.90909090909093" type="curve" smooth="yes"/>
      <point x="386.0909090909091" y="453.90909090909093"/>
      <point x="419.1818181818182" y="426.3636363636363"/>
      <point x="443.27272727272725" y="373.6363636363636" type="curve"/>
      <point x="463.3636363636363" y="452.1818181818182" type="line"/>
      <point x="441.54545454545456" y="452.1818181818182" type="line"/>
      <point x="419.5454545454545" y="502.0"/>
      <point x="380.8181818181818" y="543.2727272727273"/>
    </contour>
    <contour>
      <point x="453.8181818181818" y="533.4545454545455" type="curve"/>
      <point x="454.9090909090909" y="510.27272727272725"/>
      <point x="451.72727272727275" y="477.3636363636364"/>
      <point x="444.72727272727275" y="437.72727272727275" type="curve" smooth="yes"/>
      <point x="422.45454545454544" y="318.3636363636363"/>
      <point x="379.9090909090909" y="232.8181818181818"/>
      <point x="363.3636363636363" y="130.90909090909093" type="curve" smooth="yes"/>
      <point x="348.18181818181813" y="44.90909090909091"/>
      <point x="385.27272727272737" y="-8.90909090909091"/>
      <point x="438.90909090909093" y="-8.90909090909091" type="curve" smooth="yes"/>
      <point x="469.8181818181818" y="-8.90909090909091"/>
      <point x="491.8181818181818" y="1.9090909090909092"/>
      <point x="512.0000000000001" y="23.0" type="curve" smooth="yes"/>
      <point x="526.7272727272727" y="38.63636363636364"/>
      <point x="539.0000000000001" y="65.18181818181819"/>
      <point x="546.8181818181819" y="95.18181818181819" type="curve" smooth="yes"/>
      <point x="552.0000000000001" y="114.27272727272728"/>
      <point x="553.909090909091" y="127.45454545454547"/>
      <point x="554.8181818181819" y="140.27272727272728" type="curve"/>
      <point x="548.8181818181818" y="140.27272727272728" type="line"/>
      <point x="529.3636363636364" y="106.90909090909092"/>
      <point x="498.7272727272727" y="82.81818181818183"/>
      <point x="475.18181818181824" y="82.81818181818183" type="curve" smooth="yes"/>
      <point x="464.00000000000006" y="82.81818181818183"/>
      <point x="455.9090909090909" y="85.45454545454547"/>
      <point x="448.90909090909093" y="93.81818181818183" type="curve" smooth="yes"/>
      <point x="465.54545454545456" y="203.54545454545456"/>
      <point x="514.1818181818182" y="298.18181818181813"/>
      <point x="535.0909090909092" y="413.72727272727275" type="curve" smooth="yes"/>
      <point x="554.909090909091" y="506.5454545454546"/>
      <point x="533.1818181818182" y="538.7272727272727"/>
      <point x="487.00000000000006" y="538.7272727272727" type="curve" smooth="yes"/>
      <point x="474.18181818181813" y="538.7272727272727"/>
      <point x="464.1818181818182" y="537.2727272727273"/>
    </contour>
  </outline>
</glyph>
<glyph name="b" format="2">
  <advance width="600.0"/>
  <unicode hex="0062"/>
  <outline>
    <contour>
      <point x="118.63636363636364" y="-1.0909090909090908" type="curve" smooth="yes"/>
      <point x="121.18181818181819" y="43.27272727272727"/>
      <point x="127.27272727272727" y="85.72727272727272"/>
      <point x="135.8181818181818" y="127.27272727272728" type="curve"/>
      <point x="171.27272727272728" y="295.45454545454544"/>
      <point x="247.45454545454547" y="440.81818181818176"/>
      <point x="283.54545454545456" y="627.5454545454546" type="curve"/>
      <point x="303.90909090909093" y="723.090909090909"/>
      <point x="273.7272727272727" y="756.9090909090909"/>
      <point x="228.72727272727272" y="756.9090909090909" type="curve"/>
      <point x="213.72727272727272" y="756.9090909090909"/>
      <point x="201.72727272727275" y="755.4545454545455"/>
      <point x="188.09090909090907" y="750.0" type="curve"/>
      <point x="198.45454545454547" y="725.1818181818182"/>
      <point x="196.0" y="694.4545454545455"/>
      <point x="189.54545454545453" y="655.3636363636365" type="curve"/>
      <point x="155.36363636363635" y="451.3636363636364"/>
      <point x="69.36363636363636" y="297.45454545454544"/>
      <point x="33.72727272727272" y="95.0" type="curve" smooth="yes"/>
      <point x="22.909090909090903" y="38.63636363636364"/>
      <point x="48.45454545454545" y="-4.090909090909091"/>
      <point x="98.18181818181819" y="-4.090909090909091" type="curve" smooth="yes"/>
      <point x="105.0" y="-4.090909090909091"/>
      <point x="112.27272727272728" y="-3.090909090909091"/>
    </contour>
    <contour>
      <point x="111.27272727272728" y="74.99999999999999" type="line"/>
      <point x="133.36363636363637" y="79.36363636363635" type="line"/>
      <point x="155.27272727272725" y="38.54545454545455"/>
      <point x="202.0" y="-10.90909090909091"/>
      <point x="268.0909090909091" y="-10.90909090909091" type="curve" smooth="yes"/>
      <point x="394.45454545454544" y="-10.90909090909091"/>
      <point x="488.6363636363637" y="75.09090909090908"/>
      <point x="546.3636363636365" y="302.3636363636363" type="curve" smooth="yes"/>
      <point x="552.2727272727274" y="325.54545454545456" type="line" smooth="yes"/>
      <point x="583.3636363636365" y="447.0909090909091"/>
      <point x="538.4545454545455" y="543.2727272727273"/>
      <point x="443.54545454545456" y="543.2727272727273" type="curve" smooth="yes"/>
      <point x="368.54545454545456" y="543.2727272727273"/>
      <point x="286.6363636363637" y="482.90909090909093"/>
      <point x="225.1818181818182" y="397.09090909090907" type="curve"/>
      <point x="202.9090909090909" y="407.09090909090907" type="line"/>
      <point x="146.54545454545456" y="219.36363636363637" type="line"/>
      <point x="250.54545454545453" y="383.2727272727273"/>
      <point x="335.3636363636364" y="446.1818181818182"/>
      <point x="415.3636363636364" y="446.1818181818182" type="curve" smooth="yes"/>
      <point x="438.27272727272725" y="446.1818181818182"/>
      <point x="456.27272727272725" y="437.5454545454545"/>
      <point x="466.1818181818182" y="417.45454545454544" type="curve" smooth="yes"/>
      <point x="467.1818181818182" y="382.8181818181818"/>
      <point x="461.72727272727275" y="350.6363636363636"/>
      <point x="450.8181818181818" y="311.6363636363636" type="curve" smooth="yes"/>
      <point x="446.8181818181818" y="296.09090909090907" type="line" smooth="yes"/>
      <point x="407.90909090909093" y="154.27272727272728"/>
      <point x="349.90909090909093" y="78.45454545454545"/>
      <point x="256.27272727272725" y="78.45454545454545" type="curve" smooth="yes"/>
      <point x="194.18181818181822" y="78.45454545454545"/>
      <point x="160.36363636363637" y="101.72727272727273"/>
      <point x="132.45454545454547" y="158.8181818181818" type="curve"/>
    </contour>
  </outline>
</glyph>
<glyph name="c" format="2">
  <advance width="500.0"/>
  <unicode hex="0063"/>
  <outline>
    <contour>
      <point x="371.5" y="544.0" type="curve" smooth="yes"/>
      <point x="225.5" y="544.0"/>
      <point x="108.0" y="453.5"/>
      <point x="59.0" y="263.0" type="curve" smooth="yes"/>
      <point x="54.5" y="245.5" type="line" smooth="yes"/>
      <point x="10.346461452550002" y="72.92127778265001"/>
      <point x="96.99803152655" y="-11.0"/>
      <point x="230.5" y="-11.0" type="curve" smooth="yes"/>
      <point x="301.5" y="-11.0"/>
      <point x="346.0" y="3.5"/>
      <point x="372.5" y="25.0" type="curve" smooth="yes"/>
      <point x="394.0" y="42.5"/>
      <point x="404.0" y="59.0"/>
      <point x="414.0" y="99.5" type="curve" smooth="yes"/>
      <point x="417.5" y="114.5"/>
      <point x="419.0" y="131.5"/>
      <point x="419.0" y="143.5" type="curve"/>
      <point x="413.0" y="143.5" type="line"/>
      <point x="362.5" y="105.5"/>
      <point x="317.5" y="86.5"/>
      <point x="252.5" y="86.5" type="curve" smooth="yes"/>
      <point x="215.5" y="86.5"/>
      <point x="188.5" y="92.0"/>
      <point x="162.0" y="107.0" type="curve" smooth="yes"/>
      <point x="143.0" y="138.5"/>
      <point x="139.5" y="182.0"/>
      <point x="151.0" y="228.5" type="curve" smooth="yes"/>
      <point x="154.5" y="242.5" type="line" smooth="yes"/>
      <point x="184.5" y="362.5"/>
      <point x="255.0" y="442.0"/>
      <point x="353.5" y="442.0" type="curve" smooth="yes"/>
      <point x="408.0" y="442.0"/>
      <point x="438.5" y="431.0"/>
      <point x="468.0" y="399.0" type="curve"/>
      <point x="474.0" y="399.0" type="line"/>
      <point x="485.5" y="414.0"/>
      <point x="491.0" y="426.5"/>
      <point x="496.5" y="448.5" type="curve"/>
      <point x="503.5" y="477.5"/>
      <point x="501.0" y="490.5"/>
      <point x="491.0" y="504.0" type="curve" smooth="yes"/>
      <point x="476.0" y="524.5"/>
      <point x="437.0" y="544.0"/>
    </contour>
  </outline>
</glyph>
<glyph name="d" format="2">
  <advance width="600.0"/>
  <unicode hex="0064"/>
  <outline>
    <contour>
      <point x="320.3636363636363" y="543.2727272727273" type="curve" smooth="yes"/>
      <point x="203.45454545454544" y="543.2727272727273"/>
      <point x="110.45454545454547" y="468.09090909090907"/>
      <point x="53.45454545454545" y="244.09090909090912" type="curve" smooth="yes"/>
      <point x="48.090909090909086" y="223.09090909090912" type="line" smooth="yes"/>
      <point x="17.454545454545453" y="100.0909090909091"/>
      <point x="64.0" y="-10.90909090909091"/>
      <point x="166.63636363636363" y="-10.90909090909091" type="curve" smooth="yes"/>
      <point x="239.36363636363635" y="-10.90909090909091"/>
      <point x="305.8181818181818" y="54.0"/>
      <point x="358.5454545454546" y="142.81818181818178" type="curve"/>
      <point x="388.45454545454544" y="142.81818181818178" type="line"/>
      <point x="420.7272727272727" y="294.99999999999994" type="line"/>
      <point x="325.45454545454544" y="142.54545454545456"/>
      <point x="267.7272727272727" y="86.18181818181819"/>
      <point x="194.8181818181818" y="86.18181818181819" type="curve" smooth="yes"/>
      <point x="167.99999999999997" y="86.18181818181819"/>
      <point x="147.8181818181818" y="98.54545454545453"/>
      <point x="133.0909090909091" y="119.00000000000001" type="curve" smooth="yes"/>
      <point x="130.09090909090912" y="154.36363636363635"/>
      <point x="136.90909090909088" y="195.0909090909091"/>
      <point x="146.8181818181818" y="230.54545454545456" type="curve" smooth="yes"/>
      <point x="151.27272727272725" y="246.45454545454544" type="line" smooth="yes"/>
      <point x="189.9090909090909" y="387.3636363636364"/>
      <point x="249.00000000000003" y="453.9090909090909"/>
      <point x="338.27272727272725" y="453.9090909090909" type="curve" smooth="yes"/>
      <point x="392.18181818181824" y="453.9090909090909"/>
      <point x="429.0" y="430.18181818181813"/>
      <point x="453.09090909090907" y="384.54545454545456" type="curve"/>
      <point x="481.5454545454545" y="460.54545454545456" type="line"/>
      <point x="453.3636363636364" y="460.54545454545456" type="line"/>
      <point x="430.90909090909093" y="500.72727272727275"/>
      <point x="385.90909090909093" y="543.2727272727273"/>
    </contour>
    <contour>
      <point x="510.6363636363636" y="750.0000000000001" type="curve"/>
      <point x="521.0" y="725.1818181818182"/>
      <point x="519.5454545454546" y="696.0909090909092"/>
      <point x="512.0909090909091" y="655.3636363636364" type="curve" smooth="yes"/>
      <point x="475.45454545454544" y="467.27272727272725"/>
      <point x="398.9090909090909" y="326.1818181818182"/>
      <point x="364.0" y="133.0909090909091" type="curve" smooth="yes"/>
      <point x="348.3636363636363" y="45.090909090909086"/>
      <point x="386.0909090909091" y="-8.90909090909091"/>
      <point x="440.54545454545456" y="-8.90909090909091" type="curve" smooth="yes"/>
      <point x="468.9090909090909" y="-8.90909090909091"/>
      <point x="492.2727272727273" y="0.5454545454545454"/>
      <point x="510.90909090909093" y="21.90909090909091" type="curve" smooth="yes"/>
      <point x="526.7272727272727" y="39.54545454545455"/>
      <point x="538.5454545454546" y="60.63636363636364"/>
      <point x="546.8181818181819" y="90.63636363636364" type="curve"/>
      <point x="552.909090909091" y="112.9090909090909"/>
      <point x="554.3636363636365" y="126.0909090909091"/>
      <point x="554.8181818181819" y="140.27272727272728" type="curve"/>
      <point x="548.8181818181819" y="140.27272727272728" type="line"/>
      <point x="530.9090909090909" y="110.1818181818182"/>
      <point x="500.54545454545456" y="82.36363636363637"/>
      <point x="476.54545454545456" y="82.36363636363637" type="curve" smooth="yes"/>
      <point x="470.6363636363637" y="82.36363636363637"/>
      <point x="464.9090909090909" y="83.45454545454547"/>
      <point x="460.7272727272727" y="87.72727272727272" type="curve" smooth="yes"/>
      <point x="459.09090909090907" y="108.81818181818181"/>
      <point x="460.1818181818182" y="129.1818181818182"/>
      <point x="464.8181818181818" y="153.0" type="curve" smooth="yes"/>
      <point x="492.4545454545455" y="309.6363636363636"/>
      <point x="571.6363636363637" y="454.54545454545456"/>
      <point x="605.7272727272727" y="633.0000000000001" type="curve" smooth="yes"/>
      <point x="626.0909090909091" y="725.2727272727273"/>
      <point x="596.2727272727274" y="756.909090909091"/>
      <point x="551.2727272727274" y="756.909090909091" type="curve" smooth="yes"/>
      <point x="536.2727272727273" y="756.909090909091"/>
      <point x="524.2727272727273" y="755.4545454545455"/>
    </contour>
  </outline>
</glyph>
<glyph name="e" format="2">
  <advance width="600.0"/>
  <unicode hex="0065"/>
  <outline>
    <contour>
      <point x="379.1818181818182" y="543.2727272727273" type="curve" smooth="yes"/>
      <point x="244.45454545454544" y="543.2727272727273"/>
      <point x="119.36363636363636" y="461.90909090909093"/>
      <point x="74.0" y="285.8181818181818" type="curve" smooth="yes"/>
      <point x="70.45454545454545" y="272.09090909090907" type="line" smooth="yes"/>
      <point x="27.727272727272723" y="110.09090909090911"/>
      <point x="118.18181818181819" y="-10.90909090909091"/>
      <point x="285.7272727272728" y="-10.90909090909091" type="curve" smooth="yes"/>
      <point x="387.1818181818182" y="-10.90909090909091"/>
      <point x="435.8181818181818" y="5.636363636363637"/>
      <point x="474.54545454545456" y="39.36363636363636" type="curve" smooth="yes"/>
      <point x="495.0" y="57.090909090909086"/>
      <point x="506.8181818181818" y="76.0"/>
      <point x="515.3636363636364" y="109.81818181818181" type="curve" smooth="yes"/>
      <point x="518.2727272727273" y="122.54545454545455"/>
      <point x="520.1818181818181" y="135.36363636363635"/>
      <point x="520.0909090909091" y="151.72727272727275" type="curve"/>
      <point x="514.0909090909091" y="151.72727272727275" type="line"/>
      <point x="447.09090909090907" y="100.90909090909092"/>
      <point x="392.0" y="75.36363636363636"/>
      <point x="289.45454545454544" y="75.36363636363636" type="curve" smooth="yes"/>
      <point x="244.36363636363635" y="75.36363636363636"/>
      <point x="209.9090909090909" y="81.63636363636364"/>
      <point x="174.36363636363637" y="98.09090909090908" type="curve" smooth="yes"/>
      <point x="150.63636363636365" y="134.2727272727273"/>
      <point x="145.1818181818182" y="186.72727272727272"/>
      <point x="159.00000000000003" y="239.18181818181816" type="curve" smooth="yes"/>
      <point x="162.09090909090912" y="251.00000000000003" type="line" smooth="yes"/>
      <point x="198.0" y="388.72727272727275"/>
      <point x="286.27272727272725" y="457.0909090909091"/>
      <point x="379.6363636363637" y="457.0909090909091" type="curve" smooth="yes"/>
      <point x="408.18181818181824" y="457.0909090909091"/>
      <point x="429.45454545454544" y="452.3636363636364"/>
      <point x="451.9090909090909" y="443.9090909090909" type="curve" smooth="yes"/>
      <point x="464.4545454545455" y="425.3636363636363"/>
      <point x="469.0" y="399.9090909090909"/>
      <point x="459.0909090909091" y="360.4545454545455" type="curve" smooth="yes"/>
      <point x="444.45454545454544" y="303.3636363636364"/>
      <point x="389.27272727272725" y="265.6363636363637"/>
      <point x="267.54545454545456" y="265.6363636363637" type="curve" smooth="yes"/>
      <point x="215.36363636363637" y="265.6363636363637"/>
      <point x="181.81818181818184" y="272.54545454545456"/>
      <point x="150.45454545454544" y="288.6363636363637" type="curve"/>
      <point x="131.72727272727272" y="231.7272727272727" type="line"/>
      <point x="162.8181818181818" y="231.72727272727275" type="line"/>
      <point x="185.27272727272728" y="215.0909090909091"/>
      <point x="235.45454545454547" y="202.27272727272728"/>
      <point x="298.72727272727275" y="202.27272727272728" type="curve" smooth="yes"/>
      <point x="438.4545454545455" y="202.27272727272728"/>
      <point x="528.4545454545454" y="252.63636363636365"/>
      <point x="552.2727272727273" y="346.4545454545455" type="curve"/>
      <point x="554.2727272727273" y="354.45454545454544" type="line" smooth="yes"/>
      <point x="575.2727272727273" y="440.45454545454544"/>
      <point x="513.9090909090909" y="543.2727272727273"/>
    </contour>
  </outline>
</glyph>
<glyph name="f" format="2">
  <advance width="400.0"/>
  <unicode hex="0066"/>
  <outline>
    <contour>
      <point x="109.18181818181817" y="518.7272727272727" type="line"/>
      <point x="104.09090909090908" y="512.5454545454546"/>
      <point x="101.27272727272728" y="506.27272727272725"/>
      <point x="98.45454545454545" y="496.90909090909093" type="curve" smooth="yes"/>
      <point x="88.52887839556364" y="459.9336954003273"/>
      <point x="106.27272727272727" y="427.8181818181818"/>
      <point x="157.63636363636365" y="427.8181818181818" type="curve"/>
      <point x="405.00000000000006" y="427.8181818181818" type="line"/>
      <point x="409.1818181818182" y="436.7272727272727"/>
      <point x="413.3636363636364" y="448.45454545454544"/>
      <point x="416.1818181818182" y="459.6363636363636" type="curve" smooth="yes"/>
      <point x="424.36363636363643" y="495.2727272727272"/>
      <point x="414.8181818181818" y="518.7272727272727"/>
      <point x="376.8181818181818" y="518.7272727272727" type="curve"/>
    </contour>
    <contour>
      <point x="190.0" y="72.36363636363636" type="curve" smooth="yes"/>
      <point x="226.27272727272728" y="192.18181818181822"/>
      <point x="252.54545454545453" y="339.0909090909091"/>
      <point x="294.7272727272727" y="511.6363636363636" type="curve" smooth="yes"/>
      <point x="311.54545454545456" y="575.9090909090908"/>
      <point x="322.54781290429094" y="618.7562789288545"/>
      <point x="346.27272727272725" y="652.6363636363637" type="curve" smooth="yes"/>
      <point x="372.6363636363636" y="667.3636363636363"/>
      <point x="394.6363636363636" y="672.090909090909"/>
      <point x="429.0" y="672.090909090909" type="curve" smooth="yes"/>
      <point x="457.6363636363636" y="672.090909090909"/>
      <point x="484.18181818181824" y="665.7272727272727"/>
      <point x="500.909090909091" y="654.0" type="curve"/>
      <point x="505.81818181818187" y="654.0" type="line"/>
      <point x="513.4545454545455" y="664.4545454545455"/>
      <point x="519.6363636363635" y="678.0909090909091"/>
      <point x="523.0" y="691.3636363636364" type="curve" smooth="yes"/>
      <point x="528.8181818181818" y="715.2727272727274"/>
      <point x="528.0000000000001" y="734.1818181818181"/>
      <point x="517.9090909090909" y="744.2727272727273" type="curve" smooth="yes"/>
      <point x="508.0" y="754.7272727272727"/>
      <point x="485.9090909090909" y="763.4545454545454"/>
      <point x="447.36363636363643" y="763.4545454545454" type="curve" smooth="yes"/>
      <point x="342.1818181818182" y="763.4545454545454"/>
      <point x="252.4545454545454" y="705.0"/>
      <point x="216.18181818181822" y="570.6363636363636" type="curve" smooth="yes"/>
      <point x="170.72727272727272" y="398.54545454545456"/>
      <point x="148.54545454545456" y="272.2727272727273"/>
      <point x="100.36363636363637" y="108.0" type="curve" smooth="yes"/>
      <point x="83.90909090909092" y="55.09090909090909"/>
      <point x="65.90909090909089" y="29.09090909090909"/>
      <point x="42.63636363636365" y="0.0" type="curve"/>
      <point x="55.090909090909086" y="-8.181818181818182"/>
      <point x="67.36363636363636" y="-11.545454545454545"/>
      <point x="87.81818181818181" y="-11.545454545454545" type="curve" smooth="yes"/>
      <point x="138.2727272727273" y="-11.545454545454545"/>
      <point x="170.27272727272728" y="12.0"/>
    </contour>
  </outline>
</glyph>
<glyph name="g" format="2">
  <advance width="600.0"/>
  <unicode hex="0067"/>
  <outline>
    <contour>
      <point x="319.9090909090909" y="543.2727272727273" type="curve" smooth="yes"/>
      <point x="209.8181818181818" y="543.2727272727273"/>
      <point x="107.63636363636363" y="464.8181818181818"/>
      <point x="56.636363636363626" y="260.4545454545455" type="curve" smooth="yes"/>
      <point x="51.272727272727266" y="239.00000000000003" type="line" smooth="yes"/>
      <point x="24.636363636363633" y="133.0909090909091"/>
      <point x="62.818181818181806" y="23.63636363636364"/>
      <point x="173.0909090909091" y="23.63636363636364" type="curve" smooth="yes"/>
      <point x="251.1818181818182" y="23.63636363636364"/>
      <point x="337.1818181818182" y="86.36363636363636"/>
      <point x="391.6363636363636" y="173.63636363636363" type="curve"/>
      <point x="422.54545454545456" y="173.63636363636363" type="line"/>
      <point x="456.27272727272725" y="326.3636363636364" type="line"/>
      <point x="358.3636363636363" y="164.18181818181816"/>
      <point x="274.45454545454544" y="123.0"/>
      <point x="192.90909090909088" y="123.0" type="curve" smooth="yes"/>
      <point x="167.81818181818178" y="123.0"/>
      <point x="150.27272727272728" y="130.63636363636365"/>
      <point x="137.1818181818182" y="143.63636363636363" type="curve" smooth="yes"/>
      <point x="134.72727272727275" y="176.0"/>
      <point x="139.1818181818182" y="205.8181818181818"/>
      <point x="150.45454545454547" y="247.36363636363635" type="curve" smooth="yes"/>
      <point x="154.9090909090909" y="263.72727272727275" type="line" smooth="yes"/>
      <point x="189.45454545454547" y="391.1818181818182"/>
      <point x="251.90909090909093" y="453.90909090909093"/>
      <point x="327.81818181818176" y="453.90909090909093" type="curve" smooth="yes"/>
      <point x="395.54545454545456" y="453.90909090909093"/>
      <point x="439.9090909090909" y="431.1818181818182"/>
      <point x="466.6363636363636" y="378.0" type="curve"/>
      <point x="489.6363636363636" y="454.909090909091" type="line"/>
      <point x="463.9090909090909" y="454.909090909091" type="line"/>
      <point x="437.63636363636357" y="505.2727272727273"/>
      <point x="390.27272727272725" y="543.2727272727273"/>
    </contour>
    <contour>
      <point x="501.27272727272725" y="535.0909090909091" type="curve"/>
      <point x="484.45454545454544" y="496.6363636363637"/>
      <point x="470.4545454545455" y="457.1818181818182"/>
      <point x="459.00000000000006" y="421.09090909090907" type="curve" smooth="yes"/>
      <point x="414.8181818181818" y="276.2727272727273"/>
      <point x="398.5454545454546" y="148.27272727272728"/>
      <point x="357.6363636363637" y="34.90909090909091" type="curve" smooth="yes"/>
      <point x="338.90909090909093" y="-17.272727272727273"/>
      <point x="321.18181818181813" y="-52.36363636363635"/>
      <point x="297.9090909090909" y="-84.09090909090911" type="curve" smooth="yes"/>
      <point x="260.81818181818187" y="-107.90909090909089"/>
      <point x="219.4545454545454" y="-117.90909090909092"/>
      <point x="169.72727272727272" y="-117.90909090909092" type="curve" smooth="yes"/>
      <point x="102.36363636363636" y="-117.90909090909092"/>
      <point x="61.9090909090909" y="-106.99999999999999"/>
      <point x="24.636363636363633" y="-81.8181818181818" type="curve"/>
      <point x="18.63636363636363" y="-81.8181818181818" type="line"/>
      <point x="13.181818181818175" y="-89.99999999999999"/>
      <point x="9.181818181818175" y="-99.27272727272727"/>
      <point x="6.272727272727266" y="-110.54545454545455" type="curve" smooth="yes"/>
      <point x="0.09090909090908283" y="-135.90909090909088"/>
      <point x="2.181818181818174" y="-156.27272727272728"/>
      <point x="12.181818181818176" y="-170.0909090909091" type="curve" smooth="yes"/>
      <point x="27.181818181818176" y="-190.54545454545456"/>
      <point x="66.72727272727272" y="-210.0"/>
      <point x="137.00000000000003" y="-210.0" type="curve" smooth="yes"/>
      <point x="291.0909090909091" y="-210.0"/>
      <point x="389.90909090909093" y="-142.54545454545456"/>
      <point x="443.6363636363636" y="-2.2727272727272716" type="curve" smooth="yes"/>
      <point x="496.0909090909091" y="134.27272727272728"/>
      <point x="508.54545454545456" y="298.00000000000006"/>
      <point x="572.9090909090909" y="459.45454545454544" type="curve" smooth="yes"/>
      <point x="590.7272727272726" y="505.00000000000006"/>
      <point x="562.8181818181819" y="538.5454545454546"/>
      <point x="524.5454545454545" y="538.5454545454546" type="curve" smooth="yes"/>
      <point x="515.9090909090909" y="538.5454545454546"/>
      <point x="508.1818181818181" y="537.0909090909091"/>
    </contour>
  </outline>
</glyph>
<glyph name="h" format="2">
  <advance width="600.0"/>
  <unicode hex="0068"/>
  <outline>
    <contour>
      <point x="100.5" y="-4.0" type="curve" smooth="yes"/>
      <point x="107.5" y="-4.0"/>
      <point x="115.0" y="-3.0"/>
      <point x="121.5" y="-1.0" type="curve"/>
      <point x="133.0" y="222.0"/>
      <point x="244.5" y="400.5"/>
      <point x="289.5" y="628.5" type="curve"/>
      <point x="311.0" y="724.5"/>
      <point x="278.0" y="757.0"/>
      <point x="229.5" y="757.0" type="curve" smooth="yes"/>
      <point x="214.0" y="757.0"/>
      <point x="201.5" y="755.5"/>
      <point x="187.5" y="750.0" type="curve"/>
      <point x="198.0" y="725.0"/>
      <point x="196.0" y="695.0"/>
      <point x="189.0" y="655.0" type="curve" smooth="yes"/>
      <point x="154.5" y="452.5"/>
      <point x="67.0" y="302.0"/>
      <point x="30.5" y="100.0" type="curve" smooth="yes"/>
      <point x="19.0" y="41.5"/>
      <point x="46.5" y="-4.0"/>
    </contour>
    <contour>
      <point x="145.5" y="188.5" type="line"/>
      <point x="221.0" y="322.5"/>
      <point x="331.5" y="438.0"/>
      <point x="410.0" y="438.0" type="curve" smooth="yes"/>
      <point x="442.5" y="438.0"/>
      <point x="459.0" y="422.0"/>
      <point x="465.5" y="388.0" type="curve" smooth="yes"/>
      <point x="420.5" y="284.0"/>
      <point x="383.0" y="200.0"/>
      <point x="368.0" y="126.0" type="curve" smooth="yes"/>
      <point x="350.5" y="42.5"/>
      <point x="370.5" y="-7.0"/>
      <point x="428.0" y="-7.0" type="curve"/>
      <point x="446.0" y="-7.0"/>
      <point x="463.5" y="-4.5"/>
      <point x="475.0" y="0.0" type="curve"/>
      <point x="466.0" y="44.0"/>
      <point x="469.0" y="87.0"/>
      <point x="480.5" y="139.5" type="curve" smooth="yes"/>
      <point x="497.5" y="226.0"/>
      <point x="534.5" y="299.5"/>
      <point x="552.0" y="381.0" type="curve" smooth="yes"/>
      <point x="567.0" y="451.0"/>
      <point x="533.5" y="543.0"/>
      <point x="451.0" y="543.0" type="curve" smooth="yes"/>
      <point x="373.5" y="543.0"/>
      <point x="277.5" y="452.5"/>
      <point x="217.0" y="358.0" type="curve"/>
      <point x="184.5" y="367.5" type="line"/>
    </contour>
  </outline>
</glyph>
<glyph name="i" format="2">
  <advance width="350.0"/>
  <unicode hex="0069"/>
  <outline>
    <contour>
      <point x="102.90909090909092" y="531.8181818181819" type="curve"/>
      <point x="95.27272727272727" y="518.5454545454546"/>
      <point x="91.45454545454545" y="508.6363636363637"/>
      <point x="88.09090909090908" y="495.6363636363637" type="curve" smooth="yes"/>
      <point x="78.18181818181817" y="453.09090909090907"/>
      <point x="88.72727272727273" y="432.2727272727273"/>
      <point x="107.36363636363636" y="432.2727272727273" type="curve" smooth="yes"/>
      <point x="124.8576868158" y="432.2727272727273"/>
      <point x="148.4858754923273" y="442.33346170925455"/>
      <point x="175.54545454545453" y="449.6363636363637" type="curve"/>
      <point x="180.0" y="446.0909090909091" type="line"/>
      <point x="158.36363636363637" y="342.18181818181813"/>
      <point x="113.45454545454547" y="261.1818181818182"/>
      <point x="94.81818181818183" y="140.45454545454547" type="curve" smooth="yes"/>
      <point x="79.63636363636364" y="37.54545454545455"/>
      <point x="126.30501274427272" y="-13.272727272727273"/>
      <point x="186.8181818181818" y="-13.272727272727273" type="curve" smooth="yes"/>
      <point x="220.02922077923637" y="-13.272727272727273"/>
      <point x="243.88923950592724" y="-4.565305948618182"/>
      <point x="259.1818181818182" y="10.727272727272728" type="curve" smooth="yes"/>
      <point x="270.9915796866909" y="22.537034232145455"/>
      <point x="278.7898051449273" y="37.582499825509096"/>
      <point x="282.6363636363636" y="54.45454545454546" type="curve" smooth="yes"/>
      <point x="287.45454545454544" y="74.36363636363636"/>
      <point x="288.4545454545455" y="94.09090909090908"/>
      <point x="286.09090909090907" y="112.18181818181819" type="curve"/>
      <point x="280.09090909090907" y="112.18181818181819" type="line"/>
      <point x="259.7272727272727" y="89.45454545454545"/>
      <point x="240.47692307692725" y="79.45454545454547"/>
      <point x="215.36363636363635" y="79.45454545454547" type="curve" smooth="yes"/>
      <point x="202.83853459970908" y="79.45454545454547"/>
      <point x="191.45454545454547" y="82.54545454545455"/>
      <point x="183.3636363636364" y="90.36363636363636" type="curve" smooth="yes"/>
      <point x="179.91917811269093" y="108.23237845827272"/>
      <point x="182.14884245161818" y="129.310860094"/>
      <point x="189.36363636363635" y="168.36363636363637" type="curve" smooth="yes"/>
      <point x="209.63636363636365" y="267.90909090909093"/>
      <point x="258.09090909090907" y="362.9090909090909"/>
      <point x="273.45454545454544" y="467.0" type="curve" smooth="yes"/>
      <point x="280.0909090909091" y="507.3636363636364"/>
      <point x="248.1818181818182" y="542.3636363636364"/>
      <point x="211.99999999999997" y="542.3636363636364" type="curve" smooth="yes"/>
      <point x="179.9257362355818" y="542.3636363636364"/>
      <point x="141.9090909090909" y="538.3636363636364"/>
    </contour>
    <contour>
      <point x="214.6363636363636" y="746.9090909090909" type="curve"/>
      <point x="205.5454545454545" y="713.2727272727273" type="line" smooth="yes"/>
      <point x="190.4545454545454" y="656.0"/>
      <point x="211.18181818181816" y="630.4545454545455"/>
      <point x="267.1818181818182" y="630.4545454545455" type="curve" smooth="yes"/>
      <point x="285.54545454545456" y="630.4545454545455"/>
      <point x="307.0" y="631.9090909090909"/>
      <point x="324.54545454545456" y="634.8181818181819" type="curve"/>
      <point x="333.72727272727275" y="671.5454545454546" type="line" smooth="yes"/>
      <point x="345.90909090909093" y="721.1818181818182"/>
      <point x="324.9696969696818" y="751.8181818181819"/>
      <point x="271.9090909090909" y="751.8181818181819" type="curve" smooth="yes"/>
      <point x="253.60227272727275" y="751.8181818181819"/>
      <point x="232.8086108540909" y="750.5859401314091"/>
    </contour>
  </outline>
</glyph>
<glyph name="j" format="2">
  <advance width="350.0"/>
  <unicode hex="006A"/>
  <outline>
    <contour>
      <point x="255.18181818181813" y="542.3636363636364" type="curve" smooth="yes"/>
      <point x="210.36363636363637" y="542.3636363636364"/>
      <point x="153.5454545454545" y="536.7272727272727"/>
      <point x="118.45454545454547" y="532.3636363636364" type="curve"/>
      <point x="109.90909090909092" y="519.6363636363636"/>
      <point x="104.27272727272728" y="507.2727272727273"/>
      <point x="100.45454545454545" y="490.72727272727275" type="curve" smooth="yes"/>
      <point x="93.27272727272727" y="459.09090909090907"/>
      <point x="102.0" y="441.0"/>
      <point x="120.63636363636363" y="441.0" type="curve" smooth="yes"/>
      <point x="145.36363636363637" y="441.0"/>
      <point x="176.1818181818182" y="449.2727272727273"/>
      <point x="219.5454545454545" y="458.8181818181818" type="curve"/>
      <point x="224.0" y="454.2727272727273" type="line"/>
      <point x="171.72727272727275" y="296.0909090909091"/>
      <point x="139.27272727272728" y="131.36363636363635"/>
      <point x="105.81818181818183" y="-1.9999999999999858" type="curve" smooth="yes"/>
      <point x="90.9090909090909" y="-66.81818181818181"/>
      <point x="74.36363636363636" y="-110.09090909090907"/>
      <point x="54.727272727272734" y="-140.54545454545453" type="curve"/>
      <point x="36.27272727272729" y="-154.90909090909093"/>
      <point x="14.909090909090908" y="-160.18181818181816"/>
      <point x="-13.0" y="-160.18181818181816" type="curve" smooth="yes"/>
      <point x="-40.36363636363636" y="-160.18181818181816"/>
      <point x="-59.54545454545455" y="-155.18181818181816"/>
      <point x="-80.00000000000001" y="-137.63636363636365" type="curve"/>
      <point x="-85.09090909090908" y="-137.63636363636365" type="line"/>
      <point x="-89.45454545454545" y="-145.8181818181818"/>
      <point x="-92.90909090909089" y="-155.0909090909091"/>
      <point x="-96.36363636363635" y="-166.36363636363637" type="curve" smooth="yes"/>
      <point x="-103.09090909090908" y="-191.1818181818182"/>
      <point x="-99.54545454545453" y="-214.90909090909093"/>
      <point x="-91.27272727272727" y="-226.36363636363637" type="curve" smooth="yes"/>
      <point x="-77.72727272727272" y="-244.0"/>
      <point x="-46.36363636363636" y="-252.8181818181818"/>
      <point x="-13.181818181818173" y="-252.27272727272728" type="curve" smooth="yes"/>
      <point x="69.1818181818182" y="-251.1818181818182"/>
      <point x="129.72727272727272" y="-214.45454545454544"/>
      <point x="190.18181818181816" y="-46.81818181818183" type="curve" smooth="yes"/>
      <point x="243.27272727272725" y="98.36363636363639"/>
      <point x="261.27272727272725" y="294.72727272727275"/>
      <point x="328.45454545454544" y="468.1818181818182" type="curve" smooth="yes"/>
      <point x="342.27272727272725" y="504.2727272727274"/>
      <point x="312.2727272727273" y="542.3636363636364"/>
    </contour>
    <contour>
      <point x="269.99999999999994" y="747.4545454545454" type="curve"/>
      <point x="260.9090909090909" y="713.8181818181818" type="line" smooth="yes"/>
      <point x="245.81818181818178" y="656.5454545454545"/>
      <point x="266.54545454545445" y="631.0"/>
      <point x="322.5454545454545" y="631.0" type="curve" smooth="yes"/>
      <point x="340.9090909090909" y="631.0"/>
      <point x="362.3636363636363" y="632.4545454545455"/>
      <point x="379.90909090909093" y="635.3636363636364" type="curve"/>
      <point x="389.0909090909091" y="672.090909090909" type="line" smooth="yes"/>
      <point x="401.2727272727273" y="721.7272727272726"/>
      <point x="380.3333333333182" y="752.3636363636363"/>
      <point x="327.27272727272725" y="752.3636363636363" type="curve" smooth="yes"/>
      <point x="308.96590909090907" y="752.3636363636363"/>
      <point x="288.17224721772726" y="751.1313946768635"/>
    </contour>
  </outline>
</glyph>
<glyph name="k" format="2">
  <advance width="600.0"/>
  <unicode hex="006B"/>
  <outline>
    <contour>
      <point x="121.5" y="-1.0" type="curve"/>
      <point x="133.0" y="222.0"/>
      <point x="244.5" y="400.5"/>
      <point x="289.5" y="628.5" type="curve"/>
      <point x="311.0" y="724.5"/>
      <point x="278.0" y="757.0"/>
      <point x="229.5" y="757.0" type="curve" smooth="yes"/>
      <point x="214.0" y="757.0"/>
      <point x="201.5" y="755.5"/>
      <point x="187.5" y="750.0" type="curve"/>
      <point x="198.0" y="725.0"/>
      <point x="196.0" y="695.0"/>
      <point x="189.0" y="655.0" type="curve" smooth="yes"/>
      <point x="154.5" y="452.5"/>
      <point x="67.0" y="302.0"/>
      <point x="30.5" y="100.0" type="curve"/>
      <point x="19.0" y="41.5"/>
      <point x="46.5" y="-4.0"/>
      <point x="100.5" y="-4.0" type="curve" smooth="yes"/>
      <point x="107.5" y="-4.0"/>
      <point x="115.0" y="-3.0"/>
    </contour>
    <contour>
      <point x="434.5" y="-10.0" type="curve" smooth="yes"/>
      <point x="459.0" y="-10.0"/>
      <point x="478.5" y="-5.5"/>
      <point x="496.0" y="2.5" type="curve"/>
      <point x="427.0" y="88.5"/>
      <point x="372.5" y="192.5"/>
      <point x="337.5" y="305.0" type="curve"/>
      <point x="260.0" y="243.5" type="line"/>
      <point x="274.5" y="232.5" type="line"/>
      <point x="281.5" y="183.0"/>
      <point x="289.5" y="155.0"/>
      <point x="304.0" y="119.5" type="curve" smooth="yes"/>
      <point x="319.5" y="83.0"/>
      <point x="339.5" y="46.5"/>
      <point x="357.0" y="23.0" type="curve"/>
      <point x="375.5" y="-1.5"/>
      <point x="396.5" y="-10.0"/>
    </contour>
    <contour>
      <point x="157.5" y="296.5" type="line"/>
      <point x="123.5" y="199.0" type="line"/>
      <point x="279.0" y="211.0"/>
      <point x="432.0" y="299.0"/>
      <point x="548.0" y="449.5" type="curve" smooth="yes"/>
      <point x="566.5" y="472.5"/>
      <point x="574.0" y="490.5"/>
      <point x="576.0" y="502.0" type="curve" smooth="yes"/>
      <point x="580.5" y="524.0"/>
      <point x="566.0" y="542.5"/>
      <point x="498.0" y="542.5" type="curve"/>
      <point x="481.0" y="542.5" type="line"/>
      <point x="437.0" y="471.5"/>
      <point x="394.0" y="416.0"/>
      <point x="347.5" y="373.0" type="curve" smooth="yes"/>
      <point x="298.0" y="326.5"/>
      <point x="245.5" y="294.0"/>
      <point x="185.5" y="271.5" type="curve"/>
    </contour>
  </outline>
</glyph>
